G04*
G04 #@! TF.GenerationSoftware,Altium Limited,Altium Designer,25.1.2 (22)*
G04*
G04 Layer_Color=16711935*
%FSLAX25Y25*%
%MOIN*%
G70*
G04*
G04 #@! TF.SameCoordinates,A423F219-74DF-48C0-8C07-EBF34D934AC7*
G04*
G04*
G04 #@! TF.FilePolarity,Positive*
G04*
G01*
G75*
%ADD15C,0.01000*%
%ADD112C,0.00197*%
D15*
X507750Y331000D02*
G03*
X487750Y351000I-20000J0D01*
G01*
Y198500D02*
G03*
X507750Y218500I0J20000D01*
G01*
X310250Y351000D02*
G03*
X290250Y331000I0J-20000D01*
G01*
Y218500D02*
G03*
X310250Y198500I20000J0D01*
G01*
X350250Y371000D02*
G03*
X340250Y361000I0J-10000D01*
G01*
X330250Y351000D02*
G03*
X340250Y361000I0J10000D01*
G01*
X457750D02*
G03*
X467750Y351000I10000J0D01*
G01*
X457750Y361000D02*
G03*
X447750Y371000I-10000J0D01*
G01*
Y178500D02*
G03*
X457750Y188500I0J10000D01*
G01*
X467750Y198500D02*
G03*
X457750Y188500I0J-10000D01*
G01*
X340250D02*
G03*
X330250Y198500I-10000J0D01*
G01*
X340250Y188500D02*
G03*
X350250Y178500I10000J0D01*
G01*
X507750Y218500D02*
Y331000D01*
X290250Y218500D02*
Y331000D01*
X467750Y198500D02*
X487750D01*
X310250D02*
X330250D01*
X310250Y351000D02*
X330250D01*
X467750D02*
X487750D01*
X350250Y371000D02*
X447750D01*
X350250Y178500D02*
X447750D01*
D112*
X373819Y328000D02*
X374803D01*
X375000Y328197D01*
Y328590D01*
X374803Y328787D01*
X373819D01*
Y329181D02*
Y329968D01*
X374016D01*
X374803Y329181D01*
X375000D01*
M02*
