G04*
G04 #@! TF.GenerationSoftware,Altium Limited,Altium Designer,25.1.2 (22)*
G04*
G04 Layer_Color=32768*
%FSLAX25Y25*%
%MOIN*%
G70*
G04*
G04 #@! TF.SameCoordinates,A423F219-74DF-48C0-8C07-EBF34D934AC7*
G04*
G04*
G04 #@! TF.FilePolarity,Positive*
G04*
G01*
G75*
%ADD11C,0.00787*%
%ADD13C,0.00394*%
%ADD16C,0.00600*%
%ADD112C,0.00197*%
G36*
X483700Y316950D02*
Y314335D01*
X483053D01*
D01*
X474047D01*
D01*
X473400D01*
Y316950D01*
D01*
Y322019D01*
D01*
Y324635D01*
X474047D01*
D01*
X483053D01*
D01*
X483700D01*
Y322019D01*
D01*
Y316950D01*
D01*
D02*
G37*
D11*
X311138Y260709D02*
X325862D01*
Y272291D01*
X311138D02*
X325862D01*
X311138Y260709D02*
Y272291D01*
X389673Y213673D02*
Y235327D01*
Y213673D02*
X411327D01*
Y235327D01*
X389673D02*
X411327D01*
X399461Y319468D02*
X412059D01*
X399461Y307579D02*
Y319468D01*
Y307579D02*
X412059D01*
Y319468D01*
X457850Y269390D02*
X464150D01*
X457850Y255610D02*
Y269390D01*
Y255610D02*
X464150D01*
Y269390D01*
X456913Y287122D02*
Y299878D01*
Y287122D02*
X471087D01*
Y299878D01*
X456913D02*
X471087D01*
X325421Y332335D02*
Y336665D01*
X315579D02*
X325421D01*
X315579Y332335D02*
Y336665D01*
Y332335D02*
X325421D01*
Y340835D02*
Y345165D01*
X315579D02*
X325421D01*
X315579Y340835D02*
Y345165D01*
Y340835D02*
X325421D01*
X473165Y223583D02*
Y246417D01*
X443835D02*
X473165D01*
X443835Y223583D02*
Y246417D01*
Y223583D02*
X473165D01*
X492921Y226835D02*
Y231165D01*
X483079D02*
X492921D01*
X483079Y226835D02*
Y231165D01*
Y226835D02*
X492921D01*
X348339Y221291D02*
Y232709D01*
Y221291D02*
X365661D01*
Y232709D01*
X348339D02*
X365661D01*
X291988Y330047D02*
X324291D01*
X291988Y290953D02*
Y330047D01*
Y290953D02*
X324291D01*
Y330047D01*
X305020Y273429D02*
X319980D01*
Y289571D01*
X305020D02*
X319980D01*
X305020Y273429D02*
Y289571D01*
X307350Y252890D02*
X313650D01*
X307350Y239110D02*
Y252890D01*
Y239110D02*
X313650D01*
Y252890D01*
X298350Y252811D02*
X304650D01*
X298350Y239032D02*
Y252811D01*
Y239032D02*
X304650D01*
Y252811D01*
X315657Y246921D02*
X335343D01*
X315657Y233142D02*
Y246921D01*
Y233142D02*
X335343D01*
Y246921D01*
X447421Y207835D02*
Y212165D01*
X437579D02*
X447421D01*
X437579Y207835D02*
Y212165D01*
Y207835D02*
X447421D01*
X487421Y208835D02*
Y213165D01*
X477579D02*
X487421D01*
X477579Y208835D02*
Y213165D01*
Y208835D02*
X487421D01*
X463122Y200413D02*
X475878D01*
Y214587D01*
X463122D02*
X475878D01*
X463122Y200413D02*
Y214587D01*
X484669Y312693D02*
X493331D01*
X484669Y299307D02*
Y312693D01*
Y299307D02*
X493331D01*
Y312693D01*
X492969Y218335D02*
Y222665D01*
X483126D02*
X492969D01*
X483126Y218335D02*
Y222665D01*
Y218335D02*
X492969D01*
X492921Y236335D02*
Y240665D01*
X483079D02*
X492921D01*
X483079Y236335D02*
Y240665D01*
Y236335D02*
X492921D01*
Y245335D02*
Y249665D01*
X483079D02*
X492921D01*
X483079Y245335D02*
Y249665D01*
Y245335D02*
X492921D01*
X474390Y305850D02*
Y312150D01*
X460610D02*
X474390D01*
X460610Y305850D02*
Y312150D01*
Y305850D02*
X474390D01*
X483087Y292122D02*
Y304878D01*
X468913D02*
X483087D01*
X468913Y292122D02*
Y304878D01*
Y292122D02*
X483087D01*
D13*
X432228Y225500D02*
X435772D01*
X434000Y223728D02*
Y227272D01*
X368130Y223500D02*
X371870D01*
X370000Y221630D02*
Y225370D01*
X383500Y224130D02*
Y227870D01*
X381630Y226000D02*
X385370D01*
X384000Y233130D02*
Y236870D01*
X382130Y235000D02*
X385870D01*
X376000Y231728D02*
Y235272D01*
X374228Y233500D02*
X377772D01*
X446728Y203500D02*
X450272D01*
X448500Y201728D02*
Y205272D01*
X393728Y244500D02*
X397272D01*
X395500Y242728D02*
Y246272D01*
X374500Y328532D02*
Y332469D01*
X372532Y330500D02*
X376468D01*
X388531Y331500D02*
X392469D01*
X390500Y329532D02*
Y333469D01*
X403500Y323728D02*
Y327272D01*
X401728Y325500D02*
X405272D01*
X394744Y302630D02*
Y306370D01*
X392874Y304500D02*
X396614D01*
X405500Y302630D02*
Y306370D01*
X403630Y304500D02*
X407370D01*
X416000Y310228D02*
Y313772D01*
X414228Y312000D02*
X417772D01*
X422500Y305228D02*
Y308772D01*
X420728Y307000D02*
X424272D01*
X335228Y338000D02*
X338772D01*
X337000Y336228D02*
Y339772D01*
X335228Y346500D02*
X338772D01*
X337000Y344728D02*
Y348272D01*
X418500Y218130D02*
Y221870D01*
X416630Y220000D02*
X420370D01*
X379500Y218630D02*
Y222370D01*
X377630Y220500D02*
X381370D01*
X416500Y212630D02*
Y216370D01*
X414630Y214500D02*
X418370D01*
X316228Y257500D02*
X319772D01*
X318000Y255728D02*
Y259272D01*
X327100Y310828D02*
Y314372D01*
X325328Y312600D02*
X328872D01*
X326500Y272728D02*
Y276272D01*
X324728Y274500D02*
X328272D01*
X327984Y305000D02*
X331528D01*
X329756Y303228D02*
Y306772D01*
X339300Y230728D02*
Y234272D01*
X337528Y232500D02*
X341072D01*
X431000Y213728D02*
Y217272D01*
X429228Y215500D02*
X432772D01*
X339600Y240728D02*
Y244272D01*
X337828Y242500D02*
X341372D01*
X344900Y224728D02*
Y228272D01*
X343128Y226500D02*
X346672D01*
X480728Y204500D02*
X484272D01*
X482500Y202728D02*
Y206272D01*
X458500Y206728D02*
Y210272D01*
X456728Y208500D02*
X460272D01*
X302500Y281728D02*
Y285272D01*
X300728Y283500D02*
X304272D01*
X450574Y316367D02*
Y319911D01*
X448802Y318139D02*
X452346D01*
X438132Y314400D02*
X442068D01*
X440100Y312432D02*
Y316369D01*
X496500Y300228D02*
Y303772D01*
X494728Y302000D02*
X498272D01*
X487228Y317000D02*
X490772D01*
X489000Y315228D02*
Y318772D01*
X447728Y221000D02*
X451272D01*
X449500Y219228D02*
Y222772D01*
X465228Y221000D02*
X468772D01*
X467000Y219228D02*
Y222772D01*
X476000Y229728D02*
Y233272D01*
X474228Y231500D02*
X477772D01*
X476000Y239728D02*
Y243272D01*
X474228Y241500D02*
X477772D01*
X379031Y314000D02*
X382968D01*
X381000Y312032D02*
Y315968D01*
X379031Y306000D02*
X382968D01*
X381000Y304031D02*
Y307968D01*
X477228Y252500D02*
X480772D01*
X479000Y250728D02*
Y254272D01*
X458228Y252500D02*
X461772D01*
X460000Y250728D02*
Y254272D01*
X486528Y294100D02*
X490072D01*
X488300Y292328D02*
Y295872D01*
X459228Y279500D02*
X462772D01*
X461000Y277728D02*
Y281272D01*
D16*
X483700Y314335D02*
Y316950D01*
Y322019D01*
Y324635D01*
X483053D02*
X483700D01*
X474047D02*
X483053D01*
X473400D02*
X474047D01*
X473400Y322019D02*
Y324635D01*
Y316950D02*
Y322019D01*
Y314335D02*
Y316950D01*
Y314335D02*
X474047D01*
X483053D01*
X483700D01*
D112*
X419724Y230622D02*
Y243378D01*
X435276D01*
Y230622D02*
Y243378D01*
X419724Y230622D02*
X435276D01*
X431244Y220382D02*
Y230618D01*
X436756Y220382D02*
Y230618D01*
X431244Y220382D02*
X436756D01*
X431244Y230618D02*
X436756D01*
X397492Y196732D02*
Y202047D01*
X402413D01*
Y207953D01*
X397492D02*
X402413D01*
X397492D02*
Y213268D01*
X371508D02*
X397492D01*
X371508Y207953D02*
Y213268D01*
X366587Y207953D02*
X371508D01*
X366587Y202047D02*
Y207953D01*
Y202047D02*
X371508D01*
Y196732D02*
Y202047D01*
Y196732D02*
X397492D01*
X372953Y218185D02*
Y228815D01*
X367047Y218185D02*
Y228815D01*
X372953D01*
X367047Y218185D02*
X372953D01*
X378185Y228953D02*
X388815D01*
X378185Y223047D02*
X388815D01*
X378185D02*
Y228953D01*
X388815Y223047D02*
Y228953D01*
X378685Y237953D02*
X389315D01*
X378685Y232047D02*
X389315D01*
X378685D02*
Y237953D01*
X389315Y232047D02*
Y237953D01*
X373244Y228382D02*
X378756D01*
X373244Y238618D02*
X378756D01*
X373244Y228382D02*
Y238618D01*
X378756Y228382D02*
Y238618D01*
X351941Y237185D02*
Y247815D01*
X357059D01*
Y237185D02*
Y247815D01*
X351941Y237185D02*
X357059D01*
X373185Y241941D02*
X383815D01*
X373185D02*
Y247059D01*
X383815D01*
Y241941D02*
Y247059D01*
X321905Y210032D02*
Y213968D01*
X319937Y212000D02*
X323874D01*
X304386Y199992D02*
X339425D01*
X304386D02*
Y223024D01*
X339425D01*
Y199992D02*
Y223024D01*
X453618Y200744D02*
Y206256D01*
X443382Y200744D02*
Y206256D01*
Y200744D02*
X453618D01*
X443382Y206256D02*
X453618D01*
X390382Y241744D02*
Y247256D01*
X400618Y241744D02*
Y247256D01*
X390382D02*
X400618D01*
X390382Y241744D02*
X400618D01*
X362685Y341059D02*
X373315D01*
Y335941D02*
Y341059D01*
X362685Y335941D02*
X373315D01*
X362685D02*
Y341059D01*
X330252Y309189D02*
X363748D01*
X330252D02*
Y334811D01*
X363748D01*
Y309189D02*
Y334811D01*
X369776Y324791D02*
X379224D01*
X369776Y336209D02*
X379224D01*
X369776Y324791D02*
Y336209D01*
X379224Y324791D02*
Y336209D01*
X400736Y318114D02*
Y344886D01*
X380264Y318114D02*
Y344886D01*
X400736D01*
X380264Y318114D02*
X400736D01*
X400744Y320382D02*
X406256D01*
X400744Y330618D02*
X406256D01*
X400744Y320382D02*
Y330618D01*
X406256Y320382D02*
Y330618D01*
X389429Y307453D02*
X400059D01*
X389429Y301547D02*
X400059D01*
X389429D02*
Y307453D01*
X400059Y301547D02*
Y307453D01*
X400185Y301547D02*
X410815D01*
X400185Y307453D02*
X410815D01*
Y301547D02*
Y307453D01*
X400185Y301547D02*
Y307453D01*
X413244Y306882D02*
X418756D01*
X413244Y317118D02*
X418756D01*
X413244Y306882D02*
Y317118D01*
X418756Y306882D02*
Y317118D01*
X419744Y301882D02*
X425256D01*
X419744Y312118D02*
X425256D01*
X419744Y301882D02*
Y312118D01*
X425256Y301882D02*
Y312118D01*
X342118Y335244D02*
Y340756D01*
X331882Y335244D02*
Y340756D01*
Y335244D02*
X342118D01*
X331882Y340756D02*
X342118D01*
X331882Y343744D02*
Y349256D01*
X342118Y343744D02*
Y349256D01*
X331882D02*
X342118D01*
X331882Y343744D02*
X342118D01*
X409724Y208378D02*
X425276D01*
X409724Y195622D02*
Y208378D01*
Y195622D02*
X425276D01*
Y208378D01*
X413185Y217047D02*
X423815D01*
X413185Y222953D02*
X423815D01*
Y217047D02*
Y222953D01*
X413185Y217047D02*
Y222953D01*
X374185Y223453D02*
X384815D01*
X374185Y217547D02*
X384815D01*
X374185D02*
Y223453D01*
X384815Y217547D02*
Y223453D01*
X411185Y211547D02*
X421815D01*
X411185Y217453D02*
X421815D01*
Y211547D02*
Y217453D01*
X411185Y211547D02*
Y217453D01*
X467849Y258004D02*
Y291500D01*
X493471D01*
Y258004D02*
Y291500D01*
X467849Y258004D02*
X493471D01*
X312882Y254744D02*
Y260256D01*
X323118Y254744D02*
Y260256D01*
X312882D02*
X323118D01*
X312882Y254744D02*
X323118D01*
X319941Y279685D02*
Y290315D01*
X325059D01*
Y279685D02*
Y290315D01*
X319941Y279685D02*
X325059D01*
X324344Y307482D02*
X329856D01*
X324344Y317718D02*
X329856D01*
X324344Y307482D02*
Y317718D01*
X329856Y307482D02*
Y317718D01*
X323744Y279618D02*
X329256D01*
X323744Y269382D02*
X329256D01*
Y279618D01*
X323744Y269382D02*
Y279618D01*
X325185Y233059D02*
X335815D01*
Y227941D02*
Y233059D01*
X325185Y227941D02*
X335815D01*
X325185D02*
Y233059D01*
X334874Y302244D02*
Y307756D01*
X324638Y302244D02*
Y307756D01*
Y302244D02*
X334874D01*
X324638Y307756D02*
X334874D01*
X309185Y228941D02*
X319815D01*
X309185D02*
Y234059D01*
X319815D01*
Y228941D02*
Y234059D01*
X303685Y233441D02*
X314315D01*
X303685D02*
Y238559D01*
X314315D01*
Y233441D02*
Y238559D01*
X336544Y227382D02*
X342056D01*
X336544Y237618D02*
X342056D01*
X336544Y227382D02*
Y237618D01*
X342056Y227382D02*
Y237618D01*
X428244Y210382D02*
X433756D01*
X428244Y220618D02*
X433756D01*
X428244Y210382D02*
Y220618D01*
X433756Y210382D02*
Y220618D01*
X336844Y237382D02*
X342356D01*
X336844Y247618D02*
X342356D01*
X336844Y237382D02*
Y247618D01*
X342356Y237382D02*
Y247618D01*
X342144Y221382D02*
X347656D01*
X342144Y231618D02*
X347656D01*
X342144Y221382D02*
Y231618D01*
X347656Y221382D02*
Y231618D01*
X477382Y201744D02*
Y207256D01*
X487618Y201744D02*
Y207256D01*
X477382D02*
X487618D01*
X477382Y201744D02*
X487618D01*
X455744Y213618D02*
X461256D01*
X455744Y203382D02*
X461256D01*
Y213618D01*
X455744Y203382D02*
Y213618D01*
X299744Y288618D02*
X305256D01*
X299744Y278382D02*
X305256D01*
Y288618D01*
X299744Y278382D02*
Y288618D01*
X299059Y263685D02*
Y274315D01*
X293941Y263685D02*
X299059D01*
X293941D02*
Y274315D01*
X299059D01*
X293941Y274185D02*
Y284815D01*
X299059D01*
Y274185D02*
Y284815D01*
X293941Y274185D02*
X299059D01*
X473059Y314185D02*
Y324815D01*
X467941Y314185D02*
X473059D01*
X467941D02*
Y324815D01*
X473059D01*
X467185Y325441D02*
X477815D01*
X467185D02*
Y330559D01*
X477815D01*
Y325441D02*
Y330559D01*
X477685Y329559D02*
X488315D01*
Y324441D02*
Y329559D01*
X477685Y324441D02*
X488315D01*
X477685D02*
Y329559D01*
X366185Y319441D02*
X376815D01*
X366185D02*
Y324559D01*
X376815D01*
Y319441D02*
Y324559D01*
X304059Y259685D02*
Y270315D01*
X298941Y259685D02*
X304059D01*
X298941D02*
Y270315D01*
X304059D01*
X311559Y259685D02*
Y270315D01*
X306441Y259685D02*
X311559D01*
X306441D02*
Y270315D01*
X311559D01*
X493941Y307091D02*
Y317721D01*
X499059D01*
Y307091D02*
Y317721D01*
X493941Y307091D02*
X499059D01*
X447818Y313021D02*
X453330D01*
X447818Y323257D02*
X453330D01*
X447818Y313021D02*
Y323257D01*
X453330Y313021D02*
Y323257D01*
X447679Y310069D02*
Y318731D01*
X432521Y310069D02*
Y318731D01*
Y310069D02*
X447679D01*
X432521Y318731D02*
X447679D01*
X493744Y296882D02*
X499256D01*
X493744Y307118D02*
X499256D01*
X493744Y296882D02*
Y307118D01*
X499256Y296882D02*
Y307118D01*
X483882Y314244D02*
Y319756D01*
X494118Y314244D02*
Y319756D01*
X483882D02*
X494118D01*
X483882Y314244D02*
X494118D01*
X432285Y310559D02*
X442915D01*
Y305441D02*
Y310559D01*
X432285Y305441D02*
X442915D01*
X432285D02*
Y310559D01*
X454618Y218244D02*
Y223756D01*
X444382Y218244D02*
Y223756D01*
Y218244D02*
X454618D01*
X444382Y223756D02*
X454618D01*
X472118Y218244D02*
Y223756D01*
X461882Y218244D02*
Y223756D01*
Y218244D02*
X472118D01*
X461882Y223756D02*
X472118D01*
X473244Y236618D02*
X478756D01*
X473244Y226382D02*
X478756D01*
Y236618D01*
X473244Y226382D02*
Y236618D01*
Y246618D02*
X478756D01*
X473244Y236382D02*
X478756D01*
Y246618D01*
X473244Y236382D02*
Y246618D01*
X389661Y309669D02*
Y318331D01*
X372339Y309669D02*
Y318331D01*
Y309669D02*
X389661D01*
X372339Y318331D02*
X389661D01*
Y301669D02*
Y310331D01*
X372339Y301669D02*
Y310331D01*
Y301669D02*
X389661D01*
X372339Y310331D02*
X389661D01*
X484118Y249744D02*
Y255256D01*
X473882Y249744D02*
Y255256D01*
Y249744D02*
X484118D01*
X473882Y255256D02*
X484118D01*
X454882Y249744D02*
Y255256D01*
X465118Y249744D02*
Y255256D01*
X454882D02*
X465118D01*
X454882Y249744D02*
X465118D01*
X493418Y291344D02*
Y296856D01*
X483182Y291344D02*
Y296856D01*
Y291344D02*
X493418D01*
X483182Y296856D02*
X493418D01*
X466118Y276744D02*
Y282256D01*
X455882Y276744D02*
Y282256D01*
Y276744D02*
X466118D01*
X455882Y282256D02*
X466118D01*
M02*
