G04*
G04 #@! TF.GenerationSoftware,Altium Limited,Altium Designer,25.1.2 (22)*
G04*
G04 Layer_Color=8388736*
%FSLAX25Y25*%
%MOIN*%
G70*
G04*
G04 #@! TF.SameCoordinates,A423F219-74DF-48C0-8C07-EBF34D934AC7*
G04*
G04*
G04 #@! TF.FilePolarity,Positive*
G04*
G01*
G75*
%ADD13C,0.00394*%
D13*
X420807Y232000D02*
Y242000D01*
X434193D01*
Y232000D02*
Y242000D01*
X420807Y232000D02*
X434193D01*
X337063Y207079D02*
Y208653D01*
Y215347D02*
Y216921D01*
X335094Y207079D02*
X337063D01*
X335094Y208653D02*
X337063D01*
X335094Y215347D02*
X337063D01*
X335094Y216921D02*
X337063D01*
X335094Y206685D02*
Y217315D01*
X331551D02*
Y220858D01*
X329976D02*
X331551D01*
X329976Y217315D02*
Y220858D01*
X325646Y217315D02*
Y220858D01*
X324071D02*
X325646D01*
X324071Y217315D02*
Y220858D01*
X321905Y200780D02*
Y206685D01*
X308717D02*
X335094D01*
X308717Y217315D02*
X335094D01*
X316000Y200780D02*
X321905D01*
X316000D02*
Y206685D01*
X313835Y217315D02*
Y220858D01*
X312260D02*
X313835D01*
X312260Y217315D02*
Y220858D01*
X308717Y206685D02*
Y217315D01*
X306748Y215347D02*
X308717D01*
X306748Y216921D02*
X308717D01*
X306748Y208653D02*
X308717D01*
X306748Y207079D02*
X308717D01*
X306748Y215347D02*
Y216921D01*
Y207079D02*
Y208653D01*
X410807Y207000D02*
X424193D01*
X410807Y197000D02*
Y207000D01*
Y197000D02*
X424193D01*
Y207000D01*
M02*
