G04*
G04 #@! TF.GenerationSoftware,Altium Limited,Altium Designer,25.1.2 (22)*
G04*
G04 Layer_Color=255*
%FSLAX25Y25*%
%MOIN*%
G70*
G04*
G04 #@! TF.SameCoordinates,A423F219-74DF-48C0-8C07-EBF34D934AC7*
G04*
G04*
G04 #@! TF.FilePolarity,Positive*
G04*
G01*
G75*
%ADD87C,0.02953*%
%ADD89C,0.02559*%
G04:AMPARAMS|DCode=90|XSize=39.37mil|YSize=82.68mil|CornerRadius=19.68mil|HoleSize=0mil|Usage=FLASHONLY|Rotation=270.000|XOffset=0mil|YOffset=0mil|HoleType=Round|Shape=RoundedRectangle|*
%AMROUNDEDRECTD90*
21,1,0.03937,0.04331,0,0,270.0*
21,1,0.00000,0.08268,0,0,270.0*
1,1,0.03937,-0.02165,0.00000*
1,1,0.03937,-0.02165,0.00000*
1,1,0.03937,0.02165,0.00000*
1,1,0.03937,0.02165,0.00000*
%
%ADD90ROUNDEDRECTD90*%
G04:AMPARAMS|DCode=91|XSize=39.37mil|YSize=70.87mil|CornerRadius=19.68mil|HoleSize=0mil|Usage=FLASHONLY|Rotation=270.000|XOffset=0mil|YOffset=0mil|HoleType=Round|Shape=RoundedRectangle|*
%AMROUNDEDRECTD91*
21,1,0.03937,0.03150,0,0,270.0*
21,1,0.00000,0.07087,0,0,270.0*
1,1,0.03937,-0.01575,0.00000*
1,1,0.03937,-0.01575,0.00000*
1,1,0.03937,0.01575,0.00000*
1,1,0.03937,0.01575,0.00000*
%
%ADD91ROUNDEDRECTD91*%
%ADD96C,0.06000*%
%ADD97C,0.03740*%
G04:AMPARAMS|DCode=98|XSize=37.4mil|YSize=37.4mil|CornerRadius=9.35mil|HoleSize=0mil|Usage=FLASHONLY|Rotation=90.000|XOffset=0mil|YOffset=0mil|HoleType=Round|Shape=RoundedRectangle|*
%AMROUNDEDRECTD98*
21,1,0.03740,0.01870,0,0,90.0*
21,1,0.01870,0.03740,0,0,90.0*
1,1,0.01870,0.00935,0.00935*
1,1,0.01870,0.00935,-0.00935*
1,1,0.01870,-0.00935,-0.00935*
1,1,0.01870,-0.00935,0.00935*
%
%ADD98ROUNDEDRECTD98*%
%ADD99C,0.03543*%
%ADD100C,0.05937*%
%ADD101R,0.05937X0.05937*%
%ADD102R,0.05906X0.05906*%
%ADD103C,0.05906*%
%ADD104R,0.05937X0.05937*%
%ADD105C,0.13780*%
%ADD109R,0.02953X0.01378*%
%ADD110R,0.11811X0.01575*%
D87*
X357000Y227000D02*
D03*
D89*
X317402Y299122D02*
D03*
Y321878D02*
D03*
D90*
X319370Y293492D02*
D03*
Y327508D02*
D03*
D91*
X302913Y293492D02*
D03*
Y327508D02*
D03*
D96*
X424500Y329000D02*
D03*
X409500Y326500D02*
D03*
X495000Y322500D02*
D03*
X412700Y341800D02*
D03*
X346000Y340000D02*
D03*
X297000Y224500D02*
D03*
D97*
X425000Y239500D02*
D03*
X430000D02*
D03*
X425000Y234500D02*
D03*
X420000Y204500D02*
D03*
X415000Y199500D02*
D03*
X420000D02*
D03*
D98*
X430000Y234500D02*
D03*
X415000Y204500D02*
D03*
D99*
X327811Y212000D02*
D03*
X316000D02*
D03*
D100*
X359795Y330858D02*
D03*
X334205Y313142D02*
D03*
Y330858D02*
D03*
X489518Y261957D02*
D03*
X471802Y287548D02*
D03*
X489518D02*
D03*
D101*
X359795Y313142D02*
D03*
D102*
X360165Y205563D02*
D03*
D103*
Y213437D02*
D03*
D104*
X471802Y261957D02*
D03*
D105*
X447750Y188500D02*
D03*
X350250D02*
D03*
X447750Y361000D02*
D03*
X350250D02*
D03*
D109*
X301776Y284199D02*
D03*
Y281049D02*
D03*
Y277900D02*
D03*
Y274750D02*
D03*
Y271600D02*
D03*
Y268451D02*
D03*
Y265301D02*
D03*
X311224D02*
D03*
Y268451D02*
D03*
Y271600D02*
D03*
Y274750D02*
D03*
Y277900D02*
D03*
Y281049D02*
D03*
Y284199D02*
D03*
D110*
X391362Y277506D02*
D03*
Y274750D02*
D03*
Y280262D02*
D03*
Y283018D02*
D03*
Y285774D02*
D03*
Y288529D02*
D03*
Y291285D02*
D03*
Y271994D02*
D03*
Y269238D02*
D03*
Y266482D02*
D03*
Y263726D02*
D03*
Y260970D02*
D03*
X391293Y258215D02*
D03*
M02*
