G04*
G04 #@! TF.GenerationSoftware,Altium Limited,Altium Designer,25.1.2 (22)*
G04*
G04 Layer_Color=8388736*
%FSLAX25Y25*%
%MOIN*%
G70*
G04*
G04 #@! TF.SameCoordinates,A423F219-74DF-48C0-8C07-EBF34D934AC7*
G04*
G04*
G04 #@! TF.FilePolarity,Negative*
G04*
G01*
G75*
%ADD30R,0.03158X0.03827*%
%ADD31R,0.01181X0.02362*%
%ADD32R,0.02362X0.01181*%
%ADD33R,0.13583X0.13583*%
%ADD38R,0.03150X0.03150*%
%ADD44R,0.02362X0.03150*%
%ADD45R,0.03937X0.03150*%
%ADD46R,0.04331X0.07874*%
%ADD47R,0.04331X0.02559*%
%ADD48R,0.03150X0.06693*%
%ADD49R,0.04528X0.02362*%
%ADD50R,0.04528X0.01181*%
%ADD51R,0.01200X0.01100*%
%ADD52R,0.01100X0.01200*%
%ADD53R,0.02362X0.04331*%
%ADD54R,0.02559X0.04331*%
%ADD55R,0.03150X0.01968*%
%ADD59R,0.03150X0.03937*%
%ADD60R,0.07874X0.04331*%
%ADD61R,0.03943X0.03156*%
%ADD62R,0.04731X0.04337*%
%ADD63R,0.04337X0.03943*%
%ADD64R,0.03943X0.04337*%
%ADD65R,0.03550X0.03550*%
%ADD66R,0.03550X0.03550*%
%ADD67R,0.03156X0.04731*%
%ADD68R,0.04337X0.03550*%
%ADD69R,0.03156X0.03943*%
G04:AMPARAMS|DCode=70|XSize=19.75mil|YSize=29.59mil|CornerRadius=3.97mil|HoleSize=0mil|Usage=FLASHONLY|Rotation=180.000|XOffset=0mil|YOffset=0mil|HoleType=Round|Shape=RoundedRectangle|*
%AMROUNDEDRECTD70*
21,1,0.01975,0.02165,0,0,180.0*
21,1,0.01181,0.02959,0,0,180.0*
1,1,0.00794,-0.00591,0.01083*
1,1,0.00794,0.00591,0.01083*
1,1,0.00794,0.00591,-0.01083*
1,1,0.00794,-0.00591,-0.01083*
%
%ADD70ROUNDEDRECTD70*%
%ADD71O,0.02762X0.07880*%
%ADD72R,0.05315X0.02362*%
%ADD73R,0.05315X0.01575*%
%ADD74C,0.06909*%
%ADD75C,0.00709*%
%ADD76R,0.03756X0.01984*%
%ADD77R,0.07693X0.06512*%
%ADD78R,0.04534X0.07093*%
%ADD79C,0.06400*%
%ADD80C,0.04140*%
G04:AMPARAMS|DCode=81|XSize=41.4mil|YSize=41.4mil|CornerRadius=11.35mil|HoleSize=0mil|Usage=FLASHONLY|Rotation=90.000|XOffset=0mil|YOffset=0mil|HoleType=Round|Shape=RoundedRectangle|*
%AMROUNDEDRECTD81*
21,1,0.04140,0.01870,0,0,90.0*
21,1,0.01870,0.04140,0,0,90.0*
1,1,0.02270,0.00935,0.00935*
1,1,0.02270,0.00935,-0.00935*
1,1,0.02270,-0.00935,-0.00935*
1,1,0.02270,-0.00935,0.00935*
%
%ADD81ROUNDEDRECTD81*%
%ADD82C,0.03943*%
%ADD83C,0.06740*%
%ADD84R,0.06740X0.06740*%
%ADD85R,0.06306X0.06306*%
%ADD86C,0.06306*%
%ADD87C,0.02953*%
%ADD88R,0.06740X0.06740*%
%ADD89C,0.02559*%
G04:AMPARAMS|DCode=90|XSize=39.37mil|YSize=82.68mil|CornerRadius=19.68mil|HoleSize=0mil|Usage=FLASHONLY|Rotation=270.000|XOffset=0mil|YOffset=0mil|HoleType=Round|Shape=RoundedRectangle|*
%AMROUNDEDRECTD90*
21,1,0.03937,0.04331,0,0,270.0*
21,1,0.00000,0.08268,0,0,270.0*
1,1,0.03937,-0.02165,0.00000*
1,1,0.03937,-0.02165,0.00000*
1,1,0.03937,0.02165,0.00000*
1,1,0.03937,0.02165,0.00000*
%
%ADD90ROUNDEDRECTD90*%
G04:AMPARAMS|DCode=91|XSize=39.37mil|YSize=70.87mil|CornerRadius=19.68mil|HoleSize=0mil|Usage=FLASHONLY|Rotation=270.000|XOffset=0mil|YOffset=0mil|HoleType=Round|Shape=RoundedRectangle|*
%AMROUNDEDRECTD91*
21,1,0.03937,0.03150,0,0,270.0*
21,1,0.00000,0.07087,0,0,270.0*
1,1,0.03937,-0.01575,0.00000*
1,1,0.03937,-0.01575,0.00000*
1,1,0.03937,0.01575,0.00000*
1,1,0.03937,0.01575,0.00000*
%
%ADD91ROUNDEDRECTD91*%
%ADD92C,0.14179*%
G04:AMPARAMS|DCode=93|XSize=19.75mil|YSize=27.62mil|CornerRadius=5.94mil|HoleSize=0mil|Usage=FLASHONLY|Rotation=270.000|XOffset=0mil|YOffset=0mil|HoleType=Round|Shape=RoundedRectangle|*
%AMROUNDEDRECTD93*
21,1,0.01975,0.01575,0,0,270.0*
21,1,0.00787,0.02762,0,0,270.0*
1,1,0.01187,-0.00787,-0.00394*
1,1,0.01187,-0.00787,0.00394*
1,1,0.01187,0.00787,0.00394*
1,1,0.01187,0.00787,-0.00394*
%
%ADD93ROUNDEDRECTD93*%
%ADD94C,0.02362*%
%ADD95C,0.02368*%
G36*
X319227Y236428D02*
X319338Y236317D01*
X319398Y236173D01*
Y236094D01*
Y236016D01*
X319338Y235872D01*
X319227Y235761D01*
X319082Y235701D01*
X316051D01*
Y236488D01*
X319082D01*
X319227Y236428D01*
D02*
G37*
G36*
Y238003D02*
X319338Y237892D01*
X319398Y237748D01*
Y237669D01*
Y237591D01*
X319338Y237446D01*
X319227Y237335D01*
X319082Y237276D01*
X319004D01*
Y237276D01*
X316051D01*
Y238063D01*
X319082D01*
X319227Y238003D01*
D02*
G37*
G36*
Y239578D02*
X319338Y239467D01*
X319398Y239322D01*
Y239244D01*
Y239166D01*
X319338Y239021D01*
X319227Y238910D01*
X319082Y238850D01*
X316051D01*
Y239638D01*
X319082D01*
X319227Y239578D01*
D02*
G37*
G36*
Y241153D02*
X319338Y241042D01*
X319398Y240897D01*
Y240819D01*
Y240741D01*
X319338Y240596D01*
X319227Y240485D01*
X319082Y240425D01*
X316051D01*
Y241213D01*
X319082D01*
X319227Y241153D01*
D02*
G37*
G36*
X319004Y242787D02*
X319082D01*
X319227Y242727D01*
X319338Y242617D01*
X319398Y242472D01*
Y242394D01*
Y242315D01*
X319338Y242171D01*
X319227Y242060D01*
X319082Y242000D01*
X316051D01*
Y242787D01*
X319004Y242787D01*
D02*
G37*
G36*
X319227Y244302D02*
X319338Y244192D01*
X319398Y244047D01*
Y243969D01*
Y243890D01*
X319338Y243745D01*
X319227Y243635D01*
X319082Y243575D01*
X316051D01*
Y244362D01*
X319082D01*
X319227Y244302D01*
D02*
G37*
G36*
X330323Y233535D02*
X329339D01*
Y236193D01*
X321661D01*
Y233535D01*
X320677D01*
Y246528D01*
X321661D01*
Y243870D01*
X329339D01*
Y246528D01*
X330323D01*
Y233535D01*
D02*
G37*
G36*
X334949Y243575D02*
X331918D01*
X331773Y243635D01*
X331662Y243745D01*
X331602Y243890D01*
Y243969D01*
Y244047D01*
X331662Y244192D01*
X331773Y244302D01*
X331918Y244362D01*
X334949D01*
Y243575D01*
D02*
G37*
G36*
Y242000D02*
X331918D01*
X331773Y242060D01*
X331662Y242171D01*
X331602Y242315D01*
Y242394D01*
Y242472D01*
X331662Y242617D01*
X331773Y242727D01*
X331918Y242787D01*
X331996D01*
Y242787D01*
X334949D01*
Y242000D01*
D02*
G37*
G36*
Y240425D02*
X331918D01*
X331773Y240485D01*
X331662Y240596D01*
X331602Y240741D01*
Y240819D01*
Y240897D01*
X331662Y241042D01*
X331773Y241153D01*
X331918Y241213D01*
X334949D01*
Y240425D01*
D02*
G37*
G36*
Y238850D02*
X331918D01*
X331773Y238910D01*
X331662Y239021D01*
X331602Y239166D01*
Y239244D01*
Y239322D01*
X331662Y239467D01*
X331773Y239578D01*
X331918Y239638D01*
X334949D01*
Y238850D01*
D02*
G37*
G36*
Y237276D02*
X331996Y237276D01*
X331918D01*
X331773Y237335D01*
X331662Y237446D01*
X331602Y237591D01*
Y237669D01*
Y237748D01*
X331662Y237892D01*
X331773Y238003D01*
X331918Y238063D01*
X334949D01*
Y237276D01*
D02*
G37*
G36*
Y235701D02*
X331918D01*
X331773Y235761D01*
X331662Y235872D01*
X331602Y236016D01*
Y236094D01*
Y236173D01*
X331662Y236317D01*
X331773Y236428D01*
X331918Y236488D01*
X334949D01*
Y235701D01*
D02*
G37*
D30*
X318500Y269984D02*
D03*
X322240Y263016D02*
D03*
X314760D02*
D03*
D31*
X407390Y215248D02*
D03*
X405421D02*
D03*
X403453D02*
D03*
X401484D02*
D03*
X399516D02*
D03*
X397547D02*
D03*
X395579D02*
D03*
X393610D02*
D03*
Y233752D02*
D03*
X395579D02*
D03*
X397547D02*
D03*
X399516D02*
D03*
X401484D02*
D03*
X403453D02*
D03*
X405421D02*
D03*
X407390D02*
D03*
D32*
X409752Y231390D02*
D03*
Y229421D02*
D03*
Y227453D02*
D03*
Y225484D02*
D03*
Y223516D02*
D03*
Y221547D02*
D03*
Y219579D02*
D03*
Y217610D02*
D03*
X391248D02*
D03*
Y219579D02*
D03*
Y221547D02*
D03*
Y223516D02*
D03*
Y225484D02*
D03*
Y227453D02*
D03*
Y229421D02*
D03*
Y231390D02*
D03*
D33*
X400500Y224500D02*
D03*
D38*
X317547Y334500D02*
D03*
X323453D02*
D03*
X317547Y343000D02*
D03*
X323453D02*
D03*
X485047Y229000D02*
D03*
X490953D02*
D03*
X439547Y210000D02*
D03*
X445453D02*
D03*
X479547Y211000D02*
D03*
X485453D02*
D03*
X485094Y220500D02*
D03*
X491000D02*
D03*
X485047Y238500D02*
D03*
X490953D02*
D03*
X485047Y247500D02*
D03*
X490953D02*
D03*
D44*
X405760Y309547D02*
D03*
X402020Y317500D02*
D03*
X409500D02*
D03*
D45*
X461000Y257579D02*
D03*
X310500Y241079D02*
D03*
X301500Y241000D02*
D03*
D46*
X461000Y265059D02*
D03*
X310500Y248559D02*
D03*
X301500Y248480D02*
D03*
D47*
X468528Y293500D02*
D03*
X459472Y289760D02*
D03*
Y297240D02*
D03*
X471472Y298500D02*
D03*
X480528Y302240D02*
D03*
Y294760D02*
D03*
D48*
X363693Y227000D02*
D03*
X350307D02*
D03*
D49*
X321634Y297902D02*
D03*
Y323098D02*
D03*
Y301051D02*
D03*
Y319949D02*
D03*
D50*
Y303610D02*
D03*
Y305579D02*
D03*
Y307547D02*
D03*
Y309516D02*
D03*
Y311484D02*
D03*
Y313453D02*
D03*
Y315421D02*
D03*
Y317390D02*
D03*
D51*
X475600Y318500D02*
D03*
Y320469D02*
D03*
X481500D02*
D03*
Y318500D02*
D03*
D52*
X475597Y322434D02*
D03*
X477565D02*
D03*
X479534D02*
D03*
X481503D02*
D03*
Y316534D02*
D03*
X479534D02*
D03*
X477565D02*
D03*
X475597D02*
D03*
D53*
X308760Y287012D02*
D03*
X316240D02*
D03*
Y275988D02*
D03*
X312500D02*
D03*
X308760D02*
D03*
D54*
X469500Y212028D02*
D03*
X473240Y202972D02*
D03*
X465760D02*
D03*
D55*
X491362Y311315D02*
D03*
Y307772D02*
D03*
Y304228D02*
D03*
Y300685D02*
D03*
X486638D02*
D03*
Y304228D02*
D03*
Y307772D02*
D03*
Y311315D02*
D03*
D59*
X462579Y309000D02*
D03*
D60*
X470059D02*
D03*
D61*
X434000Y222744D02*
D03*
Y228256D02*
D03*
X376000Y230744D02*
D03*
Y236256D02*
D03*
X403500Y322744D02*
D03*
Y328256D02*
D03*
X416000Y309244D02*
D03*
Y314756D02*
D03*
X422500Y304244D02*
D03*
Y309756D02*
D03*
X327100Y309844D02*
D03*
Y315356D02*
D03*
X326500Y277256D02*
D03*
Y271744D02*
D03*
X339300Y229744D02*
D03*
Y235256D02*
D03*
X431000Y212744D02*
D03*
Y218256D02*
D03*
X339600Y239744D02*
D03*
Y245256D02*
D03*
X344900Y223744D02*
D03*
Y229256D02*
D03*
X458500Y211256D02*
D03*
Y205744D02*
D03*
X302500Y286256D02*
D03*
Y280744D02*
D03*
X450574Y315383D02*
D03*
Y320895D02*
D03*
X496500Y299244D02*
D03*
Y304756D02*
D03*
X476000Y234256D02*
D03*
Y228744D02*
D03*
Y244256D02*
D03*
Y238744D02*
D03*
D62*
X369736Y205000D02*
D03*
X399264D02*
D03*
D63*
X370000Y226157D02*
D03*
Y220843D02*
D03*
D64*
X380842Y226000D02*
D03*
X386157D02*
D03*
X381343Y235000D02*
D03*
X386658D02*
D03*
X392087Y304500D02*
D03*
X397402D02*
D03*
X408157D02*
D03*
X402843D02*
D03*
X421158Y220000D02*
D03*
X415842D02*
D03*
X376842Y220500D02*
D03*
X382157D02*
D03*
X419158Y214500D02*
D03*
X413842D02*
D03*
D65*
X354500Y245453D02*
D03*
Y239547D02*
D03*
X322500Y287953D02*
D03*
Y282047D02*
D03*
X296500Y266047D02*
D03*
Y271953D02*
D03*
Y282453D02*
D03*
Y276547D02*
D03*
X470500Y316547D02*
D03*
Y322453D02*
D03*
X301500Y262047D02*
D03*
Y267953D02*
D03*
X309000Y262047D02*
D03*
Y267953D02*
D03*
X496500Y315358D02*
D03*
Y309453D02*
D03*
D66*
X375547Y244500D02*
D03*
X381453D02*
D03*
X370953Y338500D02*
D03*
X365047D02*
D03*
X333453Y230500D02*
D03*
X327547D02*
D03*
X311547Y231500D02*
D03*
X317453D02*
D03*
X306047Y236000D02*
D03*
X311953D02*
D03*
X469547Y328000D02*
D03*
X475453D02*
D03*
X485953Y327000D02*
D03*
X480047D02*
D03*
X368547Y322000D02*
D03*
X374453D02*
D03*
X440553Y308000D02*
D03*
X434647D02*
D03*
D67*
X324858Y220071D02*
D03*
X330764D02*
D03*
X313047D02*
D03*
D68*
X336669Y207472D02*
D03*
X307142D02*
D03*
Y216528D02*
D03*
X336669D02*
D03*
D69*
X451256Y203500D02*
D03*
X445744D02*
D03*
X392744Y244500D02*
D03*
X398256D02*
D03*
X339756Y338000D02*
D03*
X334244D02*
D03*
X334244Y346500D02*
D03*
X339756D02*
D03*
X315244Y257500D02*
D03*
X320756D02*
D03*
X332512Y305000D02*
D03*
X327000D02*
D03*
X479744Y204500D02*
D03*
X485256D02*
D03*
X486244Y317000D02*
D03*
X491756D02*
D03*
X452256Y221000D02*
D03*
X446744D02*
D03*
X469756D02*
D03*
X464244D02*
D03*
X481756Y252500D02*
D03*
X476244D02*
D03*
X457244D02*
D03*
X462756D02*
D03*
X491056Y294100D02*
D03*
X485544D02*
D03*
X463756Y279500D02*
D03*
X458244D02*
D03*
D70*
X371941Y326465D02*
D03*
X374500D02*
D03*
X377059D02*
D03*
Y334535D02*
D03*
X371941D02*
D03*
D71*
X398000Y340752D02*
D03*
X393000D02*
D03*
X388000D02*
D03*
X383000D02*
D03*
X398000Y322248D02*
D03*
X393000D02*
D03*
X388000D02*
D03*
X383000D02*
D03*
D72*
X446984Y225650D02*
D03*
Y244350D02*
D03*
X470016D02*
D03*
Y225650D02*
D03*
D73*
X446984Y228602D02*
D03*
Y231161D02*
D03*
Y233720D02*
D03*
Y236280D02*
D03*
Y238839D02*
D03*
Y241398D02*
D03*
X470016D02*
D03*
Y238839D02*
D03*
Y236280D02*
D03*
Y233720D02*
D03*
Y231161D02*
D03*
Y228602D02*
D03*
D74*
X325500Y240032D02*
D03*
D75*
X333276Y243969D02*
D03*
Y242394D02*
D03*
Y240819D02*
D03*
X333317Y239244D02*
D03*
Y237669D02*
D03*
Y236094D02*
D03*
X317724D02*
D03*
Y237669D02*
D03*
Y239244D02*
D03*
X317683Y240819D02*
D03*
Y242394D02*
D03*
Y243969D02*
D03*
D76*
X445809Y311447D02*
D03*
Y313416D02*
D03*
Y315384D02*
D03*
Y317353D02*
D03*
X434391Y311447D02*
D03*
Y313416D02*
D03*
Y315384D02*
D03*
Y317353D02*
D03*
D77*
X440100Y314400D02*
D03*
D78*
X386610Y314000D02*
D03*
X375390D02*
D03*
X386610Y306000D02*
D03*
X375390D02*
D03*
D79*
X424500Y329000D02*
D03*
X409500Y326500D02*
D03*
X495000Y322500D02*
D03*
X412700Y341800D02*
D03*
X346000Y340000D02*
D03*
X297000Y224500D02*
D03*
D80*
X425000Y239500D02*
D03*
X430000D02*
D03*
X425000Y234500D02*
D03*
X420000Y204500D02*
D03*
X415000Y199500D02*
D03*
X420000D02*
D03*
D81*
X430000Y234500D02*
D03*
X415000Y204500D02*
D03*
D82*
X327811Y212000D02*
D03*
X316000D02*
D03*
D83*
X359795Y330858D02*
D03*
X334205Y313142D02*
D03*
Y330858D02*
D03*
X489518Y261957D02*
D03*
X471802Y287548D02*
D03*
X489518D02*
D03*
D84*
X359795Y313142D02*
D03*
D85*
X360165Y205563D02*
D03*
D86*
Y213437D02*
D03*
D87*
X357000Y227000D02*
D03*
D88*
X471802Y261957D02*
D03*
D89*
X317402Y299122D02*
D03*
Y321878D02*
D03*
D90*
X319370Y293492D02*
D03*
Y327508D02*
D03*
D91*
X302913Y293492D02*
D03*
Y327508D02*
D03*
D92*
X447750Y188500D02*
D03*
X350250D02*
D03*
X447750Y361000D02*
D03*
X350250D02*
D03*
D93*
X369740Y244240D02*
D03*
Y236760D02*
D03*
X360488D02*
D03*
Y240500D02*
D03*
Y244240D02*
D03*
D94*
X321957Y238063D02*
D03*
X325500D02*
D03*
X329043D02*
D03*
X321957Y242000D02*
D03*
X325500D02*
D03*
X329043D02*
D03*
D95*
X442068Y314400D02*
D03*
X438132D02*
D03*
M02*
