G04*
G04 #@! TF.GenerationSoftware,Altium Limited,Altium Designer,25.1.2 (22)*
G04*
G04 Layer_Color=128*
%FSLAX25Y25*%
%MOIN*%
G70*
G04*
G04 #@! TF.SameCoordinates,A423F219-74DF-48C0-8C07-EBF34D934AC7*
G04*
G04*
G04 #@! TF.FilePolarity,Positive*
G04*
G01*
G75*
%ADD14C,0.00500*%
D14*
X423000Y329000D02*
X426000D01*
X424500Y327500D02*
Y330500D01*
X423721Y239500D02*
X426279D01*
X425000Y238221D02*
Y240779D01*
X428721Y239500D02*
X431280D01*
X430000Y238221D02*
Y240779D01*
X423721Y234500D02*
X426279D01*
X425000Y233221D02*
Y235780D01*
X428721Y234500D02*
X431280D01*
X430000Y233221D02*
Y235780D01*
X408000Y326500D02*
X411000D01*
X409500Y325000D02*
Y328000D01*
X326039Y212000D02*
X329583D01*
X327811Y210228D02*
Y213772D01*
X314228Y212000D02*
X317772D01*
X316000Y210228D02*
Y213772D01*
X493500Y322500D02*
X496500D01*
X495000Y321000D02*
Y324000D01*
X411200Y341800D02*
X414200D01*
X412700Y340300D02*
Y343300D01*
X357827Y330858D02*
X361764D01*
X359795Y328890D02*
Y332827D01*
X332236Y313142D02*
X336173D01*
X334205Y311173D02*
Y315110D01*
X357827Y313142D02*
X361764D01*
X359795Y311173D02*
Y315110D01*
X332236Y330858D02*
X336173D01*
X334205Y328890D02*
Y332827D01*
X413721Y204500D02*
X416280D01*
X415000Y203221D02*
Y205780D01*
X418720Y204500D02*
X421279D01*
X420000Y203221D02*
Y205780D01*
X413721Y199500D02*
X416280D01*
X415000Y198221D02*
Y200780D01*
X418720Y199500D02*
X421279D01*
X420000Y198221D02*
Y200780D01*
X358197Y205563D02*
X362134D01*
X360165Y203594D02*
Y207531D01*
X358197Y213437D02*
X362134D01*
X360165Y211469D02*
Y215406D01*
X355524Y227000D02*
X358476D01*
X357000Y225524D02*
Y228476D01*
X487549Y261957D02*
X491487D01*
X489518Y259989D02*
Y263926D01*
X469833Y287548D02*
X473770D01*
X471802Y285579D02*
Y289516D01*
X469833Y261957D02*
X473770D01*
X471802Y259989D02*
Y263926D01*
X487549Y287548D02*
X491487D01*
X489518Y285579D02*
Y289516D01*
X316122Y299122D02*
X318681D01*
X317402Y297843D02*
Y300402D01*
X316122Y321878D02*
X318681D01*
X317402Y320598D02*
Y323158D01*
X316024Y293492D02*
X322716D01*
X319370Y290146D02*
Y296839D01*
X316024Y327508D02*
X322716D01*
X319370Y324161D02*
Y330854D01*
X300157Y293492D02*
X305669D01*
X302913Y290736D02*
Y296248D01*
X300157Y327508D02*
X305669D01*
X302913Y324752D02*
Y330264D01*
X443813Y188500D02*
X451687D01*
X447750Y184563D02*
Y192437D01*
X346313Y188500D02*
X354187D01*
X350250Y184563D02*
Y192437D01*
X443813Y361000D02*
X451687D01*
X447750Y357063D02*
Y364937D01*
X346313Y361000D02*
X354187D01*
X350250Y357063D02*
Y364937D01*
X344500Y340000D02*
X347500D01*
X346000Y338500D02*
Y341500D01*
X295500Y224500D02*
X298500D01*
X297000Y223000D02*
Y226000D01*
X473691Y315400D02*
X475190D01*
X474440Y314650D02*
Y316150D01*
X463423Y315000D02*
X464923D01*
X464173Y314250D02*
Y315750D01*
X424250Y207500D02*
X425750D01*
X425000Y206750D02*
Y208250D01*
X424250Y212500D02*
X425750D01*
X425000Y211750D02*
Y213250D01*
X432750Y190500D02*
X434250D01*
X433500Y189750D02*
Y191250D01*
X432750Y199000D02*
X434250D01*
X433500Y198250D02*
Y199750D01*
X415250Y309244D02*
X416750D01*
X416000Y308494D02*
Y309994D01*
X386656Y214507D02*
X388156D01*
X387406Y213757D02*
Y215257D01*
X395174Y212184D02*
X396674D01*
X395924Y211434D02*
Y212934D01*
X393290Y209473D02*
X394790D01*
X394040Y208723D02*
Y210223D01*
X389250Y203500D02*
X390750D01*
X390000Y202750D02*
Y204250D01*
X386750Y207500D02*
X388250D01*
X387500Y206750D02*
Y208250D01*
X299250Y256500D02*
X300750D01*
X300000Y255750D02*
Y257250D01*
X394816Y204855D02*
X396316D01*
X395566Y204105D02*
Y205605D01*
X325250Y249000D02*
X326750D01*
X326000Y248250D02*
Y249750D01*
X409250Y247000D02*
X410750D01*
X410000Y246250D02*
Y247750D01*
X367797Y322000D02*
X369297D01*
X368547Y321250D02*
Y322750D01*
X463250Y318500D02*
X464750D01*
X464000Y317750D02*
Y319250D01*
X362943Y227000D02*
X364443D01*
X363693Y226250D02*
Y227750D01*
X375250Y207000D02*
X376750D01*
X376000Y206250D02*
Y207750D01*
X441489Y230520D02*
X442989D01*
X442239Y229770D02*
Y231270D01*
X437880Y234130D02*
X439380D01*
X438630Y233380D02*
Y234880D01*
X400806Y212267D02*
X402306D01*
X401556Y211518D02*
Y213018D01*
X376750Y280000D02*
X378250D01*
X377500Y279250D02*
Y280750D01*
X414750Y292500D02*
X416250D01*
X415500Y291750D02*
Y293250D01*
X417750Y223649D02*
X419250D01*
X418500Y222899D02*
Y224399D01*
X396043Y240728D02*
X397543D01*
X396793Y239978D02*
Y241478D01*
X432750Y241500D02*
X434250D01*
X433500Y240750D02*
Y242250D01*
X434750Y244500D02*
X436250D01*
X435500Y243750D02*
Y245250D01*
X412750Y243000D02*
X414250D01*
X413500Y242250D02*
Y243750D01*
X405783Y242689D02*
X407282D01*
X406532Y241939D02*
Y243439D01*
X441043Y241378D02*
X442543D01*
X441793Y240628D02*
Y242128D01*
X403250Y248000D02*
X404750D01*
X404000Y247250D02*
Y248750D01*
X409506Y237874D02*
X411006D01*
X410256Y237124D02*
Y238624D01*
X409514Y251525D02*
X411014D01*
X410264Y250775D02*
Y252275D01*
X400784Y244500D02*
X402284D01*
X401534Y243750D02*
Y245250D01*
X456494Y252500D02*
X457994D01*
X457244Y251750D02*
Y253250D01*
X434250Y253500D02*
X435750D01*
X435000Y252750D02*
Y254250D01*
X451250Y235000D02*
X452750D01*
X452000Y234250D02*
Y235750D01*
X450559Y228273D02*
X452059D01*
X451309Y227523D02*
Y229023D01*
X451250Y231500D02*
X452750D01*
X452000Y230750D02*
Y232250D01*
X438797Y210000D02*
X440297D01*
X439547Y209250D02*
Y210750D01*
X405273Y207700D02*
X406773D01*
X406023Y206950D02*
Y208450D01*
X413128Y210061D02*
X414628D01*
X413878Y209311D02*
Y210811D01*
X413093Y214500D02*
X414593D01*
X413842Y213750D02*
Y215250D01*
X405701Y202200D02*
X407201D01*
X406452Y201450D02*
Y202950D01*
X420407Y220000D02*
X421908D01*
X421158Y219250D02*
Y220750D01*
X418407Y214500D02*
X419908D01*
X419158Y213750D02*
Y215250D01*
X435750Y202000D02*
X437250D01*
X436500Y201250D02*
Y202750D01*
X429750Y207500D02*
X431250D01*
X430500Y206750D02*
Y208250D01*
X472490Y202972D02*
X473990D01*
X473240Y202222D02*
Y203722D01*
X457750Y211256D02*
X459250D01*
X458500Y210506D02*
Y212006D01*
X462006Y252500D02*
X463506D01*
X462756Y251750D02*
Y253250D01*
X475494Y252500D02*
X476994D01*
X476244Y251750D02*
Y253250D01*
X479750Y299500D02*
X481250D01*
X480500Y298750D02*
Y300250D01*
X339006Y338000D02*
X340506D01*
X339756Y337250D02*
Y338750D01*
X369250Y220843D02*
X370750D01*
X370000Y220093D02*
Y221592D01*
X382750Y230000D02*
X384250D01*
X383500Y229250D02*
Y230750D01*
X376093Y220500D02*
X377592D01*
X376842Y219750D02*
Y221250D01*
X382236Y235000D02*
X383736D01*
X382986Y234250D02*
Y235750D01*
X384250Y244500D02*
X385750D01*
X385000Y243750D02*
Y245250D01*
X391994Y244500D02*
X393494D01*
X392744Y243750D02*
Y245250D01*
X483750Y322500D02*
X485250D01*
X484500Y321750D02*
Y323250D01*
X485203Y327000D02*
X486703D01*
X485953Y326250D02*
Y327750D01*
X468797Y328000D02*
X470297D01*
X469547Y327250D02*
Y328750D01*
X469750Y316547D02*
X471250D01*
X470500Y315797D02*
Y317297D01*
X407408Y304500D02*
X408908D01*
X408157Y303750D02*
Y305250D01*
X391337Y304500D02*
X392837D01*
X392087Y303750D02*
Y305250D01*
X373703Y322000D02*
X375203D01*
X374453Y321250D02*
Y322750D01*
X364297Y338500D02*
X365797D01*
X365047Y337750D02*
Y339250D01*
X461829Y309000D02*
X463329D01*
X462579Y308250D02*
Y309750D01*
X479778Y294760D02*
X481278D01*
X480528Y294010D02*
Y295510D01*
X469309Y309000D02*
X470809D01*
X470059Y308250D02*
Y309750D01*
X479297Y327000D02*
X480797D01*
X480047Y326250D02*
Y327750D01*
X495750Y309453D02*
X497250D01*
X496500Y308703D02*
Y310203D01*
X402093Y304500D02*
X403592D01*
X402843Y303750D02*
Y305250D01*
X469750Y322453D02*
X471250D01*
X470500Y321703D02*
Y323203D01*
X491006Y317000D02*
X492506D01*
X491756Y316250D02*
Y317750D01*
X490612Y311315D02*
X492112D01*
X491362Y310565D02*
Y312065D01*
X485494Y317000D02*
X486994D01*
X486244Y316250D02*
Y317750D01*
X495750Y315358D02*
X497250D01*
X496500Y314608D02*
Y316108D01*
X490612Y300685D02*
X492112D01*
X491362Y299935D02*
Y301435D01*
X495750Y299244D02*
X497250D01*
X496500Y298494D02*
Y299994D01*
X490306Y294100D02*
X491806D01*
X491056Y293350D02*
Y294850D01*
X463006Y279500D02*
X464506D01*
X463756Y278750D02*
Y280250D01*
X458722Y289760D02*
X460222D01*
X459472Y289010D02*
Y290510D01*
X490203Y247500D02*
X491703D01*
X490953Y246750D02*
Y248250D01*
X490203Y238500D02*
X491703D01*
X490953Y237750D02*
Y239250D01*
X490203Y229000D02*
X491703D01*
X490953Y228250D02*
Y229750D01*
X490250Y220500D02*
X491750D01*
X491000Y219750D02*
Y221250D01*
X463850Y233900D02*
X465350D01*
X464600Y233150D02*
Y234650D01*
X475250Y238744D02*
X476750D01*
X476000Y237994D02*
Y239494D01*
X445994Y221000D02*
X447494D01*
X446744Y220250D02*
Y221750D01*
X469266Y244350D02*
X470766D01*
X470016Y243600D02*
Y245100D01*
X434550Y238400D02*
X436050D01*
X435300Y237650D02*
Y239150D01*
X433250Y228256D02*
X434750D01*
X434000Y227506D02*
Y229006D01*
X385407Y226000D02*
X386908D01*
X386157Y225250D02*
Y226750D01*
X385908Y235000D02*
X387407D01*
X386658Y234250D02*
Y235750D01*
X376200Y240350D02*
X377700D01*
X376950Y239600D02*
Y241100D01*
X371250Y240200D02*
X372750D01*
X372000Y239450D02*
Y240950D01*
X317109Y266171D02*
X318609D01*
X317859Y265421D02*
Y266921D01*
X338850Y245256D02*
X340350D01*
X339600Y244506D02*
Y246006D01*
X334805Y233900D02*
X336305D01*
X335555Y233150D02*
Y234650D01*
X315450Y275900D02*
X316950D01*
X316200Y275150D02*
Y276650D01*
X332703Y230500D02*
X334203D01*
X333453Y229750D02*
Y231250D01*
X322390Y251419D02*
X323890D01*
X323140Y250669D02*
Y252169D01*
X353750Y245453D02*
X355250D01*
X354500Y244703D02*
Y246203D01*
X359738Y240500D02*
X361238D01*
X360488Y239750D02*
Y241250D01*
X353750Y239547D02*
X355250D01*
X354500Y238797D02*
Y240297D01*
X349557Y227000D02*
X351057D01*
X350307Y226250D02*
Y227750D01*
X344150Y223744D02*
X345650D01*
X344900Y222994D02*
Y224494D01*
X295750Y282453D02*
X297250D01*
X296500Y281703D02*
Y283203D01*
X301750Y289500D02*
X303250D01*
X302500Y288750D02*
Y290250D01*
X320250Y231300D02*
X321750D01*
X321000Y230550D02*
Y232050D01*
X305297Y236000D02*
X306797D01*
X306047Y235250D02*
Y236750D01*
X310797Y231500D02*
X312297D01*
X311547Y230750D02*
Y232250D01*
X326797Y230500D02*
X328297D01*
X327547Y229750D02*
Y231250D01*
X313618Y242095D02*
X315119D01*
X314369Y241345D02*
Y242845D01*
X316950Y246300D02*
X318450D01*
X317700Y245550D02*
Y247050D01*
X320006Y257500D02*
X321506D01*
X320756Y256750D02*
Y258250D01*
X308250Y262047D02*
X309750D01*
X309000Y261297D02*
Y262797D01*
X295750Y266047D02*
X297250D01*
X296500Y265297D02*
Y266797D01*
X300750Y262047D02*
X302250D01*
X301500Y261297D02*
Y262797D01*
X321750Y282047D02*
X323250D01*
X322500Y281297D02*
Y282797D01*
X325750Y271744D02*
X327250D01*
X326500Y270994D02*
Y272494D01*
X311750Y275000D02*
X313250D01*
X312500Y274250D02*
Y275750D01*
X300750Y267953D02*
X302250D01*
X301500Y267203D02*
Y268703D01*
X301026Y274750D02*
X302526D01*
X301776Y274000D02*
Y275500D01*
X320884Y323098D02*
X322384D01*
X321634Y322348D02*
Y323848D01*
X320884Y297902D02*
X322384D01*
X321634Y297152D02*
Y298652D01*
X331762Y305000D02*
X333262D01*
X332512Y304250D02*
Y305750D01*
X396652Y304500D02*
X398152D01*
X397402Y303750D02*
Y305250D01*
X401270Y317500D02*
X402770D01*
X402020Y316750D02*
Y318250D01*
X402750Y322744D02*
X404250D01*
X403500Y321994D02*
Y323494D01*
X397250Y322248D02*
X398750D01*
X398000Y321498D02*
Y322998D01*
X392250Y322248D02*
X393750D01*
X393000Y321498D02*
Y322998D01*
X387250Y322248D02*
X388750D01*
X388000Y321498D02*
Y322998D01*
X382250Y322248D02*
X383750D01*
X383000Y321498D02*
Y322998D01*
X421750Y304244D02*
X423250D01*
X422500Y303494D02*
Y304994D01*
X374640Y306000D02*
X376140D01*
X375390Y305250D02*
Y306750D01*
X402750Y270500D02*
X404250D01*
X403500Y269750D02*
Y271250D01*
X399250Y269000D02*
X400750D01*
X400000Y268250D02*
Y269750D01*
X404250Y220000D02*
X405750D01*
X405000Y219250D02*
Y220750D01*
X395250Y220000D02*
X396750D01*
X396000Y219250D02*
Y220750D01*
X404250Y229000D02*
X405750D01*
X405000Y228250D02*
Y229750D01*
X395250Y229000D02*
X396750D01*
X396000Y228250D02*
Y229750D01*
X387250Y219500D02*
X388750D01*
X388000Y218750D02*
Y220250D01*
X392250Y340752D02*
X393750D01*
X393000Y340002D02*
Y341502D01*
X458354Y308285D02*
X459854D01*
X459104Y307535D02*
Y309035D01*
X462550Y323100D02*
X464050D01*
X463300Y322350D02*
Y323850D01*
X485796Y304320D02*
X487296D01*
X486547Y303570D02*
Y305070D01*
X478650Y307400D02*
X480150D01*
X479400Y306650D02*
Y308150D01*
X485888Y300685D02*
X487388D01*
X486638Y299935D02*
Y301435D01*
X440350Y236700D02*
X441850D01*
X441100Y235950D02*
Y237450D01*
X430250Y218256D02*
X431750D01*
X431000Y217506D02*
Y219006D01*
X433250Y222744D02*
X434750D01*
X434000Y221994D02*
Y223494D01*
X321366Y238063D02*
X322547D01*
X321957Y237472D02*
Y238653D01*
X324909Y238063D02*
X326091D01*
X325500Y237472D02*
Y238653D01*
X328453Y238063D02*
X329634D01*
X329043Y237472D02*
Y238653D01*
X321366Y242000D02*
X322547D01*
X321957Y241409D02*
Y242590D01*
X324909Y242000D02*
X326091D01*
X325500Y241409D02*
Y242590D01*
X328453Y242000D02*
X329634D01*
X329043Y241409D02*
Y242590D01*
X441675Y314400D02*
X442462D01*
X442068Y314006D02*
Y314794D01*
X437738Y314400D02*
X438525D01*
X438132Y314006D02*
Y314794D01*
M02*
