G04*
G04 #@! TF.GenerationSoftware,Altium Limited,Altium Designer,25.1.2 (22)*
G04*
G04 Layer_Color=2752767*
%FSLAX25Y25*%
%MOIN*%
G70*
G04*
G04 #@! TF.SameCoordinates,A423F219-74DF-48C0-8C07-EBF34D934AC7*
G04*
G04*
G04 #@! TF.FilePolarity,Positive*
G04*
G01*
G75*
%ADD14C,0.00500*%
%ADD117C,0.00667*%
%ADD118C,0.00400*%
D14*
X423000Y237500D02*
X424000D01*
X425000Y238500D01*
X426000Y237500D01*
X427000D01*
Y238500D01*
X426000Y239500D01*
X427000Y240500D01*
Y241500D01*
X426000D01*
X425000Y240500D01*
X424000Y241500D01*
X423000D01*
Y240500D01*
X424000Y239500D01*
X423000Y238500D01*
Y237500D01*
X428000D02*
X429000D01*
X430000Y238500D01*
X431000Y237500D01*
X432000D01*
Y238500D01*
X431000Y239500D01*
X432000Y240500D01*
Y241500D01*
X431000D01*
X430000Y240500D01*
X429000Y241500D01*
X428000D01*
Y240500D01*
X429000Y239500D01*
X428000Y238500D01*
Y237500D01*
X423000Y232500D02*
X424000D01*
X425000Y233500D01*
X426000Y232500D01*
X427000D01*
Y233500D01*
X426000Y234500D01*
X427000Y235500D01*
Y236500D01*
X426000D01*
X425000Y235500D01*
X424000Y236500D01*
X423000D01*
Y235500D01*
X424000Y234500D01*
X423000Y233500D01*
Y232500D01*
X428000D02*
X429000D01*
X430000Y233500D01*
X431000Y232500D01*
X432000D01*
Y233500D01*
X431000Y234500D01*
X432000Y235500D01*
Y236500D01*
X431000D01*
X430000Y235500D01*
X429000Y236500D01*
X428000D01*
Y235500D01*
X429000Y234500D01*
X428000Y233500D01*
Y232500D01*
X325811Y210000D02*
X326811Y212000D01*
X325811Y214000D01*
X327811Y213000D01*
X329811Y214000D01*
X328811Y212000D01*
X329811Y210000D01*
X327811Y211000D01*
X325811Y210000D01*
X314000D02*
X315000Y212000D01*
X314000Y214000D01*
X316000Y213000D01*
X318000Y214000D01*
X317000Y212000D01*
X318000Y210000D01*
X316000Y211000D01*
X314000Y210000D01*
X358795Y329858D02*
Y328858D01*
X360795D01*
Y329858D01*
X361795D01*
Y331858D01*
X360795D01*
Y332858D01*
X358795D01*
Y331858D01*
X357795D01*
Y329858D01*
X358795D01*
X333205Y312142D02*
Y311142D01*
X335205D01*
Y312142D01*
X336205D01*
Y314142D01*
X335205D01*
Y315142D01*
X333205D01*
Y314142D01*
X332205D01*
Y312142D01*
X333205D01*
X358795D02*
Y311142D01*
X360795D01*
Y312142D01*
X361795D01*
Y314142D01*
X360795D01*
Y315142D01*
X358795D01*
Y314142D01*
X357795D01*
Y312142D01*
X358795D01*
X333205Y329858D02*
Y328858D01*
X335205D01*
Y329858D01*
X336205D01*
Y331858D01*
X335205D01*
Y332858D01*
X333205D01*
Y331858D01*
X332205D01*
Y329858D01*
X333205D01*
X413000Y202500D02*
X414000D01*
X415000Y203500D01*
X416000Y202500D01*
X417000D01*
Y203500D01*
X416000Y204500D01*
X417000Y205500D01*
Y206500D01*
X416000D01*
X415000Y205500D01*
X414000Y206500D01*
X413000D01*
Y205500D01*
X414000Y204500D01*
X413000Y203500D01*
Y202500D01*
X418000D02*
X419000D01*
X420000Y203500D01*
X421000Y202500D01*
X422000D01*
Y203500D01*
X421000Y204500D01*
X422000Y205500D01*
Y206500D01*
X421000D01*
X420000Y205500D01*
X419000Y206500D01*
X418000D01*
Y205500D01*
X419000Y204500D01*
X418000Y203500D01*
Y202500D01*
X413000Y197500D02*
X414000D01*
X415000Y198500D01*
X416000Y197500D01*
X417000D01*
Y198500D01*
X416000Y199500D01*
X417000Y200500D01*
Y201500D01*
X416000D01*
X415000Y200500D01*
X414000Y201500D01*
X413000D01*
Y200500D01*
X414000Y199500D01*
X413000Y198500D01*
Y197500D01*
X418000D02*
X419000D01*
X420000Y198500D01*
X421000Y197500D01*
X422000D01*
Y198500D01*
X421000Y199500D01*
X422000Y200500D01*
Y201500D01*
X421000D01*
X420000Y200500D01*
X419000Y201500D01*
X418000D01*
Y200500D01*
X419000Y199500D01*
X418000Y198500D01*
Y197500D01*
X359165Y204563D02*
Y203563D01*
X361165D01*
Y204563D01*
X362165D01*
Y206563D01*
X361165D01*
Y207563D01*
X359165D01*
Y206563D01*
X358165D01*
Y204563D01*
X359165D01*
Y212437D02*
Y211437D01*
X361165D01*
Y212437D01*
X362165D01*
Y214437D01*
X361165D01*
Y215437D01*
X359165D01*
Y214437D01*
X358165D01*
Y212437D01*
X359165D01*
X357000Y225000D02*
X358000Y226000D01*
X359000D01*
X358000Y227000D01*
X359000Y228000D01*
X358000D01*
X357000Y229000D01*
X356000Y228000D01*
X355000D01*
X356000Y227000D01*
X355000Y226000D01*
X356000D01*
X357000Y225000D01*
X488518Y260957D02*
Y259957D01*
X490518D01*
Y260957D01*
X491518D01*
Y262957D01*
X490518D01*
Y263957D01*
X488518D01*
Y262957D01*
X487518D01*
Y260957D01*
X488518D01*
X470801Y286548D02*
Y285548D01*
X472801D01*
Y286548D01*
X473802D01*
Y288548D01*
X472801D01*
Y289548D01*
X470801D01*
Y288548D01*
X469802D01*
Y286548D01*
X470801D01*
Y260957D02*
Y259957D01*
X472801D01*
Y260957D01*
X473802D01*
Y262957D01*
X472801D01*
Y263957D01*
X470801D01*
Y262957D01*
X469802D01*
Y260957D01*
X470801D01*
X488518Y286548D02*
Y285548D01*
X490518D01*
Y286548D01*
X491518D01*
Y288548D01*
X490518D01*
Y289548D01*
X488518D01*
Y288548D01*
X487518D01*
Y286548D01*
X488518D01*
X315402Y297122D02*
Y301122D01*
X319402D01*
Y297122D01*
X315402D01*
Y319878D02*
Y323878D01*
X319402D01*
Y319878D01*
X315402D01*
X302913Y291492D02*
X300913Y295492D01*
X304913D01*
X302913Y291492D01*
Y325508D02*
X300913Y329508D01*
X304913D01*
X302913Y325508D01*
X447750Y186500D02*
X445750Y190500D01*
X449750D01*
X447750Y186500D01*
Y187300D02*
X446550Y189700D01*
X448950D01*
X447750Y187300D01*
X350250Y186500D02*
X348250Y190500D01*
X352250D01*
X350250Y186500D01*
Y187300D02*
X349050Y189700D01*
X351450D01*
X350250Y187300D01*
X447750Y359000D02*
X445750Y363000D01*
X449750D01*
X447750Y359000D01*
Y359800D02*
X446550Y362200D01*
X448950D01*
X447750Y359800D01*
X350250Y359000D02*
X348250Y363000D01*
X352250D01*
X350250Y359000D01*
Y359800D02*
X349050Y362200D01*
X351450D01*
X350250Y359800D01*
X474440Y313400D02*
X475441Y314400D01*
X476440D01*
X475441Y315400D01*
X476440Y316400D01*
X475441D01*
X474440Y317400D01*
X473441Y316400D01*
X472440D01*
X473441Y315400D01*
X472440Y314400D01*
X473441D01*
X474440Y313400D01*
Y314200D02*
X475040Y314800D01*
X475640D01*
X475040Y315400D01*
X475640Y316000D01*
X475040D01*
X474440Y316600D01*
X473841Y316000D01*
X473241D01*
X473841Y315400D01*
X473241Y314800D01*
X473841D01*
X474440Y314200D01*
X464173Y313000D02*
X465173Y314000D01*
X466173D01*
X465173Y315000D01*
X466173Y316000D01*
X465173D01*
X464173Y317000D01*
X463173Y316000D01*
X462173D01*
X463173Y315000D01*
X462173Y314000D01*
X463173D01*
X464173Y313000D01*
Y313800D02*
X464773Y314400D01*
X465373D01*
X464773Y315000D01*
X465373Y315600D01*
X464773D01*
X464173Y316200D01*
X463573Y315600D01*
X462973D01*
X463573Y315000D01*
X462973Y314400D01*
X463573D01*
X464173Y313800D01*
X425000Y205500D02*
X426000Y206500D01*
X427000D01*
X426000Y207500D01*
X427000Y208500D01*
X426000D01*
X425000Y209500D01*
X424000Y208500D01*
X423000D01*
X424000Y207500D01*
X423000Y206500D01*
X424000D01*
X425000Y205500D01*
Y206300D02*
X425600Y206900D01*
X426200D01*
X425600Y207500D01*
X426200Y208100D01*
X425600D01*
X425000Y208700D01*
X424400Y208100D01*
X423800D01*
X424400Y207500D01*
X423800Y206900D01*
X424400D01*
X425000Y206300D01*
Y210500D02*
X426000Y211500D01*
X427000D01*
X426000Y212500D01*
X427000Y213500D01*
X426000D01*
X425000Y214500D01*
X424000Y213500D01*
X423000D01*
X424000Y212500D01*
X423000Y211500D01*
X424000D01*
X425000Y210500D01*
Y211300D02*
X425600Y211900D01*
X426200D01*
X425600Y212500D01*
X426200Y213100D01*
X425600D01*
X425000Y213700D01*
X424400Y213100D01*
X423800D01*
X424400Y212500D01*
X423800Y211900D01*
X424400D01*
X425000Y211300D01*
X433500Y188500D02*
X434500Y189500D01*
X435500D01*
X434500Y190500D01*
X435500Y191500D01*
X434500D01*
X433500Y192500D01*
X432500Y191500D01*
X431500D01*
X432500Y190500D01*
X431500Y189500D01*
X432500D01*
X433500Y188500D01*
Y189300D02*
X434100Y189900D01*
X434700D01*
X434100Y190500D01*
X434700Y191100D01*
X434100D01*
X433500Y191700D01*
X432900Y191100D01*
X432300D01*
X432900Y190500D01*
X432300Y189900D01*
X432900D01*
X433500Y189300D01*
Y197000D02*
X434500Y198000D01*
X435500D01*
X434500Y199000D01*
X435500Y200000D01*
X434500D01*
X433500Y201000D01*
X432500Y200000D01*
X431500D01*
X432500Y199000D01*
X431500Y198000D01*
X432500D01*
X433500Y197000D01*
Y197800D02*
X434100Y198400D01*
X434700D01*
X434100Y199000D01*
X434700Y199600D01*
X434100D01*
X433500Y200200D01*
X432900Y199600D01*
X432300D01*
X432900Y199000D01*
X432300Y198400D01*
X432900D01*
X433500Y197800D01*
X416000Y307244D02*
X417000Y308244D01*
X418000D01*
X417000Y309244D01*
X418000Y310244D01*
X417000D01*
X416000Y311244D01*
X415000Y310244D01*
X414000D01*
X415000Y309244D01*
X414000Y308244D01*
X415000D01*
X416000Y307244D01*
Y308044D02*
X416600Y308644D01*
X417200D01*
X416600Y309244D01*
X417200Y309844D01*
X416600D01*
X416000Y310444D01*
X415400Y309844D01*
X414800D01*
X415400Y309244D01*
X414800Y308644D01*
X415400D01*
X416000Y308044D01*
X387406Y212507D02*
X388406Y213507D01*
X389406D01*
X388406Y214507D01*
X389406Y215507D01*
X388406D01*
X387406Y216507D01*
X386406Y215507D01*
X385406D01*
X386406Y214507D01*
X385406Y213507D01*
X386406D01*
X387406Y212507D01*
Y213307D02*
X388006Y213907D01*
X388606D01*
X388006Y214507D01*
X388606Y215107D01*
X388006D01*
X387406Y215707D01*
X386806Y215107D01*
X386206D01*
X386806Y214507D01*
X386206Y213907D01*
X386806D01*
X387406Y213307D01*
X395924Y210184D02*
X396924Y211184D01*
X397924D01*
X396924Y212184D01*
X397924Y213184D01*
X396924D01*
X395924Y214184D01*
X394924Y213184D01*
X393924D01*
X394924Y212184D01*
X393924Y211184D01*
X394924D01*
X395924Y210184D01*
Y210984D02*
X396524Y211584D01*
X397124D01*
X396524Y212184D01*
X397124Y212784D01*
X396524D01*
X395924Y213384D01*
X395324Y212784D01*
X394724D01*
X395324Y212184D01*
X394724Y211584D01*
X395324D01*
X395924Y210984D01*
X394040Y207473D02*
X395040Y208473D01*
X396040D01*
X395040Y209473D01*
X396040Y210473D01*
X395040D01*
X394040Y211473D01*
X393040Y210473D01*
X392040D01*
X393040Y209473D01*
X392040Y208473D01*
X393040D01*
X394040Y207473D01*
Y208273D02*
X394640Y208873D01*
X395240D01*
X394640Y209473D01*
X395240Y210073D01*
X394640D01*
X394040Y210673D01*
X393440Y210073D01*
X392840D01*
X393440Y209473D01*
X392840Y208873D01*
X393440D01*
X394040Y208273D01*
X390000Y201500D02*
X391000Y202500D01*
X392000D01*
X391000Y203500D01*
X392000Y204500D01*
X391000D01*
X390000Y205500D01*
X389000Y204500D01*
X388000D01*
X389000Y203500D01*
X388000Y202500D01*
X389000D01*
X390000Y201500D01*
Y202300D02*
X390600Y202900D01*
X391200D01*
X390600Y203500D01*
X391200Y204100D01*
X390600D01*
X390000Y204700D01*
X389400Y204100D01*
X388800D01*
X389400Y203500D01*
X388800Y202900D01*
X389400D01*
X390000Y202300D01*
X387500Y205500D02*
X388500Y206500D01*
X389500D01*
X388500Y207500D01*
X389500Y208500D01*
X388500D01*
X387500Y209500D01*
X386500Y208500D01*
X385500D01*
X386500Y207500D01*
X385500Y206500D01*
X386500D01*
X387500Y205500D01*
Y206300D02*
X388100Y206900D01*
X388700D01*
X388100Y207500D01*
X388700Y208100D01*
X388100D01*
X387500Y208700D01*
X386900Y208100D01*
X386300D01*
X386900Y207500D01*
X386300Y206900D01*
X386900D01*
X387500Y206300D01*
X300000Y254500D02*
X301000Y255500D01*
X302000D01*
X301000Y256500D01*
X302000Y257500D01*
X301000D01*
X300000Y258500D01*
X299000Y257500D01*
X298000D01*
X299000Y256500D01*
X298000Y255500D01*
X299000D01*
X300000Y254500D01*
Y255300D02*
X300600Y255900D01*
X301200D01*
X300600Y256500D01*
X301200Y257100D01*
X300600D01*
X300000Y257700D01*
X299400Y257100D01*
X298800D01*
X299400Y256500D01*
X298800Y255900D01*
X299400D01*
X300000Y255300D01*
X395566Y202855D02*
X396566Y203855D01*
X397566D01*
X396566Y204855D01*
X397566Y205855D01*
X396566D01*
X395566Y206855D01*
X394566Y205855D01*
X393566D01*
X394566Y204855D01*
X393566Y203855D01*
X394566D01*
X395566Y202855D01*
Y203655D02*
X396166Y204255D01*
X396766D01*
X396166Y204855D01*
X396766Y205455D01*
X396166D01*
X395566Y206055D01*
X394966Y205455D01*
X394366D01*
X394966Y204855D01*
X394366Y204255D01*
X394966D01*
X395566Y203655D01*
X326000Y247000D02*
X327000Y248000D01*
X328000D01*
X327000Y249000D01*
X328000Y250000D01*
X327000D01*
X326000Y251000D01*
X325000Y250000D01*
X324000D01*
X325000Y249000D01*
X324000Y248000D01*
X325000D01*
X326000Y247000D01*
Y247800D02*
X326600Y248400D01*
X327200D01*
X326600Y249000D01*
X327200Y249600D01*
X326600D01*
X326000Y250200D01*
X325400Y249600D01*
X324800D01*
X325400Y249000D01*
X324800Y248400D01*
X325400D01*
X326000Y247800D01*
X410000Y245000D02*
X411000Y246000D01*
X412000D01*
X411000Y247000D01*
X412000Y248000D01*
X411000D01*
X410000Y249000D01*
X409000Y248000D01*
X408000D01*
X409000Y247000D01*
X408000Y246000D01*
X409000D01*
X410000Y245000D01*
Y245800D02*
X410600Y246400D01*
X411200D01*
X410600Y247000D01*
X411200Y247600D01*
X410600D01*
X410000Y248200D01*
X409400Y247600D01*
X408800D01*
X409400Y247000D01*
X408800Y246400D01*
X409400D01*
X410000Y245800D01*
X368547Y320000D02*
X369547Y321000D01*
X370547D01*
X369547Y322000D01*
X370547Y323000D01*
X369547D01*
X368547Y324000D01*
X367547Y323000D01*
X366547D01*
X367547Y322000D01*
X366547Y321000D01*
X367547D01*
X368547Y320000D01*
Y320800D02*
X369147Y321400D01*
X369747D01*
X369147Y322000D01*
X369747Y322600D01*
X369147D01*
X368547Y323200D01*
X367947Y322600D01*
X367347D01*
X367947Y322000D01*
X367347Y321400D01*
X367947D01*
X368547Y320800D01*
X464000Y316500D02*
X465000Y317500D01*
X466000D01*
X465000Y318500D01*
X466000Y319500D01*
X465000D01*
X464000Y320500D01*
X463000Y319500D01*
X462000D01*
X463000Y318500D01*
X462000Y317500D01*
X463000D01*
X464000Y316500D01*
Y317300D02*
X464600Y317900D01*
X465200D01*
X464600Y318500D01*
X465200Y319100D01*
X464600D01*
X464000Y319700D01*
X463400Y319100D01*
X462800D01*
X463400Y318500D01*
X462800Y317900D01*
X463400D01*
X464000Y317300D01*
X363693Y225000D02*
X364693Y226000D01*
X365693D01*
X364693Y227000D01*
X365693Y228000D01*
X364693D01*
X363693Y229000D01*
X362693Y228000D01*
X361693D01*
X362693Y227000D01*
X361693Y226000D01*
X362693D01*
X363693Y225000D01*
Y225800D02*
X364293Y226400D01*
X364893D01*
X364293Y227000D01*
X364893Y227600D01*
X364293D01*
X363693Y228200D01*
X363093Y227600D01*
X362493D01*
X363093Y227000D01*
X362493Y226400D01*
X363093D01*
X363693Y225800D01*
X376000Y205000D02*
X377000Y206000D01*
X378000D01*
X377000Y207000D01*
X378000Y208000D01*
X377000D01*
X376000Y209000D01*
X375000Y208000D01*
X374000D01*
X375000Y207000D01*
X374000Y206000D01*
X375000D01*
X376000Y205000D01*
Y205800D02*
X376600Y206400D01*
X377200D01*
X376600Y207000D01*
X377200Y207600D01*
X376600D01*
X376000Y208200D01*
X375400Y207600D01*
X374800D01*
X375400Y207000D01*
X374800Y206400D01*
X375400D01*
X376000Y205800D01*
X442239Y228520D02*
X443239Y229520D01*
X444239D01*
X443239Y230520D01*
X444239Y231520D01*
X443239D01*
X442239Y232520D01*
X441239Y231520D01*
X440239D01*
X441239Y230520D01*
X440239Y229520D01*
X441239D01*
X442239Y228520D01*
Y229320D02*
X442839Y229920D01*
X443439D01*
X442839Y230520D01*
X443439Y231120D01*
X442839D01*
X442239Y231720D01*
X441639Y231120D01*
X441039D01*
X441639Y230520D01*
X441039Y229920D01*
X441639D01*
X442239Y229320D01*
X438630Y232130D02*
X439630Y233130D01*
X440630D01*
X439630Y234130D01*
X440630Y235130D01*
X439630D01*
X438630Y236130D01*
X437630Y235130D01*
X436630D01*
X437630Y234130D01*
X436630Y233130D01*
X437630D01*
X438630Y232130D01*
Y232930D02*
X439230Y233530D01*
X439830D01*
X439230Y234130D01*
X439830Y234730D01*
X439230D01*
X438630Y235330D01*
X438030Y234730D01*
X437430D01*
X438030Y234130D01*
X437430Y233530D01*
X438030D01*
X438630Y232930D01*
X401556Y210267D02*
X402556Y211267D01*
X403556D01*
X402556Y212267D01*
X403556Y213267D01*
X402556D01*
X401556Y214267D01*
X400556Y213267D01*
X399556D01*
X400556Y212267D01*
X399556Y211267D01*
X400556D01*
X401556Y210267D01*
Y211068D02*
X402156Y211667D01*
X402756D01*
X402156Y212267D01*
X402756Y212867D01*
X402156D01*
X401556Y213468D01*
X400956Y212867D01*
X400356D01*
X400956Y212267D01*
X400356Y211667D01*
X400956D01*
X401556Y211068D01*
X377500Y278000D02*
X378500Y279000D01*
X379500D01*
X378500Y280000D01*
X379500Y281000D01*
X378500D01*
X377500Y282000D01*
X376500Y281000D01*
X375500D01*
X376500Y280000D01*
X375500Y279000D01*
X376500D01*
X377500Y278000D01*
Y278800D02*
X378100Y279400D01*
X378700D01*
X378100Y280000D01*
X378700Y280600D01*
X378100D01*
X377500Y281200D01*
X376900Y280600D01*
X376300D01*
X376900Y280000D01*
X376300Y279400D01*
X376900D01*
X377500Y278800D01*
X415500Y290500D02*
X416500Y291500D01*
X417500D01*
X416500Y292500D01*
X417500Y293500D01*
X416500D01*
X415500Y294500D01*
X414500Y293500D01*
X413500D01*
X414500Y292500D01*
X413500Y291500D01*
X414500D01*
X415500Y290500D01*
Y291300D02*
X416100Y291900D01*
X416700D01*
X416100Y292500D01*
X416700Y293100D01*
X416100D01*
X415500Y293700D01*
X414900Y293100D01*
X414300D01*
X414900Y292500D01*
X414300Y291900D01*
X414900D01*
X415500Y291300D01*
X418500Y221649D02*
X419500Y222649D01*
X420500D01*
X419500Y223649D01*
X420500Y224649D01*
X419500D01*
X418500Y225649D01*
X417500Y224649D01*
X416500D01*
X417500Y223649D01*
X416500Y222649D01*
X417500D01*
X418500Y221649D01*
Y222449D02*
X419100Y223049D01*
X419700D01*
X419100Y223649D01*
X419700Y224249D01*
X419100D01*
X418500Y224849D01*
X417900Y224249D01*
X417300D01*
X417900Y223649D01*
X417300Y223049D01*
X417900D01*
X418500Y222449D01*
X396793Y238728D02*
X397793Y239728D01*
X398793D01*
X397793Y240728D01*
X398793Y241728D01*
X397793D01*
X396793Y242728D01*
X395793Y241728D01*
X394793D01*
X395793Y240728D01*
X394793Y239728D01*
X395793D01*
X396793Y238728D01*
Y239528D02*
X397393Y240128D01*
X397993D01*
X397393Y240728D01*
X397993Y241328D01*
X397393D01*
X396793Y241928D01*
X396193Y241328D01*
X395593D01*
X396193Y240728D01*
X395593Y240128D01*
X396193D01*
X396793Y239528D01*
X433500Y239500D02*
X434500Y240500D01*
X435500D01*
X434500Y241500D01*
X435500Y242500D01*
X434500D01*
X433500Y243500D01*
X432500Y242500D01*
X431500D01*
X432500Y241500D01*
X431500Y240500D01*
X432500D01*
X433500Y239500D01*
Y240300D02*
X434100Y240900D01*
X434700D01*
X434100Y241500D01*
X434700Y242100D01*
X434100D01*
X433500Y242700D01*
X432900Y242100D01*
X432300D01*
X432900Y241500D01*
X432300Y240900D01*
X432900D01*
X433500Y240300D01*
X435500Y242500D02*
X436500Y243500D01*
X437500D01*
X436500Y244500D01*
X437500Y245500D01*
X436500D01*
X435500Y246500D01*
X434500Y245500D01*
X433500D01*
X434500Y244500D01*
X433500Y243500D01*
X434500D01*
X435500Y242500D01*
Y243300D02*
X436100Y243900D01*
X436700D01*
X436100Y244500D01*
X436700Y245100D01*
X436100D01*
X435500Y245700D01*
X434900Y245100D01*
X434300D01*
X434900Y244500D01*
X434300Y243900D01*
X434900D01*
X435500Y243300D01*
X413500Y241000D02*
X414500Y242000D01*
X415500D01*
X414500Y243000D01*
X415500Y244000D01*
X414500D01*
X413500Y245000D01*
X412500Y244000D01*
X411500D01*
X412500Y243000D01*
X411500Y242000D01*
X412500D01*
X413500Y241000D01*
Y241800D02*
X414100Y242400D01*
X414700D01*
X414100Y243000D01*
X414700Y243600D01*
X414100D01*
X413500Y244200D01*
X412900Y243600D01*
X412300D01*
X412900Y243000D01*
X412300Y242400D01*
X412900D01*
X413500Y241800D01*
X406532Y240689D02*
X407533Y241689D01*
X408532D01*
X407533Y242689D01*
X408532Y243689D01*
X407533D01*
X406532Y244689D01*
X405533Y243689D01*
X404532D01*
X405533Y242689D01*
X404532Y241689D01*
X405533D01*
X406532Y240689D01*
Y241489D02*
X407132Y242089D01*
X407732D01*
X407132Y242689D01*
X407732Y243289D01*
X407132D01*
X406532Y243889D01*
X405933Y243289D01*
X405333D01*
X405933Y242689D01*
X405333Y242089D01*
X405933D01*
X406532Y241489D01*
X441793Y239378D02*
X442793Y240378D01*
X443793D01*
X442793Y241378D01*
X443793Y242378D01*
X442793D01*
X441793Y243378D01*
X440793Y242378D01*
X439793D01*
X440793Y241378D01*
X439793Y240378D01*
X440793D01*
X441793Y239378D01*
Y240178D02*
X442393Y240778D01*
X442993D01*
X442393Y241378D01*
X442993Y241978D01*
X442393D01*
X441793Y242578D01*
X441193Y241978D01*
X440593D01*
X441193Y241378D01*
X440593Y240778D01*
X441193D01*
X441793Y240178D01*
X404000Y246000D02*
X405000Y247000D01*
X406000D01*
X405000Y248000D01*
X406000Y249000D01*
X405000D01*
X404000Y250000D01*
X403000Y249000D01*
X402000D01*
X403000Y248000D01*
X402000Y247000D01*
X403000D01*
X404000Y246000D01*
Y246800D02*
X404600Y247400D01*
X405200D01*
X404600Y248000D01*
X405200Y248600D01*
X404600D01*
X404000Y249200D01*
X403400Y248600D01*
X402800D01*
X403400Y248000D01*
X402800Y247400D01*
X403400D01*
X404000Y246800D01*
X410256Y235874D02*
X411256Y236874D01*
X412256D01*
X411256Y237874D01*
X412256Y238874D01*
X411256D01*
X410256Y239874D01*
X409256Y238874D01*
X408256D01*
X409256Y237874D01*
X408256Y236874D01*
X409256D01*
X410256Y235874D01*
Y236674D02*
X410856Y237274D01*
X411456D01*
X410856Y237874D01*
X411456Y238474D01*
X410856D01*
X410256Y239074D01*
X409656Y238474D01*
X409056D01*
X409656Y237874D01*
X409056Y237274D01*
X409656D01*
X410256Y236674D01*
X410264Y249525D02*
X411264Y250525D01*
X412264D01*
X411264Y251525D01*
X412264Y252525D01*
X411264D01*
X410264Y253525D01*
X409264Y252525D01*
X408264D01*
X409264Y251525D01*
X408264Y250525D01*
X409264D01*
X410264Y249525D01*
Y250325D02*
X410864Y250925D01*
X411464D01*
X410864Y251525D01*
X411464Y252125D01*
X410864D01*
X410264Y252725D01*
X409664Y252125D01*
X409064D01*
X409664Y251525D01*
X409064Y250925D01*
X409664D01*
X410264Y250325D01*
X401534Y242500D02*
X402534Y243500D01*
X403534D01*
X402534Y244500D01*
X403534Y245500D01*
X402534D01*
X401534Y246500D01*
X400534Y245500D01*
X399534D01*
X400534Y244500D01*
X399534Y243500D01*
X400534D01*
X401534Y242500D01*
Y243300D02*
X402134Y243900D01*
X402734D01*
X402134Y244500D01*
X402734Y245100D01*
X402134D01*
X401534Y245700D01*
X400934Y245100D01*
X400334D01*
X400934Y244500D01*
X400334Y243900D01*
X400934D01*
X401534Y243300D01*
X457244Y250500D02*
X458244Y251500D01*
X459244D01*
X458244Y252500D01*
X459244Y253500D01*
X458244D01*
X457244Y254500D01*
X456244Y253500D01*
X455244D01*
X456244Y252500D01*
X455244Y251500D01*
X456244D01*
X457244Y250500D01*
Y251300D02*
X457844Y251900D01*
X458444D01*
X457844Y252500D01*
X458444Y253100D01*
X457844D01*
X457244Y253700D01*
X456644Y253100D01*
X456044D01*
X456644Y252500D01*
X456044Y251900D01*
X456644D01*
X457244Y251300D01*
X435000Y251500D02*
X436000Y252500D01*
X437000D01*
X436000Y253500D01*
X437000Y254500D01*
X436000D01*
X435000Y255500D01*
X434000Y254500D01*
X433000D01*
X434000Y253500D01*
X433000Y252500D01*
X434000D01*
X435000Y251500D01*
Y252300D02*
X435600Y252900D01*
X436200D01*
X435600Y253500D01*
X436200Y254100D01*
X435600D01*
X435000Y254700D01*
X434400Y254100D01*
X433800D01*
X434400Y253500D01*
X433800Y252900D01*
X434400D01*
X435000Y252300D01*
X452000Y233000D02*
X453000Y234000D01*
X454000D01*
X453000Y235000D01*
X454000Y236000D01*
X453000D01*
X452000Y237000D01*
X451000Y236000D01*
X450000D01*
X451000Y235000D01*
X450000Y234000D01*
X451000D01*
X452000Y233000D01*
Y233800D02*
X452600Y234400D01*
X453200D01*
X452600Y235000D01*
X453200Y235600D01*
X452600D01*
X452000Y236200D01*
X451400Y235600D01*
X450800D01*
X451400Y235000D01*
X450800Y234400D01*
X451400D01*
X452000Y233800D01*
X451309Y226273D02*
X452309Y227273D01*
X453309D01*
X452309Y228273D01*
X453309Y229273D01*
X452309D01*
X451309Y230273D01*
X450309Y229273D01*
X449309D01*
X450309Y228273D01*
X449309Y227273D01*
X450309D01*
X451309Y226273D01*
Y227073D02*
X451909Y227673D01*
X452509D01*
X451909Y228273D01*
X452509Y228873D01*
X451909D01*
X451309Y229473D01*
X450709Y228873D01*
X450109D01*
X450709Y228273D01*
X450109Y227673D01*
X450709D01*
X451309Y227073D01*
X452000Y229500D02*
X453000Y230500D01*
X454000D01*
X453000Y231500D01*
X454000Y232500D01*
X453000D01*
X452000Y233500D01*
X451000Y232500D01*
X450000D01*
X451000Y231500D01*
X450000Y230500D01*
X451000D01*
X452000Y229500D01*
Y230300D02*
X452600Y230900D01*
X453200D01*
X452600Y231500D01*
X453200Y232100D01*
X452600D01*
X452000Y232700D01*
X451400Y232100D01*
X450800D01*
X451400Y231500D01*
X450800Y230900D01*
X451400D01*
X452000Y230300D01*
X439547Y208000D02*
X440547Y209000D01*
X441547D01*
X440547Y210000D01*
X441547Y211000D01*
X440547D01*
X439547Y212000D01*
X438547Y211000D01*
X437547D01*
X438547Y210000D01*
X437547Y209000D01*
X438547D01*
X439547Y208000D01*
Y208800D02*
X440147Y209400D01*
X440747D01*
X440147Y210000D01*
X440747Y210600D01*
X440147D01*
X439547Y211200D01*
X438947Y210600D01*
X438347D01*
X438947Y210000D01*
X438347Y209400D01*
X438947D01*
X439547Y208800D01*
X406023Y205700D02*
X407023Y206700D01*
X408023D01*
X407023Y207700D01*
X408023Y208700D01*
X407023D01*
X406023Y209700D01*
X405023Y208700D01*
X404023D01*
X405023Y207700D01*
X404023Y206700D01*
X405023D01*
X406023Y205700D01*
Y206500D02*
X406623Y207100D01*
X407223D01*
X406623Y207700D01*
X407223Y208300D01*
X406623D01*
X406023Y208900D01*
X405423Y208300D01*
X404823D01*
X405423Y207700D01*
X404823Y207100D01*
X405423D01*
X406023Y206500D01*
X413878Y208061D02*
X414878Y209061D01*
X415878D01*
X414878Y210061D01*
X415878Y211061D01*
X414878D01*
X413878Y212061D01*
X412878Y211061D01*
X411878D01*
X412878Y210061D01*
X411878Y209061D01*
X412878D01*
X413878Y208061D01*
Y208861D02*
X414478Y209461D01*
X415078D01*
X414478Y210061D01*
X415078Y210661D01*
X414478D01*
X413878Y211261D01*
X413278Y210661D01*
X412678D01*
X413278Y210061D01*
X412678Y209461D01*
X413278D01*
X413878Y208861D01*
X413842Y212500D02*
X414843Y213500D01*
X415842D01*
X414843Y214500D01*
X415842Y215500D01*
X414843D01*
X413842Y216500D01*
X412843Y215500D01*
X411842D01*
X412843Y214500D01*
X411842Y213500D01*
X412843D01*
X413842Y212500D01*
Y213300D02*
X414442Y213900D01*
X415042D01*
X414442Y214500D01*
X415042Y215100D01*
X414442D01*
X413842Y215700D01*
X413242Y215100D01*
X412642D01*
X413242Y214500D01*
X412642Y213900D01*
X413242D01*
X413842Y213300D01*
X406452Y200200D02*
X407451Y201200D01*
X408452D01*
X407451Y202200D01*
X408452Y203200D01*
X407451D01*
X406452Y204200D01*
X405451Y203200D01*
X404452D01*
X405451Y202200D01*
X404452Y201200D01*
X405451D01*
X406452Y200200D01*
Y201000D02*
X407052Y201600D01*
X407652D01*
X407052Y202200D01*
X407652Y202800D01*
X407052D01*
X406452Y203400D01*
X405852Y202800D01*
X405252D01*
X405852Y202200D01*
X405252Y201600D01*
X405852D01*
X406452Y201000D01*
X421158Y218000D02*
X422157Y219000D01*
X423158D01*
X422157Y220000D01*
X423158Y221000D01*
X422157D01*
X421158Y222000D01*
X420157Y221000D01*
X419158D01*
X420157Y220000D01*
X419158Y219000D01*
X420157D01*
X421158Y218000D01*
Y218800D02*
X421758Y219400D01*
X422358D01*
X421758Y220000D01*
X422358Y220600D01*
X421758D01*
X421158Y221200D01*
X420557Y220600D01*
X419957D01*
X420557Y220000D01*
X419957Y219400D01*
X420557D01*
X421158Y218800D01*
X419158Y212500D02*
X420157Y213500D01*
X421158D01*
X420157Y214500D01*
X421158Y215500D01*
X420157D01*
X419158Y216500D01*
X418157Y215500D01*
X417158D01*
X418157Y214500D01*
X417158Y213500D01*
X418157D01*
X419158Y212500D01*
Y213300D02*
X419758Y213900D01*
X420358D01*
X419758Y214500D01*
X420358Y215100D01*
X419758D01*
X419158Y215700D01*
X418558Y215100D01*
X417957D01*
X418558Y214500D01*
X417957Y213900D01*
X418558D01*
X419158Y213300D01*
X436500Y200000D02*
X437500Y201000D01*
X438500D01*
X437500Y202000D01*
X438500Y203000D01*
X437500D01*
X436500Y204000D01*
X435500Y203000D01*
X434500D01*
X435500Y202000D01*
X434500Y201000D01*
X435500D01*
X436500Y200000D01*
Y200800D02*
X437100Y201400D01*
X437700D01*
X437100Y202000D01*
X437700Y202600D01*
X437100D01*
X436500Y203200D01*
X435900Y202600D01*
X435300D01*
X435900Y202000D01*
X435300Y201400D01*
X435900D01*
X436500Y200800D01*
X430500Y205500D02*
X431500Y206500D01*
X432500D01*
X431500Y207500D01*
X432500Y208500D01*
X431500D01*
X430500Y209500D01*
X429500Y208500D01*
X428500D01*
X429500Y207500D01*
X428500Y206500D01*
X429500D01*
X430500Y205500D01*
Y206300D02*
X431100Y206900D01*
X431700D01*
X431100Y207500D01*
X431700Y208100D01*
X431100D01*
X430500Y208700D01*
X429900Y208100D01*
X429300D01*
X429900Y207500D01*
X429300Y206900D01*
X429900D01*
X430500Y206300D01*
X473240Y200972D02*
X474240Y201972D01*
X475240D01*
X474240Y202972D01*
X475240Y203972D01*
X474240D01*
X473240Y204972D01*
X472240Y203972D01*
X471240D01*
X472240Y202972D01*
X471240Y201972D01*
X472240D01*
X473240Y200972D01*
Y201772D02*
X473840Y202372D01*
X474440D01*
X473840Y202972D01*
X474440Y203572D01*
X473840D01*
X473240Y204172D01*
X472640Y203572D01*
X472040D01*
X472640Y202972D01*
X472040Y202372D01*
X472640D01*
X473240Y201772D01*
X458500Y209256D02*
X459500Y210256D01*
X460500D01*
X459500Y211256D01*
X460500Y212256D01*
X459500D01*
X458500Y213256D01*
X457500Y212256D01*
X456500D01*
X457500Y211256D01*
X456500Y210256D01*
X457500D01*
X458500Y209256D01*
Y210056D02*
X459100Y210656D01*
X459700D01*
X459100Y211256D01*
X459700Y211856D01*
X459100D01*
X458500Y212456D01*
X457900Y211856D01*
X457300D01*
X457900Y211256D01*
X457300Y210656D01*
X457900D01*
X458500Y210056D01*
X462756Y250500D02*
X463756Y251500D01*
X464756D01*
X463756Y252500D01*
X464756Y253500D01*
X463756D01*
X462756Y254500D01*
X461756Y253500D01*
X460756D01*
X461756Y252500D01*
X460756Y251500D01*
X461756D01*
X462756Y250500D01*
Y251300D02*
X463356Y251900D01*
X463956D01*
X463356Y252500D01*
X463956Y253100D01*
X463356D01*
X462756Y253700D01*
X462156Y253100D01*
X461556D01*
X462156Y252500D01*
X461556Y251900D01*
X462156D01*
X462756Y251300D01*
X476244Y250500D02*
X477244Y251500D01*
X478244D01*
X477244Y252500D01*
X478244Y253500D01*
X477244D01*
X476244Y254500D01*
X475244Y253500D01*
X474244D01*
X475244Y252500D01*
X474244Y251500D01*
X475244D01*
X476244Y250500D01*
Y251300D02*
X476844Y251900D01*
X477444D01*
X476844Y252500D01*
X477444Y253100D01*
X476844D01*
X476244Y253700D01*
X475644Y253100D01*
X475044D01*
X475644Y252500D01*
X475044Y251900D01*
X475644D01*
X476244Y251300D01*
X480500Y297500D02*
X481500Y298500D01*
X482500D01*
X481500Y299500D01*
X482500Y300500D01*
X481500D01*
X480500Y301500D01*
X479500Y300500D01*
X478500D01*
X479500Y299500D01*
X478500Y298500D01*
X479500D01*
X480500Y297500D01*
Y298300D02*
X481100Y298900D01*
X481700D01*
X481100Y299500D01*
X481700Y300100D01*
X481100D01*
X480500Y300700D01*
X479900Y300100D01*
X479300D01*
X479900Y299500D01*
X479300Y298900D01*
X479900D01*
X480500Y298300D01*
X339756Y336000D02*
X340756Y337000D01*
X341756D01*
X340756Y338000D01*
X341756Y339000D01*
X340756D01*
X339756Y340000D01*
X338756Y339000D01*
X337756D01*
X338756Y338000D01*
X337756Y337000D01*
X338756D01*
X339756Y336000D01*
Y336800D02*
X340356Y337400D01*
X340956D01*
X340356Y338000D01*
X340956Y338600D01*
X340356D01*
X339756Y339200D01*
X339156Y338600D01*
X338556D01*
X339156Y338000D01*
X338556Y337400D01*
X339156D01*
X339756Y336800D01*
X370000Y218843D02*
X371000Y219843D01*
X372000D01*
X371000Y220843D01*
X372000Y221843D01*
X371000D01*
X370000Y222843D01*
X369000Y221843D01*
X368000D01*
X369000Y220843D01*
X368000Y219843D01*
X369000D01*
X370000Y218843D01*
Y219642D02*
X370600Y220243D01*
X371200D01*
X370600Y220843D01*
X371200Y221443D01*
X370600D01*
X370000Y222042D01*
X369400Y221443D01*
X368800D01*
X369400Y220843D01*
X368800Y220243D01*
X369400D01*
X370000Y219642D01*
X383500Y228000D02*
X384500Y229000D01*
X385500D01*
X384500Y230000D01*
X385500Y231000D01*
X384500D01*
X383500Y232000D01*
X382500Y231000D01*
X381500D01*
X382500Y230000D01*
X381500Y229000D01*
X382500D01*
X383500Y228000D01*
Y228800D02*
X384100Y229400D01*
X384700D01*
X384100Y230000D01*
X384700Y230600D01*
X384100D01*
X383500Y231200D01*
X382900Y230600D01*
X382300D01*
X382900Y230000D01*
X382300Y229400D01*
X382900D01*
X383500Y228800D01*
X376842Y218500D02*
X377842Y219500D01*
X378842D01*
X377842Y220500D01*
X378842Y221500D01*
X377842D01*
X376842Y222500D01*
X375842Y221500D01*
X374843D01*
X375842Y220500D01*
X374843Y219500D01*
X375842D01*
X376842Y218500D01*
Y219300D02*
X377443Y219900D01*
X378043D01*
X377443Y220500D01*
X378043Y221100D01*
X377443D01*
X376842Y221700D01*
X376242Y221100D01*
X375642D01*
X376242Y220500D01*
X375642Y219900D01*
X376242D01*
X376842Y219300D01*
X382986Y233000D02*
X383986Y234000D01*
X384986D01*
X383986Y235000D01*
X384986Y236000D01*
X383986D01*
X382986Y237000D01*
X381986Y236000D01*
X380986D01*
X381986Y235000D01*
X380986Y234000D01*
X381986D01*
X382986Y233000D01*
Y233800D02*
X383586Y234400D01*
X384186D01*
X383586Y235000D01*
X384186Y235600D01*
X383586D01*
X382986Y236200D01*
X382386Y235600D01*
X381786D01*
X382386Y235000D01*
X381786Y234400D01*
X382386D01*
X382986Y233800D01*
X385000Y242500D02*
X386000Y243500D01*
X387000D01*
X386000Y244500D01*
X387000Y245500D01*
X386000D01*
X385000Y246500D01*
X384000Y245500D01*
X383000D01*
X384000Y244500D01*
X383000Y243500D01*
X384000D01*
X385000Y242500D01*
Y243300D02*
X385600Y243900D01*
X386200D01*
X385600Y244500D01*
X386200Y245100D01*
X385600D01*
X385000Y245700D01*
X384400Y245100D01*
X383800D01*
X384400Y244500D01*
X383800Y243900D01*
X384400D01*
X385000Y243300D01*
X392744Y242500D02*
X393744Y243500D01*
X394744D01*
X393744Y244500D01*
X394744Y245500D01*
X393744D01*
X392744Y246500D01*
X391744Y245500D01*
X390744D01*
X391744Y244500D01*
X390744Y243500D01*
X391744D01*
X392744Y242500D01*
Y243300D02*
X393344Y243900D01*
X393944D01*
X393344Y244500D01*
X393944Y245100D01*
X393344D01*
X392744Y245700D01*
X392144Y245100D01*
X391544D01*
X392144Y244500D01*
X391544Y243900D01*
X392144D01*
X392744Y243300D01*
X484500Y320500D02*
X485500Y321500D01*
X486500D01*
X485500Y322500D01*
X486500Y323500D01*
X485500D01*
X484500Y324500D01*
X483500Y323500D01*
X482500D01*
X483500Y322500D01*
X482500Y321500D01*
X483500D01*
X484500Y320500D01*
Y321300D02*
X485100Y321900D01*
X485700D01*
X485100Y322500D01*
X485700Y323100D01*
X485100D01*
X484500Y323700D01*
X483900Y323100D01*
X483300D01*
X483900Y322500D01*
X483300Y321900D01*
X483900D01*
X484500Y321300D01*
X485953Y325000D02*
X486953Y326000D01*
X487953D01*
X486953Y327000D01*
X487953Y328000D01*
X486953D01*
X485953Y329000D01*
X484953Y328000D01*
X483953D01*
X484953Y327000D01*
X483953Y326000D01*
X484953D01*
X485953Y325000D01*
Y325800D02*
X486553Y326400D01*
X487153D01*
X486553Y327000D01*
X487153Y327600D01*
X486553D01*
X485953Y328200D01*
X485353Y327600D01*
X484753D01*
X485353Y327000D01*
X484753Y326400D01*
X485353D01*
X485953Y325800D01*
X469547Y326000D02*
X470547Y327000D01*
X471547D01*
X470547Y328000D01*
X471547Y329000D01*
X470547D01*
X469547Y330000D01*
X468547Y329000D01*
X467547D01*
X468547Y328000D01*
X467547Y327000D01*
X468547D01*
X469547Y326000D01*
Y326800D02*
X470147Y327400D01*
X470747D01*
X470147Y328000D01*
X470747Y328600D01*
X470147D01*
X469547Y329200D01*
X468947Y328600D01*
X468347D01*
X468947Y328000D01*
X468347Y327400D01*
X468947D01*
X469547Y326800D01*
X470500Y314547D02*
X471500Y315547D01*
X472500D01*
X471500Y316547D01*
X472500Y317547D01*
X471500D01*
X470500Y318547D01*
X469500Y317547D01*
X468500D01*
X469500Y316547D01*
X468500Y315547D01*
X469500D01*
X470500Y314547D01*
Y315347D02*
X471100Y315947D01*
X471700D01*
X471100Y316547D01*
X471700Y317147D01*
X471100D01*
X470500Y317747D01*
X469900Y317147D01*
X469300D01*
X469900Y316547D01*
X469300Y315947D01*
X469900D01*
X470500Y315347D01*
X408157Y302500D02*
X409158Y303500D01*
X410157D01*
X409158Y304500D01*
X410157Y305500D01*
X409158D01*
X408157Y306500D01*
X407158Y305500D01*
X406157D01*
X407158Y304500D01*
X406157Y303500D01*
X407158D01*
X408157Y302500D01*
Y303300D02*
X408757Y303900D01*
X409358D01*
X408757Y304500D01*
X409358Y305100D01*
X408757D01*
X408157Y305700D01*
X407557Y305100D01*
X406957D01*
X407557Y304500D01*
X406957Y303900D01*
X407557D01*
X408157Y303300D01*
X392087Y302500D02*
X393087Y303500D01*
X394087D01*
X393087Y304500D01*
X394087Y305500D01*
X393087D01*
X392087Y306500D01*
X391087Y305500D01*
X390087D01*
X391087Y304500D01*
X390087Y303500D01*
X391087D01*
X392087Y302500D01*
Y303300D02*
X392687Y303900D01*
X393287D01*
X392687Y304500D01*
X393287Y305100D01*
X392687D01*
X392087Y305700D01*
X391487Y305100D01*
X390887D01*
X391487Y304500D01*
X390887Y303900D01*
X391487D01*
X392087Y303300D01*
X374453Y320000D02*
X375453Y321000D01*
X376453D01*
X375453Y322000D01*
X376453Y323000D01*
X375453D01*
X374453Y324000D01*
X373453Y323000D01*
X372453D01*
X373453Y322000D01*
X372453Y321000D01*
X373453D01*
X374453Y320000D01*
Y320800D02*
X375053Y321400D01*
X375653D01*
X375053Y322000D01*
X375653Y322600D01*
X375053D01*
X374453Y323200D01*
X373853Y322600D01*
X373253D01*
X373853Y322000D01*
X373253Y321400D01*
X373853D01*
X374453Y320800D01*
X365047Y336500D02*
X366047Y337500D01*
X367047D01*
X366047Y338500D01*
X367047Y339500D01*
X366047D01*
X365047Y340500D01*
X364047Y339500D01*
X363047D01*
X364047Y338500D01*
X363047Y337500D01*
X364047D01*
X365047Y336500D01*
Y337300D02*
X365647Y337900D01*
X366247D01*
X365647Y338500D01*
X366247Y339100D01*
X365647D01*
X365047Y339700D01*
X364447Y339100D01*
X363847D01*
X364447Y338500D01*
X363847Y337900D01*
X364447D01*
X365047Y337300D01*
X462579Y307000D02*
X463579Y308000D01*
X464579D01*
X463579Y309000D01*
X464579Y310000D01*
X463579D01*
X462579Y311000D01*
X461579Y310000D01*
X460579D01*
X461579Y309000D01*
X460579Y308000D01*
X461579D01*
X462579Y307000D01*
Y307800D02*
X463179Y308400D01*
X463779D01*
X463179Y309000D01*
X463779Y309600D01*
X463179D01*
X462579Y310200D01*
X461979Y309600D01*
X461379D01*
X461979Y309000D01*
X461379Y308400D01*
X461979D01*
X462579Y307800D01*
X480528Y292760D02*
X481528Y293760D01*
X482528D01*
X481528Y294760D01*
X482528Y295760D01*
X481528D01*
X480528Y296760D01*
X479528Y295760D01*
X478528D01*
X479528Y294760D01*
X478528Y293760D01*
X479528D01*
X480528Y292760D01*
Y293560D02*
X481128Y294160D01*
X481728D01*
X481128Y294760D01*
X481728Y295360D01*
X481128D01*
X480528Y295960D01*
X479928Y295360D01*
X479328D01*
X479928Y294760D01*
X479328Y294160D01*
X479928D01*
X480528Y293560D01*
X470059Y307000D02*
X471059Y308000D01*
X472059D01*
X471059Y309000D01*
X472059Y310000D01*
X471059D01*
X470059Y311000D01*
X469059Y310000D01*
X468059D01*
X469059Y309000D01*
X468059Y308000D01*
X469059D01*
X470059Y307000D01*
Y307800D02*
X470659Y308400D01*
X471259D01*
X470659Y309000D01*
X471259Y309600D01*
X470659D01*
X470059Y310200D01*
X469459Y309600D01*
X468859D01*
X469459Y309000D01*
X468859Y308400D01*
X469459D01*
X470059Y307800D01*
X480047Y325000D02*
X481047Y326000D01*
X482047D01*
X481047Y327000D01*
X482047Y328000D01*
X481047D01*
X480047Y329000D01*
X479047Y328000D01*
X478047D01*
X479047Y327000D01*
X478047Y326000D01*
X479047D01*
X480047Y325000D01*
Y325800D02*
X480647Y326400D01*
X481247D01*
X480647Y327000D01*
X481247Y327600D01*
X480647D01*
X480047Y328200D01*
X479447Y327600D01*
X478847D01*
X479447Y327000D01*
X478847Y326400D01*
X479447D01*
X480047Y325800D01*
X496500Y307453D02*
X497500Y308453D01*
X498500D01*
X497500Y309453D01*
X498500Y310453D01*
X497500D01*
X496500Y311453D01*
X495500Y310453D01*
X494500D01*
X495500Y309453D01*
X494500Y308453D01*
X495500D01*
X496500Y307453D01*
Y308253D02*
X497100Y308853D01*
X497700D01*
X497100Y309453D01*
X497700Y310053D01*
X497100D01*
X496500Y310653D01*
X495900Y310053D01*
X495300D01*
X495900Y309453D01*
X495300Y308853D01*
X495900D01*
X496500Y308253D01*
X402843Y302500D02*
X403842Y303500D01*
X404843D01*
X403842Y304500D01*
X404843Y305500D01*
X403842D01*
X402843Y306500D01*
X401842Y305500D01*
X400843D01*
X401842Y304500D01*
X400843Y303500D01*
X401842D01*
X402843Y302500D01*
Y303300D02*
X403442Y303900D01*
X404042D01*
X403442Y304500D01*
X404042Y305100D01*
X403442D01*
X402843Y305700D01*
X402243Y305100D01*
X401643D01*
X402243Y304500D01*
X401643Y303900D01*
X402243D01*
X402843Y303300D01*
X470500Y320453D02*
X471500Y321453D01*
X472500D01*
X471500Y322453D01*
X472500Y323453D01*
X471500D01*
X470500Y324453D01*
X469500Y323453D01*
X468500D01*
X469500Y322453D01*
X468500Y321453D01*
X469500D01*
X470500Y320453D01*
Y321253D02*
X471100Y321853D01*
X471700D01*
X471100Y322453D01*
X471700Y323053D01*
X471100D01*
X470500Y323653D01*
X469900Y323053D01*
X469300D01*
X469900Y322453D01*
X469300Y321853D01*
X469900D01*
X470500Y321253D01*
X491756Y315000D02*
X492756Y316000D01*
X493756D01*
X492756Y317000D01*
X493756Y318000D01*
X492756D01*
X491756Y319000D01*
X490756Y318000D01*
X489756D01*
X490756Y317000D01*
X489756Y316000D01*
X490756D01*
X491756Y315000D01*
Y315800D02*
X492356Y316400D01*
X492956D01*
X492356Y317000D01*
X492956Y317600D01*
X492356D01*
X491756Y318200D01*
X491156Y317600D01*
X490556D01*
X491156Y317000D01*
X490556Y316400D01*
X491156D01*
X491756Y315800D01*
X491362Y309315D02*
X492362Y310315D01*
X493362D01*
X492362Y311315D01*
X493362Y312315D01*
X492362D01*
X491362Y313315D01*
X490362Y312315D01*
X489362D01*
X490362Y311315D01*
X489362Y310315D01*
X490362D01*
X491362Y309315D01*
Y310115D02*
X491962Y310715D01*
X492562D01*
X491962Y311315D01*
X492562Y311915D01*
X491962D01*
X491362Y312515D01*
X490762Y311915D01*
X490162D01*
X490762Y311315D01*
X490162Y310715D01*
X490762D01*
X491362Y310115D01*
X486244Y315000D02*
X487244Y316000D01*
X488244D01*
X487244Y317000D01*
X488244Y318000D01*
X487244D01*
X486244Y319000D01*
X485244Y318000D01*
X484244D01*
X485244Y317000D01*
X484244Y316000D01*
X485244D01*
X486244Y315000D01*
Y315800D02*
X486844Y316400D01*
X487444D01*
X486844Y317000D01*
X487444Y317600D01*
X486844D01*
X486244Y318200D01*
X485644Y317600D01*
X485044D01*
X485644Y317000D01*
X485044Y316400D01*
X485644D01*
X486244Y315800D01*
X496500Y313358D02*
X497500Y314358D01*
X498500D01*
X497500Y315358D01*
X498500Y316358D01*
X497500D01*
X496500Y317358D01*
X495500Y316358D01*
X494500D01*
X495500Y315358D01*
X494500Y314358D01*
X495500D01*
X496500Y313358D01*
Y314158D02*
X497100Y314758D01*
X497700D01*
X497100Y315358D01*
X497700Y315958D01*
X497100D01*
X496500Y316558D01*
X495900Y315958D01*
X495300D01*
X495900Y315358D01*
X495300Y314758D01*
X495900D01*
X496500Y314158D01*
X491362Y298685D02*
X492362Y299685D01*
X493362D01*
X492362Y300685D01*
X493362Y301685D01*
X492362D01*
X491362Y302685D01*
X490362Y301685D01*
X489362D01*
X490362Y300685D01*
X489362Y299685D01*
X490362D01*
X491362Y298685D01*
Y299485D02*
X491962Y300085D01*
X492562D01*
X491962Y300685D01*
X492562Y301285D01*
X491962D01*
X491362Y301885D01*
X490762Y301285D01*
X490162D01*
X490762Y300685D01*
X490162Y300085D01*
X490762D01*
X491362Y299485D01*
X496500Y297244D02*
X497500Y298244D01*
X498500D01*
X497500Y299244D01*
X498500Y300244D01*
X497500D01*
X496500Y301244D01*
X495500Y300244D01*
X494500D01*
X495500Y299244D01*
X494500Y298244D01*
X495500D01*
X496500Y297244D01*
Y298044D02*
X497100Y298644D01*
X497700D01*
X497100Y299244D01*
X497700Y299844D01*
X497100D01*
X496500Y300444D01*
X495900Y299844D01*
X495300D01*
X495900Y299244D01*
X495300Y298644D01*
X495900D01*
X496500Y298044D01*
X491056Y292100D02*
X492056Y293100D01*
X493056D01*
X492056Y294100D01*
X493056Y295100D01*
X492056D01*
X491056Y296100D01*
X490056Y295100D01*
X489056D01*
X490056Y294100D01*
X489056Y293100D01*
X490056D01*
X491056Y292100D01*
Y292900D02*
X491656Y293500D01*
X492256D01*
X491656Y294100D01*
X492256Y294700D01*
X491656D01*
X491056Y295300D01*
X490456Y294700D01*
X489856D01*
X490456Y294100D01*
X489856Y293500D01*
X490456D01*
X491056Y292900D01*
X463756Y277500D02*
X464756Y278500D01*
X465756D01*
X464756Y279500D01*
X465756Y280500D01*
X464756D01*
X463756Y281500D01*
X462756Y280500D01*
X461756D01*
X462756Y279500D01*
X461756Y278500D01*
X462756D01*
X463756Y277500D01*
Y278300D02*
X464356Y278900D01*
X464956D01*
X464356Y279500D01*
X464956Y280100D01*
X464356D01*
X463756Y280700D01*
X463156Y280100D01*
X462556D01*
X463156Y279500D01*
X462556Y278900D01*
X463156D01*
X463756Y278300D01*
X459472Y287760D02*
X460472Y288760D01*
X461472D01*
X460472Y289760D01*
X461472Y290760D01*
X460472D01*
X459472Y291760D01*
X458472Y290760D01*
X457472D01*
X458472Y289760D01*
X457472Y288760D01*
X458472D01*
X459472Y287760D01*
Y288560D02*
X460072Y289160D01*
X460672D01*
X460072Y289760D01*
X460672Y290360D01*
X460072D01*
X459472Y290960D01*
X458872Y290360D01*
X458272D01*
X458872Y289760D01*
X458272Y289160D01*
X458872D01*
X459472Y288560D01*
X490953Y245500D02*
X491953Y246500D01*
X492953D01*
X491953Y247500D01*
X492953Y248500D01*
X491953D01*
X490953Y249500D01*
X489953Y248500D01*
X488953D01*
X489953Y247500D01*
X488953Y246500D01*
X489953D01*
X490953Y245500D01*
Y246300D02*
X491553Y246900D01*
X492153D01*
X491553Y247500D01*
X492153Y248100D01*
X491553D01*
X490953Y248700D01*
X490353Y248100D01*
X489753D01*
X490353Y247500D01*
X489753Y246900D01*
X490353D01*
X490953Y246300D01*
Y236500D02*
X491953Y237500D01*
X492953D01*
X491953Y238500D01*
X492953Y239500D01*
X491953D01*
X490953Y240500D01*
X489953Y239500D01*
X488953D01*
X489953Y238500D01*
X488953Y237500D01*
X489953D01*
X490953Y236500D01*
Y237300D02*
X491553Y237900D01*
X492153D01*
X491553Y238500D01*
X492153Y239100D01*
X491553D01*
X490953Y239700D01*
X490353Y239100D01*
X489753D01*
X490353Y238500D01*
X489753Y237900D01*
X490353D01*
X490953Y237300D01*
Y227000D02*
X491953Y228000D01*
X492953D01*
X491953Y229000D01*
X492953Y230000D01*
X491953D01*
X490953Y231000D01*
X489953Y230000D01*
X488953D01*
X489953Y229000D01*
X488953Y228000D01*
X489953D01*
X490953Y227000D01*
Y227800D02*
X491553Y228400D01*
X492153D01*
X491553Y229000D01*
X492153Y229600D01*
X491553D01*
X490953Y230200D01*
X490353Y229600D01*
X489753D01*
X490353Y229000D01*
X489753Y228400D01*
X490353D01*
X490953Y227800D01*
X491000Y218500D02*
X492000Y219500D01*
X493000D01*
X492000Y220500D01*
X493000Y221500D01*
X492000D01*
X491000Y222500D01*
X490000Y221500D01*
X489000D01*
X490000Y220500D01*
X489000Y219500D01*
X490000D01*
X491000Y218500D01*
Y219300D02*
X491600Y219900D01*
X492200D01*
X491600Y220500D01*
X492200Y221100D01*
X491600D01*
X491000Y221700D01*
X490400Y221100D01*
X489800D01*
X490400Y220500D01*
X489800Y219900D01*
X490400D01*
X491000Y219300D01*
X464600Y231900D02*
X465600Y232900D01*
X466600D01*
X465600Y233900D01*
X466600Y234900D01*
X465600D01*
X464600Y235900D01*
X463600Y234900D01*
X462600D01*
X463600Y233900D01*
X462600Y232900D01*
X463600D01*
X464600Y231900D01*
Y232700D02*
X465200Y233300D01*
X465800D01*
X465200Y233900D01*
X465800Y234500D01*
X465200D01*
X464600Y235100D01*
X464000Y234500D01*
X463400D01*
X464000Y233900D01*
X463400Y233300D01*
X464000D01*
X464600Y232700D01*
X476000Y236744D02*
X477000Y237744D01*
X478000D01*
X477000Y238744D01*
X478000Y239744D01*
X477000D01*
X476000Y240744D01*
X475000Y239744D01*
X474000D01*
X475000Y238744D01*
X474000Y237744D01*
X475000D01*
X476000Y236744D01*
Y237544D02*
X476600Y238144D01*
X477200D01*
X476600Y238744D01*
X477200Y239344D01*
X476600D01*
X476000Y239944D01*
X475400Y239344D01*
X474800D01*
X475400Y238744D01*
X474800Y238144D01*
X475400D01*
X476000Y237544D01*
X446744Y219000D02*
X447744Y220000D01*
X448744D01*
X447744Y221000D01*
X448744Y222000D01*
X447744D01*
X446744Y223000D01*
X445744Y222000D01*
X444744D01*
X445744Y221000D01*
X444744Y220000D01*
X445744D01*
X446744Y219000D01*
Y219800D02*
X447344Y220400D01*
X447944D01*
X447344Y221000D01*
X447944Y221600D01*
X447344D01*
X446744Y222200D01*
X446144Y221600D01*
X445544D01*
X446144Y221000D01*
X445544Y220400D01*
X446144D01*
X446744Y219800D01*
X470016Y242350D02*
X471016Y243350D01*
X472016D01*
X471016Y244350D01*
X472016Y245350D01*
X471016D01*
X470016Y246350D01*
X469016Y245350D01*
X468016D01*
X469016Y244350D01*
X468016Y243350D01*
X469016D01*
X470016Y242350D01*
Y243150D02*
X470616Y243750D01*
X471216D01*
X470616Y244350D01*
X471216Y244950D01*
X470616D01*
X470016Y245550D01*
X469416Y244950D01*
X468816D01*
X469416Y244350D01*
X468816Y243750D01*
X469416D01*
X470016Y243150D01*
X435300Y236400D02*
X436300Y237400D01*
X437300D01*
X436300Y238400D01*
X437300Y239400D01*
X436300D01*
X435300Y240400D01*
X434300Y239400D01*
X433300D01*
X434300Y238400D01*
X433300Y237400D01*
X434300D01*
X435300Y236400D01*
Y237200D02*
X435900Y237800D01*
X436500D01*
X435900Y238400D01*
X436500Y239000D01*
X435900D01*
X435300Y239600D01*
X434700Y239000D01*
X434100D01*
X434700Y238400D01*
X434100Y237800D01*
X434700D01*
X435300Y237200D01*
X434000Y226256D02*
X435000Y227256D01*
X436000D01*
X435000Y228256D01*
X436000Y229256D01*
X435000D01*
X434000Y230256D01*
X433000Y229256D01*
X432000D01*
X433000Y228256D01*
X432000Y227256D01*
X433000D01*
X434000Y226256D01*
Y227056D02*
X434600Y227656D01*
X435200D01*
X434600Y228256D01*
X435200Y228856D01*
X434600D01*
X434000Y229456D01*
X433400Y228856D01*
X432800D01*
X433400Y228256D01*
X432800Y227656D01*
X433400D01*
X434000Y227056D01*
X386157Y224000D02*
X387158Y225000D01*
X388158D01*
X387158Y226000D01*
X388158Y227000D01*
X387158D01*
X386157Y228000D01*
X385157Y227000D01*
X384157D01*
X385157Y226000D01*
X384157Y225000D01*
X385157D01*
X386157Y224000D01*
Y224800D02*
X386757Y225400D01*
X387357D01*
X386757Y226000D01*
X387357Y226600D01*
X386757D01*
X386157Y227200D01*
X385558Y226600D01*
X384958D01*
X385558Y226000D01*
X384958Y225400D01*
X385558D01*
X386157Y224800D01*
X386658Y233000D02*
X387657Y234000D01*
X388657D01*
X387657Y235000D01*
X388657Y236000D01*
X387657D01*
X386658Y237000D01*
X385658Y236000D01*
X384658D01*
X385658Y235000D01*
X384658Y234000D01*
X385658D01*
X386658Y233000D01*
Y233800D02*
X387258Y234400D01*
X387858D01*
X387258Y235000D01*
X387858Y235600D01*
X387258D01*
X386658Y236200D01*
X386057Y235600D01*
X385457D01*
X386057Y235000D01*
X385457Y234400D01*
X386057D01*
X386658Y233800D01*
X376950Y238350D02*
X377950Y239350D01*
X378950D01*
X377950Y240350D01*
X378950Y241350D01*
X377950D01*
X376950Y242350D01*
X375950Y241350D01*
X374950D01*
X375950Y240350D01*
X374950Y239350D01*
X375950D01*
X376950Y238350D01*
Y239150D02*
X377550Y239750D01*
X378150D01*
X377550Y240350D01*
X378150Y240950D01*
X377550D01*
X376950Y241550D01*
X376350Y240950D01*
X375750D01*
X376350Y240350D01*
X375750Y239750D01*
X376350D01*
X376950Y239150D01*
X372000Y238200D02*
X373000Y239200D01*
X374000D01*
X373000Y240200D01*
X374000Y241200D01*
X373000D01*
X372000Y242200D01*
X371000Y241200D01*
X370000D01*
X371000Y240200D01*
X370000Y239200D01*
X371000D01*
X372000Y238200D01*
Y239000D02*
X372600Y239600D01*
X373200D01*
X372600Y240200D01*
X373200Y240800D01*
X372600D01*
X372000Y241400D01*
X371400Y240800D01*
X370800D01*
X371400Y240200D01*
X370800Y239600D01*
X371400D01*
X372000Y239000D01*
X317859Y264171D02*
X318859Y265171D01*
X319859D01*
X318859Y266171D01*
X319859Y267171D01*
X318859D01*
X317859Y268171D01*
X316859Y267171D01*
X315859D01*
X316859Y266171D01*
X315859Y265171D01*
X316859D01*
X317859Y264171D01*
Y264971D02*
X318459Y265571D01*
X319059D01*
X318459Y266171D01*
X319059Y266771D01*
X318459D01*
X317859Y267371D01*
X317259Y266771D01*
X316659D01*
X317259Y266171D01*
X316659Y265571D01*
X317259D01*
X317859Y264971D01*
X339600Y243256D02*
X340600Y244256D01*
X341600D01*
X340600Y245256D01*
X341600Y246256D01*
X340600D01*
X339600Y247256D01*
X338600Y246256D01*
X337600D01*
X338600Y245256D01*
X337600Y244256D01*
X338600D01*
X339600Y243256D01*
Y244056D02*
X340200Y244656D01*
X340800D01*
X340200Y245256D01*
X340800Y245856D01*
X340200D01*
X339600Y246456D01*
X339000Y245856D01*
X338400D01*
X339000Y245256D01*
X338400Y244656D01*
X339000D01*
X339600Y244056D01*
X335555Y231900D02*
X336555Y232900D01*
X337555D01*
X336555Y233900D01*
X337555Y234900D01*
X336555D01*
X335555Y235900D01*
X334555Y234900D01*
X333555D01*
X334555Y233900D01*
X333555Y232900D01*
X334555D01*
X335555Y231900D01*
Y232700D02*
X336155Y233300D01*
X336755D01*
X336155Y233900D01*
X336755Y234500D01*
X336155D01*
X335555Y235100D01*
X334955Y234500D01*
X334355D01*
X334955Y233900D01*
X334355Y233300D01*
X334955D01*
X335555Y232700D01*
X316200Y273900D02*
X317200Y274900D01*
X318200D01*
X317200Y275900D01*
X318200Y276900D01*
X317200D01*
X316200Y277900D01*
X315200Y276900D01*
X314200D01*
X315200Y275900D01*
X314200Y274900D01*
X315200D01*
X316200Y273900D01*
Y274700D02*
X316800Y275300D01*
X317400D01*
X316800Y275900D01*
X317400Y276500D01*
X316800D01*
X316200Y277100D01*
X315600Y276500D01*
X315000D01*
X315600Y275900D01*
X315000Y275300D01*
X315600D01*
X316200Y274700D01*
X333453Y228500D02*
X334453Y229500D01*
X335453D01*
X334453Y230500D01*
X335453Y231500D01*
X334453D01*
X333453Y232500D01*
X332453Y231500D01*
X331453D01*
X332453Y230500D01*
X331453Y229500D01*
X332453D01*
X333453Y228500D01*
Y229300D02*
X334053Y229900D01*
X334653D01*
X334053Y230500D01*
X334653Y231100D01*
X334053D01*
X333453Y231700D01*
X332853Y231100D01*
X332253D01*
X332853Y230500D01*
X332253Y229900D01*
X332853D01*
X333453Y229300D01*
X323140Y249419D02*
X324140Y250419D01*
X325140D01*
X324140Y251419D01*
X325140Y252419D01*
X324140D01*
X323140Y253419D01*
X322140Y252419D01*
X321140D01*
X322140Y251419D01*
X321140Y250419D01*
X322140D01*
X323140Y249419D01*
Y250219D02*
X323740Y250819D01*
X324340D01*
X323740Y251419D01*
X324340Y252019D01*
X323740D01*
X323140Y252619D01*
X322540Y252019D01*
X321940D01*
X322540Y251419D01*
X321940Y250819D01*
X322540D01*
X323140Y250219D01*
X354500Y243453D02*
X355500Y244453D01*
X356500D01*
X355500Y245453D01*
X356500Y246453D01*
X355500D01*
X354500Y247453D01*
X353500Y246453D01*
X352500D01*
X353500Y245453D01*
X352500Y244453D01*
X353500D01*
X354500Y243453D01*
Y244253D02*
X355100Y244853D01*
X355700D01*
X355100Y245453D01*
X355700Y246053D01*
X355100D01*
X354500Y246653D01*
X353900Y246053D01*
X353300D01*
X353900Y245453D01*
X353300Y244853D01*
X353900D01*
X354500Y244253D01*
X360488Y238500D02*
X361488Y239500D01*
X362488D01*
X361488Y240500D01*
X362488Y241500D01*
X361488D01*
X360488Y242500D01*
X359488Y241500D01*
X358488D01*
X359488Y240500D01*
X358488Y239500D01*
X359488D01*
X360488Y238500D01*
Y239300D02*
X361088Y239900D01*
X361688D01*
X361088Y240500D01*
X361688Y241100D01*
X361088D01*
X360488Y241700D01*
X359888Y241100D01*
X359288D01*
X359888Y240500D01*
X359288Y239900D01*
X359888D01*
X360488Y239300D01*
X354500Y237547D02*
X355500Y238547D01*
X356500D01*
X355500Y239547D01*
X356500Y240547D01*
X355500D01*
X354500Y241547D01*
X353500Y240547D01*
X352500D01*
X353500Y239547D01*
X352500Y238547D01*
X353500D01*
X354500Y237547D01*
Y238347D02*
X355100Y238947D01*
X355700D01*
X355100Y239547D01*
X355700Y240147D01*
X355100D01*
X354500Y240747D01*
X353900Y240147D01*
X353300D01*
X353900Y239547D01*
X353300Y238947D01*
X353900D01*
X354500Y238347D01*
X350307Y225000D02*
X351307Y226000D01*
X352307D01*
X351307Y227000D01*
X352307Y228000D01*
X351307D01*
X350307Y229000D01*
X349307Y228000D01*
X348307D01*
X349307Y227000D01*
X348307Y226000D01*
X349307D01*
X350307Y225000D01*
Y225800D02*
X350907Y226400D01*
X351507D01*
X350907Y227000D01*
X351507Y227600D01*
X350907D01*
X350307Y228200D01*
X349707Y227600D01*
X349107D01*
X349707Y227000D01*
X349107Y226400D01*
X349707D01*
X350307Y225800D01*
X344900Y221744D02*
X345900Y222744D01*
X346900D01*
X345900Y223744D01*
X346900Y224744D01*
X345900D01*
X344900Y225744D01*
X343900Y224744D01*
X342900D01*
X343900Y223744D01*
X342900Y222744D01*
X343900D01*
X344900Y221744D01*
Y222544D02*
X345500Y223144D01*
X346100D01*
X345500Y223744D01*
X346100Y224344D01*
X345500D01*
X344900Y224944D01*
X344300Y224344D01*
X343700D01*
X344300Y223744D01*
X343700Y223144D01*
X344300D01*
X344900Y222544D01*
X296500Y280453D02*
X297500Y281453D01*
X298500D01*
X297500Y282453D01*
X298500Y283453D01*
X297500D01*
X296500Y284453D01*
X295500Y283453D01*
X294500D01*
X295500Y282453D01*
X294500Y281453D01*
X295500D01*
X296500Y280453D01*
Y281253D02*
X297100Y281853D01*
X297700D01*
X297100Y282453D01*
X297700Y283053D01*
X297100D01*
X296500Y283653D01*
X295900Y283053D01*
X295300D01*
X295900Y282453D01*
X295300Y281853D01*
X295900D01*
X296500Y281253D01*
X302500Y287500D02*
X303500Y288500D01*
X304500D01*
X303500Y289500D01*
X304500Y290500D01*
X303500D01*
X302500Y291500D01*
X301500Y290500D01*
X300500D01*
X301500Y289500D01*
X300500Y288500D01*
X301500D01*
X302500Y287500D01*
Y288300D02*
X303100Y288900D01*
X303700D01*
X303100Y289500D01*
X303700Y290100D01*
X303100D01*
X302500Y290700D01*
X301900Y290100D01*
X301300D01*
X301900Y289500D01*
X301300Y288900D01*
X301900D01*
X302500Y288300D01*
X321000Y229300D02*
X322000Y230300D01*
X323000D01*
X322000Y231300D01*
X323000Y232300D01*
X322000D01*
X321000Y233300D01*
X320000Y232300D01*
X319000D01*
X320000Y231300D01*
X319000Y230300D01*
X320000D01*
X321000Y229300D01*
Y230100D02*
X321600Y230700D01*
X322200D01*
X321600Y231300D01*
X322200Y231900D01*
X321600D01*
X321000Y232500D01*
X320400Y231900D01*
X319800D01*
X320400Y231300D01*
X319800Y230700D01*
X320400D01*
X321000Y230100D01*
X306047Y234000D02*
X307047Y235000D01*
X308047D01*
X307047Y236000D01*
X308047Y237000D01*
X307047D01*
X306047Y238000D01*
X305047Y237000D01*
X304047D01*
X305047Y236000D01*
X304047Y235000D01*
X305047D01*
X306047Y234000D01*
Y234800D02*
X306647Y235400D01*
X307247D01*
X306647Y236000D01*
X307247Y236600D01*
X306647D01*
X306047Y237200D01*
X305447Y236600D01*
X304847D01*
X305447Y236000D01*
X304847Y235400D01*
X305447D01*
X306047Y234800D01*
X311547Y229500D02*
X312547Y230500D01*
X313547D01*
X312547Y231500D01*
X313547Y232500D01*
X312547D01*
X311547Y233500D01*
X310547Y232500D01*
X309547D01*
X310547Y231500D01*
X309547Y230500D01*
X310547D01*
X311547Y229500D01*
Y230300D02*
X312147Y230900D01*
X312747D01*
X312147Y231500D01*
X312747Y232100D01*
X312147D01*
X311547Y232700D01*
X310947Y232100D01*
X310347D01*
X310947Y231500D01*
X310347Y230900D01*
X310947D01*
X311547Y230300D01*
X327547Y228500D02*
X328547Y229500D01*
X329547D01*
X328547Y230500D01*
X329547Y231500D01*
X328547D01*
X327547Y232500D01*
X326547Y231500D01*
X325547D01*
X326547Y230500D01*
X325547Y229500D01*
X326547D01*
X327547Y228500D01*
Y229300D02*
X328147Y229900D01*
X328747D01*
X328147Y230500D01*
X328747Y231100D01*
X328147D01*
X327547Y231700D01*
X326947Y231100D01*
X326347D01*
X326947Y230500D01*
X326347Y229900D01*
X326947D01*
X327547Y229300D01*
X314369Y240095D02*
X315369Y241095D01*
X316369D01*
X315369Y242095D01*
X316369Y243095D01*
X315369D01*
X314369Y244095D01*
X313369Y243095D01*
X312368D01*
X313369Y242095D01*
X312368Y241095D01*
X313369D01*
X314369Y240095D01*
Y240895D02*
X314968Y241495D01*
X315568D01*
X314968Y242095D01*
X315568Y242695D01*
X314968D01*
X314369Y243295D01*
X313769Y242695D01*
X313169D01*
X313769Y242095D01*
X313169Y241495D01*
X313769D01*
X314369Y240895D01*
X317700Y244300D02*
X318700Y245300D01*
X319700D01*
X318700Y246300D01*
X319700Y247300D01*
X318700D01*
X317700Y248300D01*
X316700Y247300D01*
X315700D01*
X316700Y246300D01*
X315700Y245300D01*
X316700D01*
X317700Y244300D01*
Y245100D02*
X318300Y245700D01*
X318900D01*
X318300Y246300D01*
X318900Y246900D01*
X318300D01*
X317700Y247500D01*
X317100Y246900D01*
X316500D01*
X317100Y246300D01*
X316500Y245700D01*
X317100D01*
X317700Y245100D01*
X320756Y255500D02*
X321756Y256500D01*
X322756D01*
X321756Y257500D01*
X322756Y258500D01*
X321756D01*
X320756Y259500D01*
X319756Y258500D01*
X318756D01*
X319756Y257500D01*
X318756Y256500D01*
X319756D01*
X320756Y255500D01*
Y256300D02*
X321356Y256900D01*
X321956D01*
X321356Y257500D01*
X321956Y258100D01*
X321356D01*
X320756Y258700D01*
X320156Y258100D01*
X319556D01*
X320156Y257500D01*
X319556Y256900D01*
X320156D01*
X320756Y256300D01*
X309000Y260047D02*
X310000Y261047D01*
X311000D01*
X310000Y262047D01*
X311000Y263047D01*
X310000D01*
X309000Y264047D01*
X308000Y263047D01*
X307000D01*
X308000Y262047D01*
X307000Y261047D01*
X308000D01*
X309000Y260047D01*
Y260847D02*
X309600Y261447D01*
X310200D01*
X309600Y262047D01*
X310200Y262647D01*
X309600D01*
X309000Y263247D01*
X308400Y262647D01*
X307800D01*
X308400Y262047D01*
X307800Y261447D01*
X308400D01*
X309000Y260847D01*
X296500Y264047D02*
X297500Y265047D01*
X298500D01*
X297500Y266047D01*
X298500Y267047D01*
X297500D01*
X296500Y268047D01*
X295500Y267047D01*
X294500D01*
X295500Y266047D01*
X294500Y265047D01*
X295500D01*
X296500Y264047D01*
Y264847D02*
X297100Y265447D01*
X297700D01*
X297100Y266047D01*
X297700Y266647D01*
X297100D01*
X296500Y267247D01*
X295900Y266647D01*
X295300D01*
X295900Y266047D01*
X295300Y265447D01*
X295900D01*
X296500Y264847D01*
X301500Y260047D02*
X302500Y261047D01*
X303500D01*
X302500Y262047D01*
X303500Y263047D01*
X302500D01*
X301500Y264047D01*
X300500Y263047D01*
X299500D01*
X300500Y262047D01*
X299500Y261047D01*
X300500D01*
X301500Y260047D01*
Y260847D02*
X302100Y261447D01*
X302700D01*
X302100Y262047D01*
X302700Y262647D01*
X302100D01*
X301500Y263247D01*
X300900Y262647D01*
X300300D01*
X300900Y262047D01*
X300300Y261447D01*
X300900D01*
X301500Y260847D01*
X322500Y280047D02*
X323500Y281047D01*
X324500D01*
X323500Y282047D01*
X324500Y283047D01*
X323500D01*
X322500Y284047D01*
X321500Y283047D01*
X320500D01*
X321500Y282047D01*
X320500Y281047D01*
X321500D01*
X322500Y280047D01*
Y280847D02*
X323100Y281447D01*
X323700D01*
X323100Y282047D01*
X323700Y282647D01*
X323100D01*
X322500Y283247D01*
X321900Y282647D01*
X321300D01*
X321900Y282047D01*
X321300Y281447D01*
X321900D01*
X322500Y280847D01*
X326500Y269744D02*
X327500Y270744D01*
X328500D01*
X327500Y271744D01*
X328500Y272744D01*
X327500D01*
X326500Y273744D01*
X325500Y272744D01*
X324500D01*
X325500Y271744D01*
X324500Y270744D01*
X325500D01*
X326500Y269744D01*
Y270544D02*
X327100Y271144D01*
X327700D01*
X327100Y271744D01*
X327700Y272344D01*
X327100D01*
X326500Y272944D01*
X325900Y272344D01*
X325300D01*
X325900Y271744D01*
X325300Y271144D01*
X325900D01*
X326500Y270544D01*
X312500Y273000D02*
X313500Y274000D01*
X314500D01*
X313500Y275000D01*
X314500Y276000D01*
X313500D01*
X312500Y277000D01*
X311500Y276000D01*
X310500D01*
X311500Y275000D01*
X310500Y274000D01*
X311500D01*
X312500Y273000D01*
Y273800D02*
X313100Y274400D01*
X313700D01*
X313100Y275000D01*
X313700Y275600D01*
X313100D01*
X312500Y276200D01*
X311900Y275600D01*
X311300D01*
X311900Y275000D01*
X311300Y274400D01*
X311900D01*
X312500Y273800D01*
X301500Y265953D02*
X302500Y266953D01*
X303500D01*
X302500Y267953D01*
X303500Y268953D01*
X302500D01*
X301500Y269953D01*
X300500Y268953D01*
X299500D01*
X300500Y267953D01*
X299500Y266953D01*
X300500D01*
X301500Y265953D01*
Y266753D02*
X302100Y267353D01*
X302700D01*
X302100Y267953D01*
X302700Y268553D01*
X302100D01*
X301500Y269153D01*
X300900Y268553D01*
X300300D01*
X300900Y267953D01*
X300300Y267353D01*
X300900D01*
X301500Y266753D01*
X301776Y272750D02*
X302776Y273750D01*
X303776D01*
X302776Y274750D01*
X303776Y275750D01*
X302776D01*
X301776Y276750D01*
X300776Y275750D01*
X299776D01*
X300776Y274750D01*
X299776Y273750D01*
X300776D01*
X301776Y272750D01*
Y273550D02*
X302376Y274150D01*
X302976D01*
X302376Y274750D01*
X302976Y275350D01*
X302376D01*
X301776Y275950D01*
X301176Y275350D01*
X300576D01*
X301176Y274750D01*
X300576Y274150D01*
X301176D01*
X301776Y273550D01*
X321634Y321098D02*
X322634Y322098D01*
X323634D01*
X322634Y323098D01*
X323634Y324098D01*
X322634D01*
X321634Y325098D01*
X320634Y324098D01*
X319634D01*
X320634Y323098D01*
X319634Y322098D01*
X320634D01*
X321634Y321098D01*
Y321898D02*
X322234Y322498D01*
X322834D01*
X322234Y323098D01*
X322834Y323698D01*
X322234D01*
X321634Y324298D01*
X321034Y323698D01*
X320434D01*
X321034Y323098D01*
X320434Y322498D01*
X321034D01*
X321634Y321898D01*
Y295902D02*
X322634Y296902D01*
X323634D01*
X322634Y297902D01*
X323634Y298902D01*
X322634D01*
X321634Y299902D01*
X320634Y298902D01*
X319634D01*
X320634Y297902D01*
X319634Y296902D01*
X320634D01*
X321634Y295902D01*
Y296702D02*
X322234Y297302D01*
X322834D01*
X322234Y297902D01*
X322834Y298502D01*
X322234D01*
X321634Y299102D01*
X321034Y298502D01*
X320434D01*
X321034Y297902D01*
X320434Y297302D01*
X321034D01*
X321634Y296702D01*
X332512Y303000D02*
X333512Y304000D01*
X334512D01*
X333512Y305000D01*
X334512Y306000D01*
X333512D01*
X332512Y307000D01*
X331512Y306000D01*
X330512D01*
X331512Y305000D01*
X330512Y304000D01*
X331512D01*
X332512Y303000D01*
Y303800D02*
X333112Y304400D01*
X333712D01*
X333112Y305000D01*
X333712Y305600D01*
X333112D01*
X332512Y306200D01*
X331912Y305600D01*
X331312D01*
X331912Y305000D01*
X331312Y304400D01*
X331912D01*
X332512Y303800D01*
X397402Y302500D02*
X398402Y303500D01*
X399402D01*
X398402Y304500D01*
X399402Y305500D01*
X398402D01*
X397402Y306500D01*
X396402Y305500D01*
X395402D01*
X396402Y304500D01*
X395402Y303500D01*
X396402D01*
X397402Y302500D01*
Y303300D02*
X398002Y303900D01*
X398602D01*
X398002Y304500D01*
X398602Y305100D01*
X398002D01*
X397402Y305700D01*
X396802Y305100D01*
X396202D01*
X396802Y304500D01*
X396202Y303900D01*
X396802D01*
X397402Y303300D01*
X402020Y315500D02*
X403020Y316500D01*
X404020D01*
X403020Y317500D01*
X404020Y318500D01*
X403020D01*
X402020Y319500D01*
X401020Y318500D01*
X400020D01*
X401020Y317500D01*
X400020Y316500D01*
X401020D01*
X402020Y315500D01*
Y316300D02*
X402620Y316900D01*
X403220D01*
X402620Y317500D01*
X403220Y318100D01*
X402620D01*
X402020Y318700D01*
X401420Y318100D01*
X400820D01*
X401420Y317500D01*
X400820Y316900D01*
X401420D01*
X402020Y316300D01*
X403500Y320744D02*
X404500Y321744D01*
X405500D01*
X404500Y322744D01*
X405500Y323744D01*
X404500D01*
X403500Y324744D01*
X402500Y323744D01*
X401500D01*
X402500Y322744D01*
X401500Y321744D01*
X402500D01*
X403500Y320744D01*
Y321544D02*
X404100Y322144D01*
X404700D01*
X404100Y322744D01*
X404700Y323344D01*
X404100D01*
X403500Y323944D01*
X402900Y323344D01*
X402300D01*
X402900Y322744D01*
X402300Y322144D01*
X402900D01*
X403500Y321544D01*
X398000Y320248D02*
X399000Y321248D01*
X400000D01*
X399000Y322248D01*
X400000Y323248D01*
X399000D01*
X398000Y324248D01*
X397000Y323248D01*
X396000D01*
X397000Y322248D01*
X396000Y321248D01*
X397000D01*
X398000Y320248D01*
Y321048D02*
X398600Y321648D01*
X399200D01*
X398600Y322248D01*
X399200Y322848D01*
X398600D01*
X398000Y323448D01*
X397400Y322848D01*
X396800D01*
X397400Y322248D01*
X396800Y321648D01*
X397400D01*
X398000Y321048D01*
X393000Y320248D02*
X394000Y321248D01*
X395000D01*
X394000Y322248D01*
X395000Y323248D01*
X394000D01*
X393000Y324248D01*
X392000Y323248D01*
X391000D01*
X392000Y322248D01*
X391000Y321248D01*
X392000D01*
X393000Y320248D01*
Y321048D02*
X393600Y321648D01*
X394200D01*
X393600Y322248D01*
X394200Y322848D01*
X393600D01*
X393000Y323448D01*
X392400Y322848D01*
X391800D01*
X392400Y322248D01*
X391800Y321648D01*
X392400D01*
X393000Y321048D01*
X388000Y320248D02*
X389000Y321248D01*
X390000D01*
X389000Y322248D01*
X390000Y323248D01*
X389000D01*
X388000Y324248D01*
X387000Y323248D01*
X386000D01*
X387000Y322248D01*
X386000Y321248D01*
X387000D01*
X388000Y320248D01*
Y321048D02*
X388600Y321648D01*
X389200D01*
X388600Y322248D01*
X389200Y322848D01*
X388600D01*
X388000Y323448D01*
X387400Y322848D01*
X386800D01*
X387400Y322248D01*
X386800Y321648D01*
X387400D01*
X388000Y321048D01*
X383000Y320248D02*
X384000Y321248D01*
X385000D01*
X384000Y322248D01*
X385000Y323248D01*
X384000D01*
X383000Y324248D01*
X382000Y323248D01*
X381000D01*
X382000Y322248D01*
X381000Y321248D01*
X382000D01*
X383000Y320248D01*
Y321048D02*
X383600Y321648D01*
X384200D01*
X383600Y322248D01*
X384200Y322848D01*
X383600D01*
X383000Y323448D01*
X382400Y322848D01*
X381800D01*
X382400Y322248D01*
X381800Y321648D01*
X382400D01*
X383000Y321048D01*
X422500Y302244D02*
X423500Y303244D01*
X424500D01*
X423500Y304244D01*
X424500Y305244D01*
X423500D01*
X422500Y306244D01*
X421500Y305244D01*
X420500D01*
X421500Y304244D01*
X420500Y303244D01*
X421500D01*
X422500Y302244D01*
Y303044D02*
X423100Y303644D01*
X423700D01*
X423100Y304244D01*
X423700Y304844D01*
X423100D01*
X422500Y305444D01*
X421900Y304844D01*
X421300D01*
X421900Y304244D01*
X421300Y303644D01*
X421900D01*
X422500Y303044D01*
X375390Y304000D02*
X376390Y305000D01*
X377390D01*
X376390Y306000D01*
X377390Y307000D01*
X376390D01*
X375390Y308000D01*
X374390Y307000D01*
X373390D01*
X374390Y306000D01*
X373390Y305000D01*
X374390D01*
X375390Y304000D01*
Y304800D02*
X375990Y305400D01*
X376590D01*
X375990Y306000D01*
X376590Y306600D01*
X375990D01*
X375390Y307200D01*
X374790Y306600D01*
X374190D01*
X374790Y306000D01*
X374190Y305400D01*
X374790D01*
X375390Y304800D01*
X403500Y268500D02*
X404500Y269500D01*
X405500D01*
X404500Y270500D01*
X405500Y271500D01*
X404500D01*
X403500Y272500D01*
X402500Y271500D01*
X401500D01*
X402500Y270500D01*
X401500Y269500D01*
X402500D01*
X403500Y268500D01*
Y269300D02*
X404100Y269900D01*
X404700D01*
X404100Y270500D01*
X404700Y271100D01*
X404100D01*
X403500Y271700D01*
X402900Y271100D01*
X402300D01*
X402900Y270500D01*
X402300Y269900D01*
X402900D01*
X403500Y269300D01*
X400000Y267000D02*
X401000Y268000D01*
X402000D01*
X401000Y269000D01*
X402000Y270000D01*
X401000D01*
X400000Y271000D01*
X399000Y270000D01*
X398000D01*
X399000Y269000D01*
X398000Y268000D01*
X399000D01*
X400000Y267000D01*
Y267800D02*
X400600Y268400D01*
X401200D01*
X400600Y269000D01*
X401200Y269600D01*
X400600D01*
X400000Y270200D01*
X399400Y269600D01*
X398800D01*
X399400Y269000D01*
X398800Y268400D01*
X399400D01*
X400000Y267800D01*
X405000Y218000D02*
X406000Y219000D01*
X407000D01*
X406000Y220000D01*
X407000Y221000D01*
X406000D01*
X405000Y222000D01*
X404000Y221000D01*
X403000D01*
X404000Y220000D01*
X403000Y219000D01*
X404000D01*
X405000Y218000D01*
Y218800D02*
X405600Y219400D01*
X406200D01*
X405600Y220000D01*
X406200Y220600D01*
X405600D01*
X405000Y221200D01*
X404400Y220600D01*
X403800D01*
X404400Y220000D01*
X403800Y219400D01*
X404400D01*
X405000Y218800D01*
X396000Y218000D02*
X397000Y219000D01*
X398000D01*
X397000Y220000D01*
X398000Y221000D01*
X397000D01*
X396000Y222000D01*
X395000Y221000D01*
X394000D01*
X395000Y220000D01*
X394000Y219000D01*
X395000D01*
X396000Y218000D01*
Y218800D02*
X396600Y219400D01*
X397200D01*
X396600Y220000D01*
X397200Y220600D01*
X396600D01*
X396000Y221200D01*
X395400Y220600D01*
X394800D01*
X395400Y220000D01*
X394800Y219400D01*
X395400D01*
X396000Y218800D01*
X405000Y227000D02*
X406000Y228000D01*
X407000D01*
X406000Y229000D01*
X407000Y230000D01*
X406000D01*
X405000Y231000D01*
X404000Y230000D01*
X403000D01*
X404000Y229000D01*
X403000Y228000D01*
X404000D01*
X405000Y227000D01*
Y227800D02*
X405600Y228400D01*
X406200D01*
X405600Y229000D01*
X406200Y229600D01*
X405600D01*
X405000Y230200D01*
X404400Y229600D01*
X403800D01*
X404400Y229000D01*
X403800Y228400D01*
X404400D01*
X405000Y227800D01*
X396000Y227000D02*
X397000Y228000D01*
X398000D01*
X397000Y229000D01*
X398000Y230000D01*
X397000D01*
X396000Y231000D01*
X395000Y230000D01*
X394000D01*
X395000Y229000D01*
X394000Y228000D01*
X395000D01*
X396000Y227000D01*
Y227800D02*
X396600Y228400D01*
X397200D01*
X396600Y229000D01*
X397200Y229600D01*
X396600D01*
X396000Y230200D01*
X395400Y229600D01*
X394800D01*
X395400Y229000D01*
X394800Y228400D01*
X395400D01*
X396000Y227800D01*
X388000Y217500D02*
X389000Y218500D01*
X390000D01*
X389000Y219500D01*
X390000Y220500D01*
X389000D01*
X388000Y221500D01*
X387000Y220500D01*
X386000D01*
X387000Y219500D01*
X386000Y218500D01*
X387000D01*
X388000Y217500D01*
Y218300D02*
X388600Y218900D01*
X389200D01*
X388600Y219500D01*
X389200Y220100D01*
X388600D01*
X388000Y220700D01*
X387400Y220100D01*
X386800D01*
X387400Y219500D01*
X386800Y218900D01*
X387400D01*
X388000Y218300D01*
X393000Y338752D02*
X394000Y339752D01*
X395000D01*
X394000Y340752D01*
X395000Y341752D01*
X394000D01*
X393000Y342752D01*
X392000Y341752D01*
X391000D01*
X392000Y340752D01*
X391000Y339752D01*
X392000D01*
X393000Y338752D01*
Y339552D02*
X393600Y340152D01*
X394200D01*
X393600Y340752D01*
X394200Y341352D01*
X393600D01*
X393000Y341952D01*
X392400Y341352D01*
X391800D01*
X392400Y340752D01*
X391800Y340152D01*
X392400D01*
X393000Y339552D01*
X459104Y306285D02*
X460104Y307285D01*
X461104D01*
X460104Y308285D01*
X461104Y309285D01*
X460104D01*
X459104Y310285D01*
X458104Y309285D01*
X457104D01*
X458104Y308285D01*
X457104Y307285D01*
X458104D01*
X459104Y306285D01*
Y307085D02*
X459704Y307685D01*
X460304D01*
X459704Y308285D01*
X460304Y308885D01*
X459704D01*
X459104Y309485D01*
X458504Y308885D01*
X457904D01*
X458504Y308285D01*
X457904Y307685D01*
X458504D01*
X459104Y307085D01*
X463300Y321100D02*
X464300Y322100D01*
X465300D01*
X464300Y323100D01*
X465300Y324100D01*
X464300D01*
X463300Y325100D01*
X462300Y324100D01*
X461300D01*
X462300Y323100D01*
X461300Y322100D01*
X462300D01*
X463300Y321100D01*
Y321900D02*
X463900Y322500D01*
X464500D01*
X463900Y323100D01*
X464500Y323700D01*
X463900D01*
X463300Y324300D01*
X462700Y323700D01*
X462100D01*
X462700Y323100D01*
X462100Y322500D01*
X462700D01*
X463300Y321900D01*
X486547Y302320D02*
X487546Y303320D01*
X488547D01*
X487546Y304320D01*
X488547Y305320D01*
X487546D01*
X486547Y306320D01*
X485546Y305320D01*
X484547D01*
X485546Y304320D01*
X484547Y303320D01*
X485546D01*
X486547Y302320D01*
Y303120D02*
X487147Y303720D01*
X487746D01*
X487147Y304320D01*
X487746Y304920D01*
X487147D01*
X486547Y305520D01*
X485947Y304920D01*
X485347D01*
X485947Y304320D01*
X485347Y303720D01*
X485947D01*
X486547Y303120D01*
X479400Y305400D02*
X480400Y306400D01*
X481400D01*
X480400Y307400D01*
X481400Y308400D01*
X480400D01*
X479400Y309400D01*
X478400Y308400D01*
X477400D01*
X478400Y307400D01*
X477400Y306400D01*
X478400D01*
X479400Y305400D01*
Y306200D02*
X480000Y306800D01*
X480600D01*
X480000Y307400D01*
X480600Y308000D01*
X480000D01*
X479400Y308600D01*
X478800Y308000D01*
X478200D01*
X478800Y307400D01*
X478200Y306800D01*
X478800D01*
X479400Y306200D01*
X486638Y298685D02*
X487638Y299685D01*
X488638D01*
X487638Y300685D01*
X488638Y301685D01*
X487638D01*
X486638Y302685D01*
X485638Y301685D01*
X484638D01*
X485638Y300685D01*
X484638Y299685D01*
X485638D01*
X486638Y298685D01*
Y299485D02*
X487238Y300085D01*
X487838D01*
X487238Y300685D01*
X487838Y301285D01*
X487238D01*
X486638Y301885D01*
X486038Y301285D01*
X485438D01*
X486038Y300685D01*
X485438Y300085D01*
X486038D01*
X486638Y299485D01*
X441100Y234700D02*
X442100Y235700D01*
X443100D01*
X442100Y236700D01*
X443100Y237700D01*
X442100D01*
X441100Y238700D01*
X440100Y237700D01*
X439100D01*
X440100Y236700D01*
X439100Y235700D01*
X440100D01*
X441100Y234700D01*
Y235500D02*
X441700Y236100D01*
X442300D01*
X441700Y236700D01*
X442300Y237300D01*
X441700D01*
X441100Y237900D01*
X440500Y237300D01*
X439900D01*
X440500Y236700D01*
X439900Y236100D01*
X440500D01*
X441100Y235500D01*
X431000Y216256D02*
X432000Y217256D01*
X433000D01*
X432000Y218256D01*
X433000Y219256D01*
X432000D01*
X431000Y220256D01*
X430000Y219256D01*
X429000D01*
X430000Y218256D01*
X429000Y217256D01*
X430000D01*
X431000Y216256D01*
Y217056D02*
X431600Y217656D01*
X432200D01*
X431600Y218256D01*
X432200Y218856D01*
X431600D01*
X431000Y219456D01*
X430400Y218856D01*
X429800D01*
X430400Y218256D01*
X429800Y217656D01*
X430400D01*
X431000Y217056D01*
X434000Y220744D02*
X435000Y221744D01*
X436000D01*
X435000Y222744D01*
X436000Y223744D01*
X435000D01*
X434000Y224744D01*
X433000Y223744D01*
X432000D01*
X433000Y222744D01*
X432000Y221744D01*
X433000D01*
X434000Y220744D01*
Y221544D02*
X434600Y222144D01*
X435200D01*
X434600Y222744D01*
X435200Y223344D01*
X434600D01*
X434000Y223944D01*
X433400Y223344D01*
X432800D01*
X433400Y222744D01*
X432800Y222144D01*
X433400D01*
X434000Y221544D01*
X319957Y238063D02*
X321957Y240063D01*
X323957Y238063D01*
X321957Y236063D01*
X319957Y238063D01*
X323500D02*
X325500Y240063D01*
X327500Y238063D01*
X325500Y236063D01*
X323500Y238063D01*
X327043D02*
X329043Y240063D01*
X331043Y238063D01*
X329043Y236063D01*
X327043Y238063D01*
X319957Y242000D02*
X321957Y244000D01*
X323957Y242000D01*
X321957Y240000D01*
X319957Y242000D01*
X323500D02*
X325500Y244000D01*
X327500Y242000D01*
X325500Y240000D01*
X323500Y242000D01*
X327043D02*
X329043Y244000D01*
X331043Y242000D01*
X329043Y240000D01*
X327043Y242000D01*
X440068Y312400D02*
Y316400D01*
X444068D01*
Y312400D01*
X440068D01*
X440869Y313200D02*
Y315600D01*
X443268D01*
Y313200D01*
X440869D01*
X436131Y312400D02*
Y316400D01*
X440132D01*
Y312400D01*
X436131D01*
X436932Y313200D02*
Y315600D01*
X439331D01*
Y313200D01*
X436932D01*
D117*
X426500Y329000D02*
G03*
X426500Y329000I-2000J0D01*
G01*
X411500Y326500D02*
G03*
X411500Y326500I-2000J0D01*
G01*
X497000Y322500D02*
G03*
X497000Y322500I-2000J0D01*
G01*
X414700Y341800D02*
G03*
X414700Y341800I-2000J0D01*
G01*
X321370Y293492D02*
G03*
X321370Y293492I-2000J0D01*
G01*
Y327508D02*
G03*
X321370Y327508I-2000J0D01*
G01*
X348000Y340000D02*
G03*
X348000Y340000I-2000J0D01*
G01*
X299000Y224500D02*
G03*
X299000Y224500I-2000J0D01*
G01*
D118*
X425700Y329000D02*
G03*
X425700Y329000I-1200J0D01*
G01*
X410700Y326500D02*
G03*
X410700Y326500I-1200J0D01*
G01*
X496200Y322500D02*
G03*
X496200Y322500I-1200J0D01*
G01*
X413900Y341800D02*
G03*
X413900Y341800I-1200J0D01*
G01*
X347200Y340000D02*
G03*
X347200Y340000I-1200J0D01*
G01*
X298200Y224500D02*
G03*
X298200Y224500I-1200J0D01*
G01*
M02*
