G04*
G04 #@! TF.GenerationSoftware,Altium Limited,Altium Designer,25.1.2 (22)*
G04*
G04 Layer_Color=8388736*
%FSLAX25Y25*%
%MOIN*%
G70*
G04*
G04 #@! TF.SameCoordinates,A423F219-74DF-48C0-8C07-EBF34D934AC7*
G04*
G04*
G04 #@! TF.FilePolarity,Positive*
G04*
G01*
G75*
%ADD11C,0.00787*%
G36*
X303271Y277320D02*
X303341Y277312D01*
X303406Y277298D01*
X303468Y277280D01*
X303522Y277254D01*
X303577Y277232D01*
X303624Y277203D01*
X303668Y277178D01*
X303705Y277152D01*
X303741Y277123D01*
X303770Y277101D01*
X303792Y277080D01*
X303810Y277058D01*
X303825Y277043D01*
X303832Y277036D01*
X303836Y277032D01*
X303883Y276967D01*
X303923Y276890D01*
X303959Y276810D01*
X303992Y276727D01*
X304018Y276639D01*
X304039Y276552D01*
X304058Y276461D01*
X304072Y276377D01*
X304083Y276293D01*
X304090Y276217D01*
X304098Y276148D01*
X304101Y276090D01*
Y276039D01*
X304105Y276002D01*
Y275988D01*
Y275977D01*
Y275973D01*
Y275969D01*
X304101Y275853D01*
X304094Y275744D01*
X304083Y275642D01*
X304065Y275547D01*
X304047Y275463D01*
X304029Y275387D01*
X304007Y275318D01*
X303981Y275256D01*
X303959Y275205D01*
X303938Y275158D01*
X303919Y275121D01*
X303897Y275089D01*
X303883Y275063D01*
X303872Y275048D01*
X303865Y275038D01*
X303861Y275034D01*
X303814Y274983D01*
X303763Y274939D01*
X303712Y274903D01*
X303661Y274870D01*
X303606Y274841D01*
X303555Y274819D01*
X303504Y274801D01*
X303453Y274786D01*
X303410Y274775D01*
X303366Y274764D01*
X303330Y274757D01*
X303297Y274754D01*
X303268D01*
X303250Y274750D01*
X303231D01*
X303148Y274754D01*
X303071Y274768D01*
X303002Y274783D01*
X302940Y274805D01*
X302893Y274823D01*
X302856Y274841D01*
X302842Y274845D01*
X302831Y274852D01*
X302827Y274855D01*
X302824D01*
X302762Y274899D01*
X302703Y274950D01*
X302656Y275001D01*
X302616Y275052D01*
X302583Y275099D01*
X302562Y275136D01*
X302554Y275150D01*
X302547Y275161D01*
X302543Y275165D01*
Y275169D01*
X302507Y275245D01*
X302482Y275325D01*
X302463Y275398D01*
X302452Y275467D01*
X302441Y275525D01*
Y275547D01*
X302438Y275569D01*
Y275587D01*
Y275598D01*
Y275605D01*
Y275609D01*
X302441Y275675D01*
X302449Y275736D01*
X302460Y275798D01*
X302471Y275853D01*
X302489Y275904D01*
X302507Y275955D01*
X302525Y275998D01*
X302547Y276039D01*
X302569Y276075D01*
X302587Y276108D01*
X302605Y276133D01*
X302624Y276159D01*
X302634Y276177D01*
X302645Y276188D01*
X302653Y276195D01*
X302656Y276199D01*
X302696Y276239D01*
X302740Y276275D01*
X302787Y276304D01*
X302831Y276330D01*
X302875Y276355D01*
X302918Y276373D01*
X303002Y276399D01*
X303038Y276410D01*
X303075Y276417D01*
X303104Y276421D01*
X303133Y276424D01*
X303155Y276428D01*
X303184D01*
X303250Y276424D01*
X303311Y276413D01*
X303370Y276402D01*
X303421Y276388D01*
X303464Y276370D01*
X303497Y276359D01*
X303519Y276348D01*
X303522Y276344D01*
X303526D01*
X303584Y276308D01*
X303635Y276268D01*
X303683Y276228D01*
X303719Y276184D01*
X303752Y276148D01*
X303777Y276119D01*
X303792Y276097D01*
X303796Y276093D01*
Y276159D01*
X303792Y276224D01*
X303788Y276282D01*
X303781Y276341D01*
X303777Y276392D01*
X303770Y276439D01*
X303763Y276483D01*
X303752Y276523D01*
X303745Y276559D01*
X303737Y276588D01*
X303730Y276614D01*
X303726Y276636D01*
X303719Y276650D01*
X303715Y276661D01*
X303712Y276668D01*
Y276672D01*
X303675Y276745D01*
X303639Y276810D01*
X303599Y276861D01*
X303563Y276905D01*
X303530Y276941D01*
X303504Y276967D01*
X303486Y276981D01*
X303479Y276985D01*
X303435Y277014D01*
X303392Y277032D01*
X303348Y277047D01*
X303304Y277058D01*
X303271Y277065D01*
X303242Y277069D01*
X303217D01*
X303151Y277061D01*
X303089Y277047D01*
X303038Y277025D01*
X302991Y277003D01*
X302955Y276978D01*
X302929Y276956D01*
X302915Y276941D01*
X302907Y276934D01*
X302882Y276901D01*
X302856Y276861D01*
X302835Y276817D01*
X302820Y276774D01*
X302805Y276734D01*
X302795Y276701D01*
X302791Y276679D01*
X302787Y276676D01*
Y276672D01*
X302478Y276697D01*
X302500Y276799D01*
X302533Y276890D01*
X302569Y276970D01*
X302609Y277036D01*
X302649Y277087D01*
X302663Y277109D01*
X302682Y277127D01*
X302693Y277138D01*
X302703Y277149D01*
X302707Y277152D01*
X302711Y277156D01*
X302747Y277185D01*
X302787Y277211D01*
X302867Y277254D01*
X302947Y277283D01*
X303024Y277302D01*
X303093Y277316D01*
X303122Y277320D01*
X303148D01*
X303169Y277323D01*
X303199D01*
X303271Y277320D01*
D02*
G37*
G36*
X306500Y275856D02*
Y275784D01*
X306496Y275715D01*
X306493Y275649D01*
X306486Y275587D01*
X306478Y275533D01*
X306471Y275482D01*
X306460Y275434D01*
X306453Y275391D01*
X306445Y275351D01*
X306434Y275318D01*
X306427Y275289D01*
X306420Y275267D01*
X306413Y275249D01*
X306409Y275234D01*
X306405Y275227D01*
Y275223D01*
X306365Y275143D01*
X306314Y275070D01*
X306263Y275012D01*
X306209Y274961D01*
X306161Y274921D01*
X306121Y274892D01*
X306107Y274885D01*
X306096Y274877D01*
X306089Y274870D01*
X306085D01*
X305994Y274830D01*
X305899Y274801D01*
X305801Y274779D01*
X305710Y274764D01*
X305670Y274761D01*
X305630Y274757D01*
X305594Y274754D01*
X305565D01*
X305539Y274750D01*
X305506D01*
X305375Y274757D01*
X305317Y274764D01*
X305262Y274772D01*
X305208Y274783D01*
X305160Y274794D01*
X305117Y274805D01*
X305077Y274819D01*
X305040Y274834D01*
X305011Y274845D01*
X304982Y274855D01*
X304960Y274866D01*
X304942Y274877D01*
X304931Y274881D01*
X304924Y274888D01*
X304920D01*
X304840Y274943D01*
X304775Y275005D01*
X304724Y275063D01*
X304680Y275121D01*
X304647Y275172D01*
X304626Y275212D01*
X304618Y275227D01*
X304611Y275238D01*
X304607Y275245D01*
Y275249D01*
X304593Y275292D01*
X304578Y275340D01*
X304556Y275438D01*
X304542Y275540D01*
X304531Y275638D01*
X304527Y275682D01*
X304523Y275726D01*
Y275762D01*
X304520Y275795D01*
Y275820D01*
Y275838D01*
Y275853D01*
Y275856D01*
Y277312D01*
X304855D01*
Y275856D01*
Y275773D01*
X304862Y275693D01*
X304869Y275623D01*
X304880Y275558D01*
X304891Y275500D01*
X304906Y275445D01*
X304917Y275398D01*
X304931Y275358D01*
X304946Y275325D01*
X304960Y275292D01*
X304975Y275271D01*
X304986Y275249D01*
X304997Y275234D01*
X305004Y275223D01*
X305008Y275219D01*
X305011Y275216D01*
X305044Y275187D01*
X305081Y275161D01*
X305160Y275121D01*
X305244Y275092D01*
X305332Y275074D01*
X305412Y275059D01*
X305445Y275056D01*
X305477D01*
X305499Y275052D01*
X305535D01*
X305612Y275056D01*
X305681Y275067D01*
X305747Y275078D01*
X305798Y275096D01*
X305841Y275110D01*
X305874Y275121D01*
X305892Y275132D01*
X305899Y275136D01*
X305950Y275169D01*
X305994Y275209D01*
X306031Y275249D01*
X306056Y275285D01*
X306078Y275321D01*
X306096Y275347D01*
X306103Y275365D01*
X306107Y275372D01*
X306118Y275405D01*
X306125Y275438D01*
X306140Y275514D01*
X306151Y275594D01*
X306158Y275675D01*
X306161Y275744D01*
Y275776D01*
X306165Y275802D01*
Y275824D01*
Y275842D01*
Y275853D01*
Y275856D01*
Y277312D01*
X306500D01*
Y275856D01*
D02*
G37*
%LPC*%
G36*
X303268Y276155D02*
X303246D01*
X303169Y276148D01*
X303100Y276130D01*
X303042Y276108D01*
X302991Y276079D01*
X302951Y276049D01*
X302922Y276028D01*
X302904Y276009D01*
X302896Y276002D01*
X302849Y275940D01*
X302813Y275875D01*
X302787Y275805D01*
X302773Y275740D01*
X302762Y275682D01*
X302758Y275656D01*
Y275635D01*
X302754Y275616D01*
Y275602D01*
Y275594D01*
Y275591D01*
X302762Y275493D01*
X302776Y275409D01*
X302798Y275336D01*
X302824Y275274D01*
X302853Y275227D01*
X302875Y275190D01*
X302889Y275169D01*
X302896Y275165D01*
Y275161D01*
X302922Y275132D01*
X302951Y275110D01*
X303009Y275070D01*
X303067Y275045D01*
X303118Y275023D01*
X303166Y275012D01*
X303202Y275008D01*
X303217Y275005D01*
X303235D01*
X303286Y275008D01*
X303333Y275016D01*
X303377Y275030D01*
X303413Y275045D01*
X303446Y275056D01*
X303472Y275070D01*
X303486Y275078D01*
X303493Y275081D01*
X303537Y275114D01*
X303573Y275147D01*
X303606Y275187D01*
X303632Y275219D01*
X303654Y275252D01*
X303668Y275278D01*
X303679Y275296D01*
X303683Y275303D01*
X303705Y275358D01*
X303719Y275412D01*
X303734Y275463D01*
X303741Y275511D01*
X303745Y275551D01*
X303748Y275584D01*
Y275602D01*
Y275609D01*
X303741Y275696D01*
X303726Y275773D01*
X303701Y275842D01*
X303675Y275897D01*
X303650Y275944D01*
X303624Y275977D01*
X303610Y275995D01*
X303603Y276002D01*
X303544Y276053D01*
X303486Y276090D01*
X303424Y276119D01*
X303370Y276137D01*
X303319Y276148D01*
X303282Y276151D01*
X303268Y276155D01*
D02*
G37*
%LPD*%
D11*
X315161Y261561D02*
Y287939D01*
X297839Y261561D02*
X315161D01*
X297839D02*
Y287939D01*
X315161D01*
M02*
