G04*
G04 #@! TF.GenerationSoftware,Altium Limited,Altium Designer,25.1.2 (22)*
G04*
G04 Layer_Color=8421504*
%FSLAX25Y25*%
%MOIN*%
G70*
G04*
G04 #@! TF.SameCoordinates,A423F219-74DF-48C0-8C07-EBF34D934AC7*
G04*
G04*
G04 #@! TF.FilePolarity,Positive*
G04*
G01*
G75*
%ADD19R,0.04921X0.01968*%
%ADD20R,0.04921X0.01181*%
%ADD21R,0.00984X0.02067*%
%ADD22R,0.00984X0.02067*%
%ADD23R,0.00984X0.02067*%
%ADD24R,0.00984X0.02067*%
%ADD25R,0.03937X0.03150*%
%ADD26R,0.03937X0.03150*%
%ADD27R,0.03937X0.03150*%
%ADD28R,0.03937X0.03150*%
%ADD29R,0.03543X0.02756*%
%ADD30R,0.03158X0.03827*%
%ADD31R,0.01181X0.02362*%
%ADD32R,0.02362X0.01181*%
%ADD33R,0.13583X0.13583*%
%ADD34R,0.04331X0.03937*%
%ADD35R,0.03937X0.03543*%
%ADD36R,0.03543X0.03937*%
%ADD37R,0.03150X0.03150*%
%ADD38R,0.03150X0.03150*%
%ADD39R,0.02756X0.04331*%
%ADD40R,0.03937X0.03150*%
%ADD41R,0.02756X0.03543*%
G04:AMPARAMS|DCode=42|XSize=15.75mil|YSize=25.59mil|CornerRadius=1.97mil|HoleSize=0mil|Usage=FLASHONLY|Rotation=180.000|XOffset=0mil|YOffset=0mil|HoleType=Round|Shape=RoundedRectangle|*
%AMROUNDEDRECTD42*
21,1,0.01575,0.02165,0,0,180.0*
21,1,0.01181,0.02559,0,0,180.0*
1,1,0.00394,-0.00591,0.01083*
1,1,0.00394,0.00591,0.01083*
1,1,0.00394,0.00591,-0.01083*
1,1,0.00394,-0.00591,-0.01083*
%
%ADD42ROUNDEDRECTD42*%
%ADD43O,0.02362X0.07480*%
%ADD44R,0.02362X0.03150*%
%ADD45R,0.03937X0.03150*%
%ADD46R,0.04331X0.07874*%
%ADD47R,0.04331X0.02559*%
%ADD48R,0.03150X0.06693*%
%ADD49R,0.04528X0.02362*%
%ADD50R,0.04528X0.01181*%
%ADD51R,0.01200X0.01100*%
%ADD52R,0.01100X0.01200*%
%ADD53R,0.02362X0.04331*%
%ADD54R,0.02559X0.04331*%
%ADD55R,0.03150X0.01968*%
%ADD56R,0.02953X0.01181*%
%ADD57R,0.06890X0.05709*%
%ADD58R,0.04134X0.06693*%
%ADD59R,0.03150X0.03937*%
%ADD60R,0.07874X0.04331*%
G36*
X316150Y236488D02*
X318905D01*
X318984D01*
X319128Y236428D01*
X319239Y236317D01*
X319299Y236173D01*
Y236094D01*
Y236016D01*
X319239Y235872D01*
X319128Y235761D01*
X318984Y235701D01*
X318905D01*
D01*
X316150D01*
Y236488D01*
D02*
G37*
G36*
Y238063D02*
X318905D01*
X318984D01*
X319128Y238003D01*
X319239Y237892D01*
X319299Y237748D01*
Y237669D01*
Y237591D01*
X319239Y237446D01*
X319128Y237335D01*
X318984Y237276D01*
X318905D01*
Y237276D01*
X316150D01*
Y238063D01*
D02*
G37*
G36*
Y239638D02*
X318905D01*
X318984D01*
X319128Y239578D01*
X319239Y239467D01*
X319299Y239322D01*
Y239244D01*
Y239166D01*
X319239Y239021D01*
X319128Y238910D01*
X318984Y238850D01*
X318905D01*
D01*
X316150D01*
Y239638D01*
D02*
G37*
G36*
Y241213D02*
X318905D01*
X318984D01*
X319128Y241153D01*
X319239Y241042D01*
X319299Y240897D01*
Y240819D01*
Y240741D01*
X319239Y240596D01*
X319128Y240485D01*
X318984Y240425D01*
X318905D01*
D01*
X316150D01*
Y241213D01*
D02*
G37*
G36*
Y242787D02*
X318905Y242787D01*
X318984D01*
X319128Y242727D01*
X319239Y242617D01*
X319299Y242472D01*
Y242394D01*
Y242315D01*
X319239Y242171D01*
X319128Y242060D01*
X318984Y242000D01*
X318905D01*
D01*
X316150D01*
Y242787D01*
D02*
G37*
G36*
Y244362D02*
X318905D01*
X318984D01*
X319128Y244302D01*
X319239Y244192D01*
X319299Y244047D01*
Y243969D01*
Y243890D01*
X319239Y243745D01*
X319128Y243635D01*
X318984Y243575D01*
X318905D01*
D01*
X316150D01*
Y244362D01*
D02*
G37*
G36*
X334850Y235701D02*
X332095D01*
X332016D01*
X331872Y235761D01*
X331761Y235872D01*
X331701Y236016D01*
Y236094D01*
Y236173D01*
X331761Y236317D01*
X331872Y236428D01*
X332016Y236488D01*
X332095D01*
D01*
X334850D01*
Y235701D01*
D02*
G37*
G36*
Y237276D02*
X332095Y237276D01*
X332016D01*
X331872Y237335D01*
X331761Y237446D01*
X331701Y237591D01*
Y237669D01*
Y237748D01*
X331761Y237892D01*
X331872Y238003D01*
X332016Y238063D01*
X332095D01*
D01*
X334850D01*
Y237276D01*
D02*
G37*
G36*
Y238850D02*
X332095D01*
X332016D01*
X331872Y238910D01*
X331761Y239021D01*
X331701Y239166D01*
Y239244D01*
Y239322D01*
X331761Y239467D01*
X331872Y239578D01*
X332016Y239638D01*
X332095D01*
D01*
X334850D01*
Y238850D01*
D02*
G37*
G36*
Y240425D02*
X332095D01*
X332016D01*
X331872Y240485D01*
X331761Y240596D01*
X331701Y240741D01*
Y240819D01*
Y240897D01*
X331761Y241042D01*
X331872Y241153D01*
X332016Y241213D01*
X332095D01*
D01*
X334850D01*
Y240425D01*
D02*
G37*
G36*
Y242000D02*
X332095D01*
X332016D01*
X331872Y242060D01*
X331761Y242171D01*
X331701Y242315D01*
Y242394D01*
Y242472D01*
X331761Y242617D01*
X331872Y242727D01*
X332016Y242787D01*
X332095D01*
Y242787D01*
X334850D01*
Y242000D01*
D02*
G37*
G36*
Y243575D02*
X332095D01*
X332016D01*
X331872Y243635D01*
X331761Y243745D01*
X331701Y243890D01*
Y243969D01*
Y244047D01*
X331761Y244192D01*
X331872Y244302D01*
X332016Y244362D01*
X332095D01*
D01*
X334850D01*
Y243575D01*
D02*
G37*
D19*
X446984Y225650D02*
D03*
Y244350D02*
D03*
X470016D02*
D03*
Y225650D02*
D03*
D20*
X446984Y228602D02*
D03*
Y231161D02*
D03*
Y233720D02*
D03*
Y236280D02*
D03*
Y238839D02*
D03*
Y241398D02*
D03*
X470016D02*
D03*
Y238839D02*
D03*
Y236280D02*
D03*
Y233720D02*
D03*
Y231161D02*
D03*
Y228602D02*
D03*
D21*
X321169Y234667D02*
D03*
D22*
Y245396D02*
D03*
D23*
X329831Y234667D02*
D03*
D24*
Y245396D02*
D03*
D25*
X323138Y242000D02*
D03*
D26*
Y238063D02*
D03*
D27*
X327862D02*
D03*
D28*
Y242000D02*
D03*
D29*
X434000Y222744D02*
D03*
Y228256D02*
D03*
X376000Y230744D02*
D03*
Y236256D02*
D03*
X403500Y322744D02*
D03*
Y328256D02*
D03*
X416000Y309244D02*
D03*
Y314756D02*
D03*
X422500Y304244D02*
D03*
Y309756D02*
D03*
X327100Y309844D02*
D03*
Y315356D02*
D03*
X326500Y277256D02*
D03*
Y271744D02*
D03*
X339300Y229744D02*
D03*
Y235256D02*
D03*
X431000Y212744D02*
D03*
Y218256D02*
D03*
X339600Y239744D02*
D03*
Y245256D02*
D03*
X344900Y223744D02*
D03*
Y229256D02*
D03*
X458500Y211256D02*
D03*
Y205744D02*
D03*
X302500Y286256D02*
D03*
Y280744D02*
D03*
X450574Y315383D02*
D03*
Y320895D02*
D03*
X496500Y299244D02*
D03*
Y304756D02*
D03*
X476000Y234256D02*
D03*
Y228744D02*
D03*
Y244256D02*
D03*
Y238744D02*
D03*
D30*
X318500Y269984D02*
D03*
X322240Y263016D02*
D03*
X314760D02*
D03*
D31*
X407390Y215248D02*
D03*
X405421D02*
D03*
X403453D02*
D03*
X401484D02*
D03*
X399516D02*
D03*
X397547D02*
D03*
X395579D02*
D03*
X393610D02*
D03*
Y233752D02*
D03*
X395579D02*
D03*
X397547D02*
D03*
X399516D02*
D03*
X401484D02*
D03*
X403453D02*
D03*
X405421D02*
D03*
X407390D02*
D03*
D32*
X409752Y231390D02*
D03*
Y229421D02*
D03*
Y227453D02*
D03*
Y225484D02*
D03*
Y223516D02*
D03*
Y221547D02*
D03*
Y219579D02*
D03*
Y217610D02*
D03*
X391248D02*
D03*
Y219579D02*
D03*
Y221547D02*
D03*
Y223516D02*
D03*
Y225484D02*
D03*
Y227453D02*
D03*
Y229421D02*
D03*
Y231390D02*
D03*
D33*
X400500Y224500D02*
D03*
D34*
X369736Y205000D02*
D03*
X399264D02*
D03*
D35*
X370000Y226157D02*
D03*
Y220843D02*
D03*
D36*
X380842Y226000D02*
D03*
X386157D02*
D03*
X381343Y235000D02*
D03*
X386658D02*
D03*
X392087Y304500D02*
D03*
X397402D02*
D03*
X408157D02*
D03*
X402843D02*
D03*
X421158Y220000D02*
D03*
X415842D02*
D03*
X376842Y220500D02*
D03*
X382157D02*
D03*
X419158Y214500D02*
D03*
X413842D02*
D03*
D37*
X354500Y245453D02*
D03*
Y239547D02*
D03*
X322500Y287953D02*
D03*
Y282047D02*
D03*
X296500Y266047D02*
D03*
Y271953D02*
D03*
Y282453D02*
D03*
Y276547D02*
D03*
X470500Y316547D02*
D03*
Y322453D02*
D03*
X301500Y262047D02*
D03*
Y267953D02*
D03*
X309000Y262047D02*
D03*
Y267953D02*
D03*
X496500Y315358D02*
D03*
Y309453D02*
D03*
D38*
X375547Y244500D02*
D03*
X381453D02*
D03*
X370953Y338500D02*
D03*
X365047D02*
D03*
X317547Y334500D02*
D03*
X323453D02*
D03*
X317547Y343000D02*
D03*
X323453D02*
D03*
X485047Y229000D02*
D03*
X490953D02*
D03*
X333453Y230500D02*
D03*
X327547D02*
D03*
X311547Y231500D02*
D03*
X317453D02*
D03*
X306047Y236000D02*
D03*
X311953D02*
D03*
X439547Y210000D02*
D03*
X445453D02*
D03*
X479547Y211000D02*
D03*
X485453D02*
D03*
X469547Y328000D02*
D03*
X475453D02*
D03*
X485953Y327000D02*
D03*
X480047D02*
D03*
X368547Y322000D02*
D03*
X374453D02*
D03*
X440553Y308000D02*
D03*
X434647D02*
D03*
X485094Y220500D02*
D03*
X491000D02*
D03*
X485047Y238500D02*
D03*
X490953D02*
D03*
X485047Y247500D02*
D03*
X490953D02*
D03*
D39*
X324858Y220071D02*
D03*
X330764D02*
D03*
X313047D02*
D03*
D40*
X336669Y207472D02*
D03*
X307142D02*
D03*
Y216528D02*
D03*
X336669D02*
D03*
D41*
X451256Y203500D02*
D03*
X445744D02*
D03*
X392744Y244500D02*
D03*
X398256D02*
D03*
X339756Y338000D02*
D03*
X334244D02*
D03*
X334244Y346500D02*
D03*
X339756D02*
D03*
X315244Y257500D02*
D03*
X320756D02*
D03*
X332512Y305000D02*
D03*
X327000D02*
D03*
X479744Y204500D02*
D03*
X485256D02*
D03*
X486244Y317000D02*
D03*
X491756D02*
D03*
X452256Y221000D02*
D03*
X446744D02*
D03*
X469756D02*
D03*
X464244D02*
D03*
X481756Y252500D02*
D03*
X476244D02*
D03*
X457244D02*
D03*
X462756D02*
D03*
X491056Y294100D02*
D03*
X485544D02*
D03*
X463756Y279500D02*
D03*
X458244D02*
D03*
D42*
X371941Y326465D02*
D03*
X374500D02*
D03*
X377059D02*
D03*
Y334535D02*
D03*
X371941D02*
D03*
D43*
X398000Y340752D02*
D03*
X393000D02*
D03*
X388000D02*
D03*
X383000D02*
D03*
X398000Y322248D02*
D03*
X393000D02*
D03*
X388000D02*
D03*
X383000D02*
D03*
D44*
X405760Y309547D02*
D03*
X402020Y317500D02*
D03*
X409500D02*
D03*
D45*
X461000Y257579D02*
D03*
X310500Y241079D02*
D03*
X301500Y241000D02*
D03*
D46*
X461000Y265059D02*
D03*
X310500Y248559D02*
D03*
X301500Y248480D02*
D03*
D47*
X468528Y293500D02*
D03*
X459472Y289760D02*
D03*
Y297240D02*
D03*
X471472Y298500D02*
D03*
X480528Y302240D02*
D03*
Y294760D02*
D03*
D48*
X363693Y227000D02*
D03*
X350307D02*
D03*
D49*
X321634Y297902D02*
D03*
Y323098D02*
D03*
Y301051D02*
D03*
Y319949D02*
D03*
D50*
Y303610D02*
D03*
Y305579D02*
D03*
Y307547D02*
D03*
Y309516D02*
D03*
Y311484D02*
D03*
Y313453D02*
D03*
Y315421D02*
D03*
Y317390D02*
D03*
D51*
X475600Y318500D02*
D03*
Y320469D02*
D03*
X481500D02*
D03*
Y318500D02*
D03*
D52*
X475597Y322434D02*
D03*
X477565D02*
D03*
X479534D02*
D03*
X481503D02*
D03*
Y316534D02*
D03*
X479534D02*
D03*
X477565D02*
D03*
X475597D02*
D03*
D53*
X308760Y287012D02*
D03*
X316240D02*
D03*
Y275988D02*
D03*
X312500D02*
D03*
X308760D02*
D03*
D54*
X469500Y212028D02*
D03*
X473240Y202972D02*
D03*
X465760D02*
D03*
D55*
X491362Y311315D02*
D03*
Y307772D02*
D03*
Y304228D02*
D03*
Y300685D02*
D03*
X486638D02*
D03*
Y304228D02*
D03*
Y307772D02*
D03*
Y311315D02*
D03*
D56*
X445809Y311447D02*
D03*
Y313416D02*
D03*
Y315384D02*
D03*
Y317353D02*
D03*
X434391Y311447D02*
D03*
Y313416D02*
D03*
Y315384D02*
D03*
Y317353D02*
D03*
D57*
X440100Y314400D02*
D03*
D58*
X386610Y314000D02*
D03*
X375390D02*
D03*
X386610Y306000D02*
D03*
X375390D02*
D03*
D59*
X462579Y309000D02*
D03*
D60*
X470059D02*
D03*
M02*
