G04*
G04 #@! TF.GenerationSoftware,Altium Limited,Altium Designer,25.1.2 (22)*
G04*
G04 Layer_Color=32768*
%FSLAX25Y25*%
%MOIN*%
G70*
G04*
G04 #@! TF.SameCoordinates,A423F219-74DF-48C0-8C07-EBF34D934AC7*
G04*
G04*
G04 #@! TF.FilePolarity,Positive*
G04*
G01*
G75*
%ADD13C,0.00394*%
%ADD113C,0.00276*%
%ADD114C,0.00591*%
D13*
X353469Y240598D02*
X353094Y240410D01*
X352719Y240035D01*
X352532Y239660D01*
Y238911D01*
X352719Y238536D01*
X353094Y238161D01*
X353469Y237973D01*
X354031Y237786D01*
X354969D01*
X355531Y237973D01*
X355906Y238161D01*
X356281Y238536D01*
X356468Y238911D01*
Y239660D01*
X356281Y240035D01*
X355906Y240410D01*
X355531Y240598D01*
X353282Y241703D02*
X353094Y242078D01*
X352532Y242641D01*
X356468D01*
X352532Y245714D02*
X352719Y245152D01*
X353282Y244777D01*
X354219Y244590D01*
X354781D01*
X355718Y244777D01*
X356281Y245152D01*
X356468Y245714D01*
Y246089D01*
X356281Y246652D01*
X355718Y247027D01*
X354781Y247214D01*
X354219D01*
X353282Y247027D01*
X352719Y246652D01*
X352532Y246089D01*
Y245714D01*
X379559Y243469D02*
X379747Y243094D01*
X380121Y242719D01*
X380496Y242532D01*
X381246D01*
X381621Y242719D01*
X381996Y243094D01*
X382183Y243469D01*
X382371Y244031D01*
Y244969D01*
X382183Y245531D01*
X381996Y245906D01*
X381621Y246281D01*
X381246Y246468D01*
X380496D01*
X380121Y246281D01*
X379747Y245906D01*
X379559Y245531D01*
X378453Y243282D02*
X378078Y243094D01*
X377516Y242532D01*
Y246468D01*
X375567Y243282D02*
X375192Y243094D01*
X374629Y242532D01*
Y246468D01*
X366632Y339531D02*
X366444Y339906D01*
X366069Y340281D01*
X365694Y340468D01*
X364945D01*
X364570Y340281D01*
X364195Y339906D01*
X364008Y339531D01*
X363820Y338969D01*
Y338031D01*
X364008Y337469D01*
X364195Y337094D01*
X364570Y336719D01*
X364945Y336532D01*
X365694D01*
X366069Y336719D01*
X366444Y337094D01*
X366632Y337469D01*
X367925Y339531D02*
Y339718D01*
X368112Y340093D01*
X368300Y340281D01*
X368675Y340468D01*
X369425D01*
X369799Y340281D01*
X369987Y340093D01*
X370174Y339718D01*
Y339344D01*
X369987Y338969D01*
X369612Y338406D01*
X367738Y336532D01*
X370362D01*
X371243Y339718D02*
X371618Y339906D01*
X372180Y340468D01*
Y336532D01*
X321469Y285384D02*
X321094Y285197D01*
X320719Y284822D01*
X320532Y284447D01*
Y283697D01*
X320719Y283322D01*
X321094Y282948D01*
X321469Y282760D01*
X322031Y282573D01*
X322969D01*
X323531Y282760D01*
X323906Y282948D01*
X324281Y283322D01*
X324468Y283697D01*
Y284447D01*
X324281Y284822D01*
X323906Y285197D01*
X323531Y285384D01*
X321282Y286490D02*
X321094Y286865D01*
X320532Y287427D01*
X324468D01*
X330041Y231531D02*
X329853Y231906D01*
X329479Y232281D01*
X329104Y232468D01*
X328354D01*
X327979Y232281D01*
X327604Y231906D01*
X327417Y231531D01*
X327229Y230969D01*
Y230031D01*
X327417Y229469D01*
X327604Y229094D01*
X327979Y228719D01*
X328354Y228532D01*
X329104D01*
X329479Y228719D01*
X329853Y229094D01*
X330041Y229469D01*
X331334Y231531D02*
Y231718D01*
X331522Y232093D01*
X331709Y232281D01*
X332084Y232468D01*
X332834D01*
X333208Y232281D01*
X333396Y232093D01*
X333583Y231718D01*
Y231344D01*
X333396Y230969D01*
X333021Y230406D01*
X331147Y228532D01*
X333771D01*
X314959Y230469D02*
X315147Y230094D01*
X315522Y229719D01*
X315896Y229532D01*
X316646D01*
X317021Y229719D01*
X317396Y230094D01*
X317583Y230469D01*
X317771Y231031D01*
Y231969D01*
X317583Y232531D01*
X317396Y232906D01*
X317021Y233281D01*
X316646Y233468D01*
X315896D01*
X315522Y233281D01*
X315147Y232906D01*
X314959Y232531D01*
X312916Y229532D02*
X313478Y229719D01*
X313666Y230094D01*
Y230469D01*
X313478Y230844D01*
X313104Y231031D01*
X312354Y231219D01*
X311791Y231406D01*
X311417Y231781D01*
X311229Y232156D01*
Y232718D01*
X311417Y233093D01*
X311604Y233281D01*
X312166Y233468D01*
X312916D01*
X313478Y233281D01*
X313666Y233093D01*
X313853Y232718D01*
Y232156D01*
X313666Y231781D01*
X313291Y231406D01*
X312729Y231219D01*
X311979Y231031D01*
X311604Y230844D01*
X311417Y230469D01*
Y230094D01*
X311604Y229719D01*
X312166Y229532D01*
X312916D01*
X309366Y234969D02*
X309553Y234594D01*
X309928Y234219D01*
X310303Y234032D01*
X311052D01*
X311427Y234219D01*
X311802Y234594D01*
X311990Y234969D01*
X312177Y235531D01*
Y236469D01*
X311990Y237031D01*
X311802Y237406D01*
X311427Y237781D01*
X311052Y237968D01*
X310303D01*
X309928Y237781D01*
X309553Y237406D01*
X309366Y237031D01*
X305823Y235344D02*
X306010Y235906D01*
X306385Y236281D01*
X306948Y236469D01*
X307135D01*
X307697Y236281D01*
X308072Y235906D01*
X308260Y235344D01*
Y235156D01*
X308072Y234594D01*
X307697Y234219D01*
X307135Y234032D01*
X306948D01*
X306385Y234219D01*
X306010Y234594D01*
X305823Y235344D01*
Y236281D01*
X306010Y237218D01*
X306385Y237781D01*
X306948Y237968D01*
X307322D01*
X307885Y237781D01*
X308072Y237406D01*
X297531Y270996D02*
X297906Y271184D01*
X298281Y271558D01*
X298468Y271933D01*
Y272683D01*
X298281Y273058D01*
X297906Y273433D01*
X297531Y273620D01*
X296969Y273808D01*
X296031D01*
X295469Y273620D01*
X295094Y273433D01*
X294719Y273058D01*
X294532Y272683D01*
Y271933D01*
X294719Y271558D01*
X295094Y271184D01*
X295469Y270996D01*
X297718Y269890D02*
X297906Y269515D01*
X298468Y268953D01*
X294532D01*
X298468Y265129D02*
X295844Y267004D01*
Y264192D01*
X298468Y265129D02*
X294532D01*
X295469Y277597D02*
X295094Y277410D01*
X294719Y277035D01*
X294532Y276660D01*
Y275911D01*
X294719Y275536D01*
X295094Y275161D01*
X295469Y274973D01*
X296031Y274786D01*
X296969D01*
X297531Y274973D01*
X297906Y275161D01*
X298281Y275536D01*
X298468Y275911D01*
Y276660D01*
X298281Y277035D01*
X297906Y277410D01*
X297531Y277597D01*
X295282Y278703D02*
X295094Y279078D01*
X294532Y279641D01*
X298468D01*
X294532Y281965D02*
Y284027D01*
X296031Y282902D01*
Y283464D01*
X296219Y283839D01*
X296406Y284027D01*
X296969Y284214D01*
X297343D01*
X297906Y284027D01*
X298281Y283652D01*
X298468Y283089D01*
Y282527D01*
X298281Y281965D01*
X298093Y281777D01*
X297718Y281590D01*
X471531Y321403D02*
X471906Y321590D01*
X472281Y321965D01*
X472468Y322340D01*
Y323089D01*
X472281Y323464D01*
X471906Y323839D01*
X471531Y324027D01*
X470969Y324214D01*
X470031D01*
X469469Y324027D01*
X469094Y323839D01*
X468719Y323464D01*
X468532Y323089D01*
Y322340D01*
X468719Y321965D01*
X469094Y321590D01*
X469469Y321403D01*
X471718Y320297D02*
X471906Y319922D01*
X472468Y319359D01*
X468532D01*
X472468Y314786D02*
X468532Y316660D01*
X472468Y317410D02*
Y314786D01*
X474309Y326969D02*
X474496Y326594D01*
X474871Y326219D01*
X475246Y326032D01*
X475996D01*
X476371Y326219D01*
X476745Y326594D01*
X476933Y326969D01*
X477120Y327531D01*
Y328469D01*
X476933Y329031D01*
X476745Y329406D01*
X476371Y329781D01*
X475996Y329968D01*
X475246D01*
X474871Y329781D01*
X474496Y329406D01*
X474309Y329031D01*
X473203Y326782D02*
X472828Y326594D01*
X472266Y326032D01*
Y329968D01*
X468067Y326594D02*
X468255Y326219D01*
X468817Y326032D01*
X469192D01*
X469754Y326219D01*
X470129Y326782D01*
X470316Y327719D01*
Y328656D01*
X470129Y329406D01*
X469754Y329781D01*
X469192Y329968D01*
X469004D01*
X468442Y329781D01*
X468067Y329406D01*
X467880Y328843D01*
Y328656D01*
X468067Y328094D01*
X468442Y327719D01*
X469004Y327531D01*
X469192D01*
X469754Y327719D01*
X470129Y328094D01*
X470316Y328656D01*
X481098Y328031D02*
X480910Y328406D01*
X480535Y328781D01*
X480160Y328968D01*
X479411D01*
X479036Y328781D01*
X478661Y328406D01*
X478473Y328031D01*
X478286Y327469D01*
Y326531D01*
X478473Y325969D01*
X478661Y325594D01*
X479036Y325219D01*
X479411Y325032D01*
X480160D01*
X480535Y325219D01*
X480910Y325594D01*
X481098Y325969D01*
X482203Y328218D02*
X482578Y328406D01*
X483141Y328968D01*
Y325032D01*
X487339Y328968D02*
X485465D01*
X485277Y327281D01*
X485465Y327469D01*
X486027Y327656D01*
X486589D01*
X487152Y327469D01*
X487527Y327094D01*
X487714Y326531D01*
Y326156D01*
X487527Y325594D01*
X487152Y325219D01*
X486589Y325032D01*
X486027D01*
X485465Y325219D01*
X485277Y325407D01*
X485090Y325782D01*
X373712Y320969D02*
X373899Y320594D01*
X374274Y320219D01*
X374649Y320032D01*
X375399D01*
X375774Y320219D01*
X376148Y320594D01*
X376336Y320969D01*
X376523Y321531D01*
Y322469D01*
X376336Y323031D01*
X376148Y323406D01*
X375774Y323781D01*
X375399Y323968D01*
X374649D01*
X374274Y323781D01*
X373899Y323406D01*
X373712Y323031D01*
X372418Y320969D02*
Y320782D01*
X372231Y320407D01*
X372044Y320219D01*
X371669Y320032D01*
X370919D01*
X370544Y320219D01*
X370357Y320407D01*
X370169Y320782D01*
Y321157D01*
X370357Y321531D01*
X370731Y322094D01*
X372606Y323968D01*
X369982D01*
X367976Y320032D02*
X368538Y320219D01*
X368913Y320782D01*
X369101Y321719D01*
Y322281D01*
X368913Y323218D01*
X368538Y323781D01*
X367976Y323968D01*
X367601D01*
X367039Y323781D01*
X366664Y323218D01*
X366477Y322281D01*
Y321719D01*
X366664Y320782D01*
X367039Y320219D01*
X367601Y320032D01*
X367976D01*
X302531Y266809D02*
X302906Y266996D01*
X303281Y267371D01*
X303468Y267746D01*
Y268496D01*
X303281Y268871D01*
X302906Y269245D01*
X302531Y269433D01*
X301969Y269620D01*
X301031D01*
X300469Y269433D01*
X300094Y269245D01*
X299719Y268871D01*
X299532Y268496D01*
Y267746D01*
X299719Y267371D01*
X300094Y266996D01*
X300469Y266809D01*
X302718Y265703D02*
X302906Y265328D01*
X303468Y264766D01*
X299532D01*
X302156Y260380D02*
X301594Y260567D01*
X301219Y260942D01*
X301031Y261504D01*
Y261692D01*
X301219Y262254D01*
X301594Y262629D01*
X302156Y262816D01*
X302344D01*
X302906Y262629D01*
X303281Y262254D01*
X303468Y261692D01*
Y261504D01*
X303281Y260942D01*
X302906Y260567D01*
X302156Y260380D01*
X301219D01*
X300282Y260567D01*
X299719Y260942D01*
X299532Y261504D01*
Y261879D01*
X299719Y262441D01*
X300094Y262629D01*
X310031Y266902D02*
X310406Y267090D01*
X310781Y267465D01*
X310968Y267840D01*
Y268589D01*
X310781Y268964D01*
X310406Y269339D01*
X310031Y269527D01*
X309469Y269714D01*
X308531D01*
X307969Y269527D01*
X307594Y269339D01*
X307219Y268964D01*
X307032Y268589D01*
Y267840D01*
X307219Y267465D01*
X307594Y267090D01*
X307969Y266902D01*
X310218Y265797D02*
X310406Y265422D01*
X310968Y264859D01*
X307032D01*
X310968Y261973D02*
X310781Y262535D01*
X310406Y262723D01*
X310031D01*
X309656Y262535D01*
X309469Y262160D01*
X309281Y261411D01*
X309094Y260848D01*
X308719Y260473D01*
X308344Y260286D01*
X307782D01*
X307407Y260473D01*
X307219Y260661D01*
X307032Y261223D01*
Y261973D01*
X307219Y262535D01*
X307407Y262723D01*
X307782Y262910D01*
X308344D01*
X308719Y262723D01*
X309094Y262348D01*
X309281Y261786D01*
X309469Y261036D01*
X309656Y260661D01*
X310031Y260473D01*
X310406D01*
X310781Y260661D01*
X310968Y261223D01*
Y261973D01*
X495469Y310194D02*
X495094Y310006D01*
X494719Y309631D01*
X494532Y309257D01*
Y308507D01*
X494719Y308132D01*
X495094Y307757D01*
X495469Y307570D01*
X496031Y307382D01*
X496969D01*
X497531Y307570D01*
X497906Y307757D01*
X498281Y308132D01*
X498468Y308507D01*
Y309257D01*
X498281Y309631D01*
X497906Y310006D01*
X497531Y310194D01*
X495469Y311487D02*
X495282D01*
X494907Y311674D01*
X494719Y311862D01*
X494532Y312237D01*
Y312987D01*
X494719Y313362D01*
X494907Y313549D01*
X495282Y313736D01*
X495656D01*
X496031Y313549D01*
X496594Y313174D01*
X498468Y311300D01*
Y313924D01*
X495469Y314992D02*
X495282D01*
X494907Y315180D01*
X494719Y315367D01*
X494532Y315742D01*
Y316492D01*
X494719Y316866D01*
X494907Y317054D01*
X495282Y317241D01*
X495656D01*
X496031Y317054D01*
X496594Y316679D01*
X498468Y314805D01*
Y317429D01*
X435388Y309031D02*
X435201Y309406D01*
X434826Y309781D01*
X434451Y309968D01*
X433701D01*
X433326Y309781D01*
X432952Y309406D01*
X432764Y309031D01*
X432577Y308469D01*
Y307531D01*
X432764Y306969D01*
X432952Y306594D01*
X433326Y306219D01*
X433701Y306032D01*
X434451D01*
X434826Y306219D01*
X435201Y306594D01*
X435388Y306969D01*
X436682Y309031D02*
Y309218D01*
X436869Y309593D01*
X437056Y309781D01*
X437431Y309968D01*
X438181D01*
X438556Y309781D01*
X438743Y309593D01*
X438931Y309218D01*
Y308843D01*
X438743Y308469D01*
X438369Y307906D01*
X436494Y306032D01*
X439118D01*
X440374Y309968D02*
X442436D01*
X441311Y308469D01*
X441874D01*
X442248Y308281D01*
X442436Y308094D01*
X442623Y307531D01*
Y307156D01*
X442436Y306594D01*
X442061Y306219D01*
X441499Y306032D01*
X440936D01*
X440374Y306219D01*
X440187Y306407D01*
X439999Y306782D01*
D113*
X428877Y235163D02*
X426123D01*
Y236541D01*
X426582Y237000D01*
X427500D01*
X427959Y236541D01*
Y235163D01*
X428877Y237918D02*
Y238837D01*
Y238377D01*
X426123D01*
X426582Y237918D01*
X416122Y204296D02*
X418878D01*
Y202918D01*
X418418Y202459D01*
X417500D01*
X417041Y202918D01*
Y204296D01*
X416122Y199704D02*
Y201541D01*
X417959Y199704D01*
X418418D01*
X418878Y200163D01*
Y201082D01*
X418418Y201541D01*
D114*
X325830Y209539D02*
X326814Y208555D01*
X328782D01*
X329766Y209539D01*
Y210523D01*
X328782Y211507D01*
X326814D01*
X325830Y212491D01*
Y213474D01*
X326814Y214458D01*
X328782D01*
X329766Y213474D01*
X323862Y208555D02*
Y214458D01*
X321894Y212491D01*
X319926Y214458D01*
Y208555D01*
X314023Y214458D02*
X317958D01*
X314023Y210523D01*
Y209539D01*
X315007Y208555D01*
X316975D01*
X317958Y209539D01*
M02*
